{"glyphs":{"0":{"ha":726,"x_min":82,"x_max":644,"o":"m 82 283 q 119 472 82 373 q 229 639 156 571 q 404 707 302 707 q 584 630 528 707 q 644 425 639 554 q 610 235 644 336 q 503 63 576 134 q 317 -8 429 -8 q 142 72 202 -8 q 82 283 82 152 m 144 311 l 144 288 q 184 109 144 172 q 322 45 224 45 q 471 107 414 45 q 553 252 528 169 q 582 408 578 335 q 539 590 582 526 q 400 654 497 654 q 258 596 315 654 q 174 458 201 538 q 144 311 146 378 z "},"1":{"ha":450,"x_min":61,"x_max":353,"o":"m 278 610 l 85 471 l 61 511 l 300 700 l 353 700 q 319 415 338 589 l 304 289 l 279 0 l 210 0 q 259 385 245 241 q 278 610 273 529 z "},"2":{"ha":579,"x_min":28,"x_max":511,"o":"m 46 75 q 291 239 134 115 q 449 517 449 363 q 400 628 449 590 q 261 665 351 665 q 189 661 222 665 q 103 643 155 656 l 125 704 q 196 718 158 713 q 265 722 235 722 q 448 669 385 722 q 511 522 511 616 q 472 362 511 431 q 352 225 433 292 q 104 53 270 158 l 104 50 q 498 58 328 50 l 476 0 l 28 0 l 46 75 z "},"3":{"ha":642,"x_min":0,"x_max":559,"o":"m 559 558 q 499 425 559 486 q 345 335 439 363 l 343 330 q 495 264 438 315 q 551 123 551 214 q 502 -51 551 25 q 329 -188 452 -127 q 7 -268 205 -249 l 0 -212 q 301 -141 199 -192 q 446 -31 404 -90 q 489 107 489 29 q 409 251 489 208 q 151 293 328 293 l 171 350 q 401 408 304 350 q 497 558 497 467 q 457 637 497 610 q 314 665 418 665 q 132 640 260 665 l 146 700 q 340 722 252 722 q 503 683 446 722 q 559 558 559 644 z "},"4":{"ha":681,"x_min":28,"x_max":619,"o":"m 473 58 l 463 -52 q 450 -224 455 -138 l 379 -224 q 415 62 398 -102 l 422 127 l 32 127 l 28 172 q 82 247 30 180 q 200 396 135 313 l 268 481 q 375 614 299 519 q 452 715 452 709 l 546 715 q 503 319 530 589 l 489 187 q 619 195 531 187 l 600 127 l 479 127 l 473 58 m 98 187 l 98 184 q 428 189 259 184 q 471 556 447 341 l 482 659 l 476 659 q 283 415 467 640 q 98 187 99 189 z "},"5":{"ha":624,"x_min":28,"x_max":546,"o":"m 220 664 q 193 537 211 632 q 165 378 174 443 q 453 321 359 378 q 546 151 546 264 q 478 -50 546 36 q 283 -188 410 -136 q 35 -245 156 -240 l 28 -191 q 354 -86 224 -174 q 484 135 484 1 q 398 277 484 233 q 86 321 312 321 q 116 449 100 368 q 165 715 132 530 l 543 715 l 533 650 q 382 660 469 656 q 220 664 296 664 z "},"6":{"ha":713,"x_min":68,"x_max":631,"o":"m 143 447 q 249 523 182 495 q 397 550 316 550 q 568 477 505 550 q 631 290 631 404 q 544 60 631 151 q 318 -31 457 -31 q 133 65 198 -31 q 68 286 68 160 q 196 719 68 550 q 571 911 323 888 l 570 856 q 286 738 388 835 q 139 447 184 640 l 143 447 m 325 22 q 498 93 429 22 q 568 277 568 164 q 519 444 568 392 q 361 496 470 496 q 247 474 306 496 q 135 407 187 452 q 131 313 131 372 q 176 104 131 186 q 325 22 222 22 z "},"7":{"ha":607,"x_min":39,"x_max":587,"o":"m 104 -224 l 39 -210 q 275 206 41 -147 q 515 659 508 559 q 302 656 427 659 q 66 647 177 653 l 79 715 l 587 715 q 523 522 587 666 q 286 105 458 378 q 104 -224 114 -168 z "},"8":{"ha":722,"x_min":79,"x_max":640,"o":"m 431 926 q 584 874 528 926 q 640 746 640 821 q 588 612 640 671 q 452 513 536 554 l 452 509 q 590 386 543 444 q 637 256 637 328 q 551 63 637 136 q 330 -11 465 -11 q 152 51 224 -11 q 79 216 79 112 q 138 383 79 308 q 315 507 197 458 l 315 511 q 218 610 251 564 q 184 711 184 656 q 251 868 184 810 q 431 926 318 926 m 424 873 q 296 833 345 873 q 248 728 248 793 q 283 633 248 677 q 395 538 318 590 q 531 623 485 574 q 578 737 578 671 q 534 840 578 806 q 424 873 490 873 m 343 40 q 503 95 437 40 q 570 232 570 150 q 534 348 570 297 q 370 476 498 398 q 204 376 267 440 q 142 216 142 313 q 198 83 142 127 q 343 40 254 40 z "},"9":{"ha":705,"x_min":64,"x_max":627,"o":"m 551 237 q 447 166 513 191 q 297 142 380 142 q 127 215 190 142 q 64 401 64 288 q 151 632 64 541 q 382 722 238 722 q 562 627 497 722 q 627 406 627 531 q 490 -75 627 104 q 97 -273 353 -254 l 86 -220 q 406 -87 294 -203 q 555 237 517 29 l 551 237 m 368 669 q 195 598 264 669 q 126 415 126 527 q 173 250 126 304 q 334 196 220 196 q 448 218 389 196 q 559 285 507 240 q 564 379 564 321 q 517 588 564 506 q 368 669 471 669 z "},"\u0000":{"ha":293,"x_min":0,"x_max":0,"o":""},"\r":{"ha":301,"x_min":0,"x_max":0,"o":""}," ":{"ha":293,"x_min":0,"x_max":0,"o":""},"!":{"ha":350,"x_min":58,"x_max":249,"o":"m 215 892 q 241 878 233 892 q 249 833 249 865 q 215 616 249 773 q 158 340 180 460 l 138 340 q 149 492 145 415 q 153 629 153 570 q 169 834 153 776 q 215 892 184 892 m 58 57 q 79 112 58 93 q 131 131 99 131 q 168 117 155 131 q 180 77 180 102 q 162 21 180 44 q 113 -1 144 -1 q 72 12 86 -1 q 58 57 58 26 z "},"\"":{"ha":629,"x_min":157,"x_max":525,"o":"m 221 964 q 262 899 262 964 q 254 814 262 861 q 231 708 246 768 l 212 640 q 170 476 182 537 l 157 476 q 158 633 158 539 q 165 846 158 767 q 186 945 172 926 q 221 964 200 964 m 484 964 q 525 899 525 964 q 517 814 525 861 q 493 708 509 768 l 475 642 q 432 476 446 542 l 419 476 q 421 633 421 539 q 423 767 421 691 q 435 903 425 842 q 484 964 444 964 z "},"#":{"ha":700,"x_min":17,"x_max":692,"o":"m 572 621 l 685 621 l 677 576 l 554 576 l 464 368 l 578 368 l 574 322 l 444 322 q 372 153 430 288 q 309 0 314 18 l 249 0 q 299 108 252 9 q 396 322 346 206 l 212 322 q 140 153 198 288 q 77 0 82 18 l 17 0 q 67 108 20 9 q 164 322 114 206 l 57 322 l 65 368 l 183 368 l 273 576 l 165 576 l 170 621 l 292 621 q 372 809 349 752 q 400 888 395 866 l 460 888 q 416 788 456 876 q 340 621 376 701 l 524 621 q 604 809 581 752 q 632 888 627 866 l 692 888 q 648 788 688 876 q 572 621 608 701 m 415 368 l 505 576 l 322 576 l 232 368 l 415 368 z "},"$":{"ha":616,"x_min":60,"x_max":521,"o":"m 182 518 q 217 440 182 469 q 331 378 252 412 q 452 306 410 345 q 494 211 494 267 q 447 82 494 130 q 304 24 399 35 q 289 -178 291 -91 l 233 -178 q 243 -95 237 -151 l 257 21 q 60 50 161 21 l 83 110 q 273 71 164 71 q 396 104 354 71 q 437 196 437 137 q 406 271 437 239 q 283 341 374 302 q 157 416 193 380 q 122 503 122 452 q 177 635 122 587 q 329 692 232 684 q 345 900 340 799 l 403 900 q 376 693 397 863 q 521 669 447 692 l 494 612 q 338 642 433 642 q 221 608 261 642 q 182 518 182 574 z "},"%":{"ha":700,"x_min":11,"x_max":682,"o":"m 77 704 q 126 835 77 783 q 253 888 176 888 q 360 848 322 888 q 399 743 399 808 q 347 613 399 667 q 221 559 294 559 q 116 601 155 559 q 77 704 77 642 m 71 0 l 11 7 q 316 443 18 71 q 621 884 615 815 l 682 876 q 376 446 673 814 q 71 0 79 77 m 125 704 q 152 629 125 662 q 224 596 179 596 q 314 637 277 596 q 350 741 350 679 q 322 816 350 783 q 252 850 295 850 q 161 807 197 850 q 125 704 125 765 m 297 140 q 347 271 297 219 q 472 323 396 323 q 580 284 542 323 q 618 179 618 244 q 566 49 618 102 q 440 -4 514 -4 q 336 36 375 -4 q 297 140 297 77 m 346 140 q 372 65 346 98 q 443 32 399 32 q 534 73 498 32 q 570 176 570 115 q 543 252 570 218 q 471 286 515 286 q 381 244 417 286 q 346 140 346 201 z "},"&":{"ha":879,"x_min":37,"x_max":814,"o":"m 745 0 q 640 196 745 70 q 487 38 576 96 q 282 -20 398 -20 q 110 46 182 -20 q 37 216 37 111 q 84 385 37 312 q 271 530 132 457 q 150 713 150 624 q 204 848 150 800 q 345 897 258 897 q 488 853 433 897 q 543 739 543 808 q 509 639 543 684 q 357 533 474 594 q 632 288 517 407 q 672 400 656 340 q 694 517 688 459 l 770 517 q 671 245 733 362 q 775 108 737 172 q 814 0 814 45 l 745 0 m 323 558 q 440 641 399 601 q 481 729 481 682 q 445 817 481 788 q 347 846 409 846 q 248 818 290 846 q 205 724 205 791 q 236 643 205 683 q 323 558 267 603 m 606 236 q 465 374 544 304 q 304 505 385 444 q 142 372 184 437 q 100 220 100 307 q 156 87 100 137 q 294 37 213 37 q 474 91 395 37 q 606 236 552 144 z "},"'":{"ha":325,"x_min":143,"x_max":249,"o":"m 207 964 q 249 899 249 964 q 210 686 249 823 q 155 476 172 549 l 143 476 q 144 633 144 539 q 148 798 144 725 q 161 917 151 870 q 207 964 172 964 z "},"(":{"ha":490,"x_min":78,"x_max":504,"o":"m 144 231 q 197 -63 144 60 q 372 -300 250 -186 l 338 -329 q 141 -89 204 -233 q 78 191 78 56 q 131 554 78 391 q 286 851 183 718 q 488 1032 388 985 l 504 1002 q 243 671 342 876 q 144 231 144 467 z "},")":{"ha":490,"x_min":-72,"x_max":354,"o":"m 288 472 q 234 767 288 643 q 60 1003 181 890 l 94 1032 q 291 792 227 937 q 354 513 354 648 q 221 -35 354 193 q -56 -329 87 -262 l -72 -298 q 191 38 95 -168 q 288 472 288 243 z "},"*":{"ha":700,"x_min":92,"x_max":627,"o":"m 514 670 q 386 677 457 670 l 386 676 l 379 657 q 464 546 438 595 q 489 473 489 497 q 466 435 489 450 q 425 420 444 420 q 380 452 401 420 q 346 639 359 485 l 323 639 q 235 489 271 534 q 172 444 199 444 q 133 463 153 444 q 113 501 113 482 q 169 582 113 539 q 301 668 224 625 l 302 690 l 271 694 q 192 707 230 700 q 123 733 155 713 q 92 778 92 752 q 106 822 92 800 q 145 845 120 845 q 216 810 171 845 q 321 714 262 774 l 334 718 l 330 734 q 318 799 323 769 q 314 863 314 829 q 326 945 314 919 q 386 971 338 971 q 423 956 412 971 q 433 911 433 940 q 413 833 433 884 q 361 715 393 781 l 374 707 l 390 717 q 510 777 466 764 q 575 790 555 790 q 615 771 603 790 q 627 727 627 752 q 602 685 627 701 q 514 670 576 670 z "},"+":{"ha":700,"x_min":86,"x_max":616,"o":"m 612 313 l 374 313 l 349 50 l 293 50 l 318 313 l 86 313 l 87 371 l 326 371 l 351 633 l 410 633 l 383 371 l 616 371 l 612 313 z "},",":{"ha":350,"x_min":-25,"x_max":170,"o":"m -6 -172 q 85 -73 64 -108 q 115 0 107 -37 q 62 22 80 5 q 45 68 45 38 q 64 116 45 100 q 111 132 84 132 q 154 113 138 132 q 170 62 170 94 q 125 -77 170 -9 q -12 -218 81 -145 l -25 -189 l -6 -172 z "},"-":{"ha":350,"x_min":29,"x_max":321,"o":"m 309 321 l 29 313 l 40 371 l 321 382 l 309 321 z "},".":{"ha":350,"x_min":56,"x_max":178,"o":"m 56 57 q 76 112 56 93 q 127 131 96 131 q 165 117 153 131 q 178 77 178 102 q 159 21 178 44 q 110 -1 141 -1 q 70 12 83 -1 q 56 57 56 26 z "},"/":{"ha":371,"x_min":-61,"x_max":378,"o":"m 14 -204 l -61 -204 q 116 347 -57 -158 q 302 986 290 852 l 378 986 q 198 419 373 929 q 14 -204 22 -92 z "},":":{"ha":350,"x_min":56,"x_max":218,"o":"m 56 57 q 76 112 56 93 q 127 131 96 131 q 165 117 153 131 q 178 77 178 102 q 159 21 178 44 q 110 -1 141 -1 q 70 12 83 -1 q 56 57 56 26 m 96 482 q 116 537 96 518 q 168 556 136 556 q 205 542 193 556 q 218 502 218 528 q 199 447 218 469 q 150 424 181 424 q 110 437 123 424 q 96 482 96 451 z "},";":{"ha":350,"x_min":-25,"x_max":218,"o":"m -6 -172 q 85 -73 64 -108 q 115 0 107 -37 q 62 22 80 5 q 45 68 45 38 q 64 116 45 100 q 111 132 84 132 q 154 113 138 132 q 170 62 170 94 q 125 -77 170 -9 q -12 -218 81 -145 l -25 -189 l -6 -172 m 96 482 q 116 537 96 518 q 168 556 136 556 q 205 542 193 556 q 218 502 218 528 q 199 447 218 469 q 150 424 181 424 q 110 437 123 424 q 96 482 96 451 z "},"<":{"ha":700,"x_min":71,"x_max":610,"o":"m 154 358 l 151 343 l 546 68 l 513 22 l 71 338 l 77 368 l 581 684 l 610 635 l 154 358 z "},"=":{"ha":700,"x_min":68,"x_max":631,"o":"m 625 452 l 98 452 l 106 510 l 631 510 l 625 452 m 597 174 l 68 174 l 77 231 l 603 231 l 597 174 z "},">":{"ha":700,"x_min":89,"x_max":628,"o":"m 545 347 l 547 363 l 153 637 l 186 684 l 628 368 l 623 338 l 118 22 l 89 69 l 545 347 z "},"?":{"ha":490,"x_min":58,"x_max":406,"o":"m 205 467 l 182 364 l 157 364 l 147 509 q 342 703 342 547 q 277 815 342 778 q 83 852 213 852 l 58 852 l 81 905 q 321 858 237 905 q 406 715 406 811 q 350 562 406 624 q 205 467 294 500 m 83 57 q 103 112 83 93 q 155 131 123 131 q 193 117 180 131 q 205 77 205 102 q 187 21 205 44 q 138 -1 169 -1 q 97 12 111 -1 q 83 57 83 26 z "},"@":{"ha":1303,"x_min":61,"x_max":1247,"o":"m 829 205 l 829 195 q 857 72 833 115 q 935 29 881 29 q 1110 151 1036 29 q 1185 467 1185 272 q 1058 817 1185 686 q 718 947 930 947 q 412 858 549 947 q 198 611 276 769 q 121 257 121 454 q 245 -127 121 16 q 581 -269 370 -269 q 675 -262 634 -269 q 755 -241 716 -256 l 761 -306 q 581 -322 691 -322 q 201 -161 341 -322 q 61 261 61 -1 q 144 629 61 460 q 378 900 228 799 q 718 1000 528 1000 q 1102 851 957 1000 q 1247 464 1247 701 q 1160 122 1247 264 q 924 -20 1073 -20 q 821 28 862 -20 q 779 193 779 75 l 778 193 q 664 38 729 95 q 529 -20 599 -20 q 413 44 453 -20 q 374 211 374 109 q 422 437 374 328 q 555 614 470 546 q 747 682 641 682 q 813 662 781 682 q 859 614 845 642 l 864 614 l 893 661 l 936 675 q 872 434 914 600 q 829 205 829 268 m 436 207 q 463 74 436 116 q 542 32 490 32 q 730 197 635 32 q 842 572 825 363 q 803 614 829 597 q 739 631 777 631 q 524 507 612 631 q 436 207 436 384 z "},"A":{"ha":844,"x_min":-18,"x_max":770,"o":"m 207 315 q 174 252 196 292 l 139 186 q 88 76 111 131 q 61 0 65 20 l -18 0 q 136 296 -12 16 q 350 721 283 576 q 421 884 418 865 l 509 884 q 639 435 509 846 q 770 0 770 25 l 694 0 q 610 315 694 16 l 207 315 m 460 825 q 405 706 458 817 q 235 368 352 595 l 599 368 q 465 825 465 797 l 460 825 z "},"B":{"ha":730,"x_min":62,"x_max":654,"o":"m 406 888 q 577 839 515 888 q 639 700 639 790 q 594 561 639 618 q 472 485 550 505 l 472 481 q 604 412 553 465 q 654 288 654 359 q 549 76 654 156 q 254 -4 444 -4 q 62 0 223 -4 q 100 317 72 66 l 117 465 q 154 884 146 720 l 228 884 q 312 886 254 884 q 406 888 370 888 m 182 507 q 236 506 202 507 l 279 505 q 509 549 442 505 q 576 692 576 593 q 392 835 576 835 q 290 833 326 835 q 220 827 254 832 q 210 758 220 823 q 182 507 201 692 m 138 58 q 275 50 196 50 q 503 110 416 50 q 590 277 590 170 q 523 406 590 358 q 339 454 456 454 q 242 454 280 454 q 175 450 204 453 q 138 58 147 189 z "},"C":{"ha":664,"x_min":56,"x_max":668,"o":"m 122 393 q 205 132 122 227 q 435 37 288 37 q 535 47 486 37 q 633 77 583 58 l 623 9 q 427 -18 508 -18 q 155 90 254 -18 q 56 385 56 198 q 193 749 56 602 q 534 896 331 896 q 668 876 609 896 l 644 812 q 584 829 614 823 q 526 835 553 835 q 236 707 350 835 q 122 393 122 580 z "},"D":{"ha":793,"x_min":65,"x_max":739,"o":"m 347 888 q 632 782 526 888 q 739 498 739 676 q 605 136 739 282 q 271 -11 470 -11 q 210 -8 248 -11 q 153 -5 171 -6 l 65 0 q 86 166 73 42 q 125 517 98 290 q 154 884 153 744 l 216 884 q 282 886 247 884 q 347 888 317 888 m 144 81 l 142 54 q 268 43 195 43 q 560 170 446 43 q 673 490 673 297 q 583 739 673 645 q 353 833 492 833 q 214 827 264 833 q 183 503 209 764 q 144 81 158 241 z "},"E":{"ha":644,"x_min":64,"x_max":614,"o":"m 194 606 l 180 490 q 496 498 394 490 l 488 433 q 353 438 440 436 q 175 440 266 440 q 158 259 170 378 q 140 53 146 140 q 572 64 363 53 l 559 0 l 64 0 q 83 149 71 41 l 97 280 l 118 465 q 155 884 145 693 l 614 884 l 603 821 q 221 828 433 828 l 194 606 z "},"F":{"ha":606,"x_min":64,"x_max":623,"o":"m 221 828 q 205 690 220 798 l 195 604 q 179 468 186 538 q 479 476 349 468 l 472 411 q 172 418 338 418 q 154 227 160 310 q 141 48 147 144 l 138 0 l 64 0 q 83 149 71 41 l 97 280 l 118 465 q 155 884 145 693 l 623 884 l 611 821 q 221 828 458 828 z "},"G":{"ha":781,"x_min":56,"x_max":708,"o":"m 122 404 q 206 134 122 229 q 443 39 290 39 q 511 42 485 39 q 578 53 538 45 l 599 57 l 602 98 q 614 239 609 193 q 623 340 619 286 l 627 375 l 697 375 l 691 329 q 669 153 677 240 q 659 20 661 65 q 562 -8 613 1 q 440 -18 511 -18 q 155 90 255 -18 q 56 390 56 198 q 196 750 56 604 q 549 896 337 896 q 631 889 587 896 q 708 872 675 883 l 688 808 q 519 835 597 835 q 237 708 353 835 q 122 404 122 582 z "},"H":{"ha":791,"x_min":64,"x_max":726,"o":"m 726 884 q 679 500 709 758 q 635 0 648 243 l 561 0 q 584 182 568 47 q 612 441 600 317 l 175 441 q 153 224 161 319 q 138 0 145 129 l 64 0 q 113 414 75 77 q 155 884 150 751 l 229 884 q 180 494 205 721 l 618 494 q 641 716 632 626 q 653 884 649 806 l 726 884 z "},"I":{"ha":292,"x_min":62,"x_max":228,"o":"m 136 0 l 62 0 q 111 412 73 79 q 154 884 149 745 l 228 884 q 177 471 203 708 q 136 0 150 234 z "},"J":{"ha":517,"x_min":-26,"x_max":468,"o":"m 111 -18 q 33 -14 71 -18 q -26 -1 -5 -9 l -11 61 q 46 43 14 50 q 111 36 78 36 q 277 111 228 36 q 343 355 326 185 l 353 448 q 380 709 371 613 q 393 884 390 804 l 468 884 q 442 699 456 820 q 405 370 427 577 q 319 72 383 163 q 111 -18 255 -18 z "},"K":{"ha":736,"x_min":64,"x_max":693,"o":"m 532 222 q 617 99 557 184 q 676 0 676 14 l 599 0 q 485 188 599 17 q 327 406 372 358 q 221 454 282 454 l 176 454 q 155 248 164 351 q 138 -1 146 144 l 64 0 q 113 414 75 77 q 155 884 150 751 l 229 884 q 182 505 212 765 l 203 505 q 424 683 232 505 q 615 884 615 861 l 693 884 q 528 707 693 869 q 289 496 362 546 l 289 490 q 394 414 346 477 q 522 237 443 351 l 532 222 z "},"L":{"ha":616,"x_min":62,"x_max":557,"o":"m 155 884 l 229 884 l 222 832 q 192 591 222 829 q 140 53 162 353 q 328 56 207 53 q 536 62 448 58 l 557 62 l 547 0 l 62 0 q 89 205 69 35 q 126 534 108 374 q 155 884 144 694 z "},"M":{"ha":1046,"x_min":39,"x_max":935,"o":"m 478 100 l 482 100 q 513 192 486 130 q 629 437 540 254 l 659 497 q 788 776 750 688 q 825 884 825 863 l 935 884 q 917 375 917 696 q 926 0 917 97 l 850 0 q 854 444 850 245 q 871 831 859 642 l 867 831 q 655 368 804 666 q 498 0 506 71 l 436 0 q 416 149 436 41 q 357 427 397 257 l 292 694 l 278 754 l 274 779 q 264 831 266 826 l 257 831 q 175 363 241 693 l 137 168 q 106 0 106 11 l 39 0 q 68 133 39 10 q 148 515 98 255 q 208 884 199 775 l 318 884 q 398 509 318 830 q 478 100 478 187 z "},"N":{"ha":803,"x_min":54,"x_max":749,"o":"m 616 97 l 623 97 q 620 145 620 112 q 639 391 620 223 q 686 884 658 558 l 749 884 q 730 722 745 853 l 700 465 l 690 367 q 656 0 664 134 l 602 0 q 427 357 602 41 q 200 821 253 674 l 192 821 q 193 810 192 818 q 192 789 193 798 l 191 755 q 160 459 189 718 q 117 0 132 201 l 54 0 q 83 249 61 49 l 109 465 q 146 884 139 734 l 232 884 q 280 768 232 873 q 456 431 328 664 q 616 97 585 197 z "},"O":{"ha":888,"x_min":56,"x_max":829,"o":"m 56 364 q 181 742 56 587 q 498 897 307 897 q 737 788 645 897 q 829 505 829 679 q 774 242 829 364 q 618 46 720 119 q 386 -28 517 -28 q 149 83 241 -28 q 56 364 56 195 m 121 364 q 197 120 121 213 q 401 28 273 28 q 662 171 559 28 q 764 505 764 314 q 687 752 764 662 q 476 843 610 843 q 221 699 321 843 q 121 364 121 554 z "},"P":{"ha":693,"x_min":64,"x_max":664,"o":"m 399 888 q 590 829 516 888 q 664 675 664 771 q 562 456 664 535 q 261 378 460 378 l 195 378 q 168 379 183 378 q 138 0 146 165 l 64 0 q 107 370 69 41 q 155 884 146 699 l 232 884 q 343 886 270 884 l 399 888 m 602 657 q 546 792 602 750 q 359 835 490 835 q 284 833 311 835 q 220 827 257 832 l 172 432 q 267 431 191 431 q 519 491 437 431 q 602 657 602 552 z "},"Q":{"ha":888,"x_min":56,"x_max":829,"o":"m 768 -296 l 697 -298 q 665 -134 686 -196 q 591 -50 643 -72 q 399 -28 538 -28 q 149 83 241 -28 q 56 364 56 195 q 181 742 56 587 q 498 897 307 897 q 737 788 645 897 q 829 505 829 679 q 755 205 829 344 q 562 14 680 67 l 562 8 q 710 -68 673 3 q 768 -296 747 -138 m 764 505 q 687 752 764 662 q 476 843 610 843 q 221 699 321 843 q 121 364 121 554 q 197 120 121 213 q 401 28 273 28 q 662 171 559 28 q 764 505 764 314 z "},"R":{"ha":737,"x_min":62,"x_max":681,"o":"m 389 888 q 575 833 508 888 q 642 682 642 778 q 595 544 642 610 q 456 441 549 477 l 457 437 q 574 340 535 413 q 681 0 612 268 l 607 0 q 527 286 562 207 q 449 387 491 366 q 283 408 407 408 q 172 407 195 408 q 140 0 142 146 l 62 0 q 106 360 72 66 q 154 884 140 654 l 228 884 q 308 886 249 884 q 389 888 366 888 m 288 461 q 499 518 424 461 q 574 681 574 575 q 523 799 574 762 q 346 835 471 835 q 220 827 274 835 l 176 463 q 220 461 190 461 l 288 461 z "},"S":{"ha":657,"x_min":26,"x_max":574,"o":"m 163 673 q 193 575 163 614 q 341 485 224 535 q 509 376 458 434 q 559 232 559 317 q 228 -20 559 -20 q 123 -13 180 -20 q 26 7 66 -5 l 49 72 q 133 44 81 56 q 241 33 185 33 l 248 33 q 431 84 367 36 q 494 215 494 133 q 462 332 494 286 q 309 431 429 378 q 143 535 189 484 q 98 659 98 587 q 176 831 98 768 q 395 895 254 895 q 574 876 511 895 l 550 811 q 354 843 467 843 q 218 795 273 843 q 163 673 163 747 z "},"T":{"ha":685,"x_min":74,"x_max":707,"o":"m 551 826 q 422 828 486 828 l 418 795 q 378 465 391 586 l 372 410 q 352 194 360 286 q 339 0 345 103 l 265 0 q 311 378 274 57 q 353 828 347 700 q 74 821 264 828 l 81 884 l 707 884 l 696 821 q 629 823 651 822 l 551 826 z "},"U":{"ha":860,"x_min":86,"x_max":811,"o":"m 366 -14 q 160 65 233 -14 q 86 304 86 144 q 96 451 86 365 q 134 884 106 538 l 207 884 q 171 590 189 751 q 153 310 153 429 q 184 145 153 205 q 259 62 215 85 q 380 39 304 39 q 602 148 525 39 q 699 437 679 257 l 703 476 q 723 688 715 603 q 737 884 730 772 l 811 884 q 757 440 781 667 q 636 99 734 212 q 366 -14 538 -14 z "},"V":{"ha":778,"x_min":46,"x_max":815,"o":"m 367 0 l 307 0 q 280 153 307 45 q 189 424 254 260 q 85 710 123 587 q 46 884 46 832 l 114 884 q 143 738 114 838 q 231 487 173 638 q 315 235 288 336 q 342 94 342 134 l 347 94 q 549 487 351 161 q 746 884 746 813 l 815 884 q 758 736 815 847 q 590 451 700 625 q 424 158 479 277 q 367 0 368 38 z "},"W":{"ha":1240,"x_min":50,"x_max":1276,"o":"m 1276 884 q 1164 624 1276 844 q 974 220 1053 405 q 893 0 895 35 l 833 0 q 762 357 833 78 q 656 781 690 637 l 648 781 q 510 473 609 661 q 367 165 411 286 q 321 0 322 44 l 261 0 q 239 157 261 45 q 170 431 218 269 l 153 488 q 71 769 92 690 q 50 884 50 848 l 118 884 q 131 799 118 854 q 183 601 143 745 l 215 484 q 276 232 256 333 q 296 94 296 132 l 301 94 q 340 224 304 129 q 455 479 375 319 q 581 743 536 639 q 627 884 627 848 l 699 884 q 710 802 699 854 q 751 636 722 749 l 789 484 q 868 94 868 158 l 873 94 q 929 244 876 127 q 1039 485 981 360 l 1092 600 q 1184 805 1161 748 q 1207 884 1207 861 l 1276 884 z "},"X":{"ha":766,"x_min":-28,"x_max":742,"o":"m 685 0 l 602 0 q 566 108 602 24 q 437 340 531 193 l 377 432 l 366 449 l 349 429 q 183 214 231 289 q 95 78 136 138 q 54 0 54 18 l -28 0 q 111 213 -28 27 q 336 496 250 399 q 269 600 305 543 q 208 697 232 657 q 109 884 109 863 l 192 884 q 217 815 192 870 q 269 715 242 760 l 385 539 q 466 628 429 587 q 545 722 503 669 l 562 744 q 636 840 610 804 q 663 884 663 875 l 742 884 q 645 754 742 862 q 497 585 547 646 q 416 492 447 524 q 622 148 559 270 q 685 0 685 25 z "},"Y":{"ha":703,"x_min":58,"x_max":742,"o":"m 354 232 l 353 212 q 338 0 345 123 l 262 0 l 265 22 q 292 228 286 170 q 298 307 298 286 q 233 543 298 414 q 113 765 168 672 q 58 884 58 858 l 135 884 q 242 660 135 868 q 349 395 349 452 l 354 395 q 391 484 354 420 q 511 660 429 547 l 532 689 q 634 830 601 783 q 667 884 667 877 l 742 884 q 600 683 742 861 q 411 426 458 506 q 354 232 363 346 z "},"Z":{"ha":665,"x_min":22,"x_max":632,"o":"m 231 245 q 144 118 178 170 q 109 60 111 66 l 109 53 q 567 64 322 53 l 558 0 l 22 0 l 29 57 q 329 484 172 244 l 404 595 q 512 760 480 711 q 545 823 543 810 l 545 828 l 445 828 q 119 821 241 828 l 125 884 l 632 884 l 625 823 q 463 587 595 781 l 231 245 z "},"[":{"ha":490,"x_min":61,"x_max":514,"o":"m 267 970 q 199 371 248 831 q 134 -268 151 -89 l 165 -267 q 235 -266 170 -267 q 374 -257 300 -264 l 364 -325 l 61 -319 q 130 239 109 24 q 177 740 151 454 l 203 1022 l 514 1032 l 503 966 q 267 970 379 970 z "},"\\":{"ha":325,"x_min":94,"x_max":261,"o":"m 94 986 l 155 986 q 208 348 155 850 q 261 -204 261 -154 l 200 -204 q 147 401 200 -117 q 94 986 94 919 z "},"]":{"ha":490,"x_min":-77,"x_max":376,"o":"m 171 -262 q 200 -22 188 -133 q 229 252 212 88 l 243 386 q 304 975 275 656 l 274 975 q 204 972 270 975 q 64 964 138 970 l 74 1032 l 376 1026 q 316 545 340 773 q 260 -33 292 317 l 235 -315 l -77 -325 l -65 -260 q 171 -262 58 -262 z "},"^":{"ha":652,"x_min":22,"x_max":650,"o":"m 608 425 l 387 871 l 372 871 l 64 424 l 22 463 l 374 961 l 403 961 l 650 463 l 608 425 z "},"_":{"ha":673,"x_min":-164,"x_max":536,"o":"m -164 -347 l -164 -294 l 536 -294 l 536 -347 l -164 -347 z "},"`":{"ha":380,"x_min":122,"x_max":315,"o":"m 122 956 l 222 956 q 254 880 222 947 q 300 778 285 813 q 315 736 315 743 l 271 736 q 245 780 271 743 q 198 846 219 817 q 149 913 176 876 q 122 956 122 951 z "},"a":{"ha":639,"x_min":37,"x_max":570,"o":"m 495 122 q 503 1 495 54 l 439 -7 q 435 160 435 52 l 432 160 q 329 31 387 73 q 201 -12 270 -12 q 79 55 121 -12 q 37 221 37 122 q 162 520 37 397 q 490 644 287 644 l 497 644 l 528 667 l 570 676 q 514 383 533 506 q 496 179 496 260 l 495 122 m 98 233 q 127 86 98 133 q 216 40 156 40 q 348 115 276 40 q 450 337 419 189 q 485 591 481 484 q 193 480 288 589 q 98 233 98 371 z "},"b":{"ha":746,"x_min":85,"x_max":679,"o":"m 220 705 q 197 482 211 608 l 200 482 q 458 665 301 665 q 619 592 559 665 q 679 404 679 518 q 586 98 679 214 q 329 -17 492 -17 q 227 -4 274 -17 q 151 28 179 9 l 147 28 l 132 0 l 85 -7 q 113 229 96 77 q 143 507 130 381 l 151 584 q 174 811 167 730 q 180 954 180 892 l 248 958 q 236 850 248 946 l 220 705 m 616 385 q 577 556 616 502 q 446 611 538 611 q 267 502 348 611 q 174 261 186 392 l 155 78 q 235 45 191 56 q 315 33 280 33 q 536 129 455 33 q 616 385 616 225 z "},"c":{"ha":585,"x_min":71,"x_max":550,"o":"m 134 294 q 183 106 134 177 q 329 36 233 36 q 421 52 378 36 q 522 107 465 67 l 510 39 q 322 -17 433 -17 q 138 64 205 -17 q 71 281 71 145 q 173 550 71 444 q 437 657 275 657 q 503 655 477 657 q 550 646 529 652 l 528 575 q 459 592 488 587 q 397 597 430 597 q 212 507 290 597 q 134 294 134 416 z "},"d":{"ha":742,"x_min":66,"x_max":682,"o":"m 631 484 q 606 256 612 332 q 601 142 601 180 q 612 0 601 79 l 557 -9 q 548 56 549 16 q 546 176 546 97 l 545 178 q 434 35 500 83 q 286 -12 368 -12 q 128 64 189 -12 q 66 254 66 140 q 158 556 66 444 q 415 668 250 668 q 509 656 464 668 q 586 624 555 644 l 589 624 q 602 764 597 686 q 614 956 608 842 l 682 958 q 655 720 673 884 q 633 507 637 557 l 631 484 m 129 277 q 306 40 129 40 q 475 149 399 40 q 564 389 551 257 l 583 568 q 504 602 551 589 q 415 615 457 615 q 205 525 281 615 q 129 277 129 434 z "},"e":{"ha":656,"x_min":71,"x_max":608,"o":"m 71 277 q 171 559 71 445 q 424 673 271 673 q 556 633 505 673 q 608 526 608 593 q 489 378 608 423 q 134 325 370 332 q 185 102 134 168 q 355 36 237 36 q 554 109 444 36 l 542 45 q 339 -17 463 -17 q 142 63 214 -17 q 71 277 71 142 m 546 532 q 509 596 546 570 q 419 623 472 623 q 241 551 321 623 q 143 374 161 479 q 444 415 341 377 q 546 532 546 452 z "},"f":{"ha":457,"x_min":22,"x_max":507,"o":"m 267 628 q 460 635 355 628 l 453 575 q 261 578 357 578 l 235 126 q 204 -109 225 -35 q 153 -227 183 -183 q 40 -302 122 -270 l 22 -278 q 130 -143 103 -220 q 175 161 157 -65 q 205 578 193 388 q 47 575 125 578 l 57 632 q 210 628 161 628 q 244 842 223 771 q 310 943 265 913 q 444 974 355 974 q 507 964 467 974 l 492 909 q 414 921 447 921 q 309 860 338 921 q 267 628 280 798 z "},"g":{"ha":686,"x_min":-17,"x_max":699,"o":"m 538 591 q 563 538 554 564 q 571 486 571 513 q 495 297 571 369 q 297 225 419 225 q 238 231 266 225 q 193 245 211 237 q 153 204 170 230 q 135 150 135 179 q 196 92 135 104 q 401 79 256 79 q 545 44 490 79 q 600 -56 600 9 q 496 -268 600 -186 q 244 -350 392 -350 q 64 -306 144 -350 q -17 -134 -17 -262 q 18 -16 -17 -66 q 117 64 53 35 l 115 65 q 84 97 95 77 q 74 135 74 118 q 150 267 74 191 l 151 269 q 102 326 124 286 q 81 411 81 367 q 153 598 81 530 q 349 665 226 665 q 441 655 403 665 q 510 623 479 644 l 513 623 q 564 705 532 682 q 633 728 597 728 q 673 727 659 728 q 699 722 687 726 l 684 669 q 538 597 564 669 l 538 591 m 140 422 q 179 312 140 347 q 298 277 218 277 q 455 329 399 277 q 511 465 511 380 q 475 581 511 545 q 334 618 439 618 q 192 564 244 618 q 140 422 140 510 m 248 -298 q 456 -233 372 -298 q 541 -78 541 -168 q 495 4 541 -14 q 288 22 449 22 q 151 32 220 22 q 40 -123 40 -30 q 89 -255 40 -211 q 248 -298 138 -298 z "},"h":{"ha":718,"x_min":79,"x_max":623,"o":"m 597 0 l 526 -7 q 544 170 526 21 q 562 454 562 318 q 533 576 562 540 q 428 612 503 612 q 260 503 342 612 q 166 256 178 393 l 144 0 l 142 1 l 79 -7 q 88 59 79 3 q 103 174 97 115 l 121 342 l 139 507 q 165 785 157 686 q 176 954 174 884 l 240 958 q 224 774 240 933 l 192 482 l 196 482 q 443 665 291 665 q 577 615 532 665 q 623 464 623 565 q 610 272 623 419 q 597 0 597 124 z "},"i":{"ha":302,"x_min":83,"x_max":236,"o":"m 138 835 q 192 900 138 900 q 236 851 236 900 q 182 787 236 787 q 138 835 138 787 m 175 300 q 150 0 163 178 l 83 -7 q 113 239 92 53 l 119 300 q 133 465 127 354 q 139 640 139 576 l 210 656 q 184 387 204 581 l 175 300 z "},"j":{"ha":302,"x_min":-37,"x_max":236,"o":"m 138 835 q 192 900 138 900 q 236 851 236 900 q 182 787 236 787 q 138 835 138 787 m 200 540 q 185 405 196 492 q 163 175 175 317 l 143 -49 q 93 -209 135 -144 q -20 -301 50 -274 l -37 -271 q 48 -173 28 -216 q 84 -23 68 -130 q 118 297 100 84 q 138 640 136 509 l 210 656 q 205 596 206 616 l 200 540 z "},"k":{"ha":665,"x_min":82,"x_max":650,"o":"m 160 180 l 163 180 q 237 300 180 227 q 374 450 294 374 l 442 517 q 538 613 510 584 q 566 652 566 642 l 650 650 q 571 559 650 631 q 386 399 492 488 l 387 393 q 524 165 473 283 q 575 0 575 47 l 509 -7 q 468 145 509 37 q 351 354 427 252 q 295 294 320 321 q 253 244 271 267 q 146 0 152 105 l 82 -7 q 129 384 93 58 q 179 954 165 711 l 245 958 q 203 555 245 926 q 160 180 161 185 z "},"l":{"ha":292,"x_min":86,"x_max":250,"o":"m 224 710 q 187 369 205 549 q 154 1 170 189 l 86 -7 q 94 51 86 -1 q 126 322 102 103 l 136 408 q 164 693 147 513 q 183 954 180 873 l 250 958 q 239 832 250 936 l 224 710 z "},"m":{"ha":1103,"x_min":79,"x_max":1010,"o":"m 196 482 q 293 609 225 552 q 429 665 361 665 q 545 621 509 665 q 585 482 581 576 l 590 482 q 689 618 628 572 q 827 665 751 665 q 963 613 916 665 q 1010 464 1010 560 q 997 254 1010 397 q 983 0 983 112 l 918 -7 q 936 214 918 52 q 953 433 953 376 q 921 568 953 523 q 831 612 888 612 q 669 528 732 612 q 586 313 606 444 q 567 53 567 182 q 568 0 567 31 l 501 -7 q 519 217 501 41 q 536 447 536 393 q 513 574 536 536 q 422 612 489 612 q 257 496 337 612 q 165 252 178 380 l 149 62 l 143 0 l 79 -7 q 126 468 126 338 q 115 642 126 564 l 189 659 q 193 482 193 581 l 196 482 z "},"n":{"ha":714,"x_min":79,"x_max":623,"o":"m 192 481 q 297 620 232 574 q 443 665 363 665 q 577 615 532 665 q 623 464 623 565 q 610 272 623 419 q 597 0 597 124 l 528 -7 q 545 175 528 14 q 562 454 562 336 q 532 576 562 539 q 425 612 501 612 q 251 497 330 612 q 162 219 172 382 q 147 0 152 56 l 79 -7 q 126 468 126 338 q 115 642 126 564 l 184 657 q 189 481 189 584 l 192 481 z "},"o":{"ha":730,"x_min":71,"x_max":660,"o":"m 71 282 q 166 556 71 439 q 410 673 262 673 q 590 592 521 673 q 660 382 660 510 q 563 93 660 212 q 319 -26 467 -26 q 140 60 210 -26 q 71 282 71 147 m 134 288 q 186 98 134 169 q 330 26 238 26 q 519 126 441 26 q 597 366 597 227 q 546 554 597 487 q 396 621 495 621 q 208 523 283 621 q 134 288 134 425 z "},"p":{"ha":742,"x_min":56,"x_max":677,"o":"m 191 634 q 195 481 195 538 l 199 481 q 450 665 296 665 q 616 595 555 665 q 677 404 677 524 q 583 98 677 214 q 323 -17 488 -17 q 228 -4 277 -17 q 153 28 178 9 l 150 28 q 147 4 149 12 l 133 -139 q 118 -300 123 -241 l 56 -310 q 132 489 132 327 q 121 642 132 553 l 191 657 l 191 634 m 615 395 q 575 560 615 509 q 443 611 536 611 q 261 498 342 611 q 171 261 180 385 l 157 78 q 236 45 195 56 q 313 33 278 33 q 538 127 461 33 q 615 395 615 221 z "},"q":{"ha":726,"x_min":66,"x_max":657,"o":"m 66 254 q 158 556 66 444 q 415 668 250 668 q 507 655 463 668 q 582 623 550 643 l 586 623 l 616 644 l 657 648 q 622 390 650 607 q 557 -301 593 173 l 492 -307 q 517 -70 501 -240 q 549 178 533 100 l 545 178 q 434 35 500 83 q 286 -12 368 -12 q 128 64 189 -12 q 66 254 66 140 m 129 277 q 306 40 129 40 q 475 149 399 40 q 564 389 551 257 l 583 568 q 504 602 551 589 q 415 615 457 615 q 205 525 281 615 q 129 277 129 434 z "},"r":{"ha":498,"x_min":79,"x_max":501,"o":"m 146 0 l 79 -7 q 126 468 126 338 q 115 642 126 564 l 184 657 q 189 538 189 579 l 192 538 q 268 632 214 597 q 385 667 323 667 q 501 652 433 667 l 478 596 l 456 601 q 421 606 439 604 q 376 607 403 607 q 244 548 298 607 q 178 378 190 489 q 146 0 165 267 z "},"s":{"ha":541,"x_min":33,"x_max":488,"o":"m 147 505 q 177 433 147 458 q 300 365 208 408 q 427 285 392 321 q 461 193 461 248 q 400 44 461 99 q 233 -11 339 -11 q 33 16 130 -11 l 50 77 q 138 51 96 59 q 239 43 180 43 q 360 76 319 43 q 401 170 401 109 q 372 254 401 229 q 256 319 343 280 q 128 393 168 357 q 87 492 87 429 q 150 614 87 565 q 313 664 212 664 q 488 643 408 664 l 464 586 q 309 610 381 610 q 190 581 233 610 q 147 505 147 553 z "},"t":{"ha":525,"x_min":68,"x_max":460,"o":"m 151 170 q 161 306 151 212 q 193 578 171 400 q 68 574 155 578 l 77 631 q 159 628 109 628 l 203 628 l 231 825 l 292 829 l 287 801 q 258 628 271 713 q 458 635 353 628 l 452 574 q 249 578 326 578 q 231 414 249 576 q 212 191 212 252 q 232 67 212 96 q 304 39 252 39 q 380 53 342 39 q 460 97 418 68 l 449 33 q 302 -14 371 -14 q 185 33 219 -14 q 151 170 151 79 z "},"u":{"ha":720,"x_min":93,"x_max":636,"o":"m 600 3 l 530 -9 q 528 170 528 32 l 526 170 q 420 30 481 77 q 272 -18 360 -18 q 93 183 93 -18 q 100 304 93 206 q 107 404 107 402 q 119 644 119 565 l 187 659 q 179 566 187 648 q 170 463 171 484 l 161 351 q 155 262 157 297 q 153 200 153 227 q 182 72 153 110 q 292 35 212 35 q 462 151 384 35 q 549 383 540 268 l 553 441 q 566 644 566 577 l 636 657 q 599 337 609 444 q 589 155 589 230 q 600 3 589 74 z "},"v":{"ha":640,"x_min":61,"x_max":612,"o":"m 301 0 l 244 0 q 153 340 244 92 q 61 644 61 589 l 132 652 q 202 390 132 590 q 282 96 271 191 l 286 96 q 421 372 304 165 q 539 644 539 579 l 612 652 q 504 414 612 596 q 348 123 395 233 q 301 0 301 14 z "},"w":{"ha":1002,"x_min":54,"x_max":978,"o":"m 978 652 q 879 409 978 594 q 734 119 779 224 q 689 0 689 13 l 632 0 q 576 291 632 48 q 517 575 520 534 l 513 575 q 412 348 481 483 q 300 113 342 213 q 257 0 257 14 l 200 0 q 189 80 200 30 q 143 262 178 130 l 123 338 q 68 560 82 499 q 54 644 54 621 l 125 652 q 135 574 125 626 q 172 399 145 523 l 179 368 l 192 313 q 224 168 213 221 q 237 96 235 115 l 241 96 q 365 372 258 153 q 481 644 471 590 l 558 652 q 605 435 558 621 q 669 96 651 250 l 673 96 q 797 368 690 152 q 904 644 904 585 l 978 652 z "},"x":{"ha":682,"x_min":29,"x_max":625,"o":"m 383 350 l 383 347 q 492 172 422 292 l 511 138 q 555 62 522 118 q 589 0 589 6 l 513 -7 q 505 16 513 -1 q 481 63 497 33 l 453 118 q 340 315 404 215 l 272 235 q 159 91 213 167 q 106 0 106 16 l 29 -7 q 50 44 29 12 q 119 136 70 75 l 146 168 q 236 275 203 237 q 309 351 269 312 l 309 353 q 264 424 292 376 q 182 553 236 471 q 127 644 127 635 l 211 652 q 268 528 211 624 q 354 389 324 431 l 357 389 q 518 579 483 525 q 554 644 554 634 l 625 652 q 531 510 625 616 q 383 350 437 404 z "},"y":{"ha":610,"x_min":7,"x_max":603,"o":"m 7 -300 l 7 -245 q 143 -201 84 -245 q 227 -100 201 -157 q 252 12 252 -43 q 162 342 252 104 q 72 644 72 581 l 142 652 q 155 575 142 623 q 209 399 168 527 l 224 353 q 277 174 262 231 q 292 93 292 117 l 298 93 q 309 115 302 100 l 319 139 q 451 422 371 260 q 530 647 530 583 l 603 652 q 467 331 603 571 q 299 -39 332 90 q 196 -234 267 -168 q 7 -300 126 -300 z "},"z":{"ha":582,"x_min":26,"x_max":530,"o":"m 104 52 l 104 47 q 493 58 345 47 l 479 0 l 26 0 l 32 54 q 101 142 83 117 q 282 366 119 168 q 446 589 446 565 l 446 591 q 86 586 230 591 l 97 644 l 530 644 l 517 590 q 256 254 408 432 q 104 52 104 77 z "},"{":{"ha":490,"x_min":24,"x_max":497,"o":"m 243 633 l 249 591 q 255 552 251 576 q 258 519 258 529 q 216 408 258 452 q 92 354 174 363 l 92 351 q 182 313 140 351 q 225 214 225 275 q 193 86 225 165 q 149 -48 161 7 q 136 -126 136 -104 q 194 -224 136 -182 q 359 -294 252 -266 l 336 -332 q 79 -132 79 -276 q 122 42 79 -79 q 164 228 164 163 q 132 291 164 267 q 24 321 100 314 l 35 379 q 162 427 122 397 q 203 509 203 456 q 189 631 203 546 q 175 772 175 716 q 259 946 175 877 q 488 1032 344 1015 l 497 985 q 302 915 374 970 q 229 775 229 861 q 232 713 229 753 q 243 633 235 674 z "},"|":{"ha":350,"x_min":143,"x_max":210,"o":"m 210 -350 l 144 -350 q 149 118 149 -146 l 149 319 q 143 1051 149 750 l 208 1051 q 204 271 204 728 q 205 -62 204 77 q 210 -350 206 -202 z "},"}":{"ha":490,"x_min":-62,"x_max":411,"o":"m 176 180 q 219 293 176 248 q 343 346 261 337 l 343 349 q 252 387 295 349 q 210 486 210 425 q 241 613 210 534 q 286 748 273 692 q 298 827 298 804 q 240 924 298 882 q 75 994 182 966 l 98 1032 q 355 832 355 975 q 313 657 355 776 q 271 472 271 538 q 301 411 271 436 q 411 379 331 387 l 400 321 q 272 274 312 302 q 232 192 232 245 q 246 69 232 154 q 260 -72 260 -16 q 174 -248 260 -180 q -53 -332 87 -316 l -62 -285 q 133 -215 60 -270 q 205 -75 205 -161 q 191 76 205 -16 q 176 180 176 168 z "},"~":{"ha":652,"x_min":-7,"x_max":665,"o":"m 196 342 q 113 311 158 342 q 28 224 68 279 l -7 240 q 107 370 52 328 q 224 412 163 412 q 356 385 264 412 q 485 358 448 358 q 561 384 523 358 q 628 452 598 409 l 665 432 q 555 323 610 358 q 437 289 499 289 q 315 315 390 289 q 196 342 241 342 z "},"":{"ha":833,"x_min":0,"x_max":0,"o":""}," ":{"ha":293,"x_min":0,"x_max":0,"o":""},"¡":{"ha":350,"x_min":118,"x_max":309,"o":"m 309 590 q 288 535 309 554 q 236 517 268 517 q 199 531 212 517 q 186 571 186 546 q 204 626 186 604 q 254 648 223 648 q 295 635 281 648 q 309 590 309 621 m 151 -244 q 126 -231 134 -244 q 118 -186 118 -218 q 153 37 118 -124 q 208 307 189 198 l 229 307 q 218 154 222 231 q 214 18 214 76 q 198 -187 214 -130 q 151 -244 182 -244 z "},"¢":{"ha":700,"x_min":109,"x_max":593,"o":"m 168 349 q 231 146 168 211 q 400 82 293 82 q 465 88 434 82 q 543 108 495 94 l 559 113 l 551 60 q 487 38 528 47 q 404 29 446 29 q 387 -167 392 -68 l 334 -167 l 338 -128 l 357 32 q 175 123 241 44 q 109 330 109 202 q 194 581 109 478 q 431 705 279 684 l 433 732 q 446 913 442 844 l 501 913 q 475 710 490 813 l 487 710 q 593 696 536 710 l 572 635 q 511 649 537 646 q 452 653 485 653 q 251 565 334 653 q 168 349 168 476 z "},"£":{"ha":616,"x_min":49,"x_max":550,"o":"m 533 0 l 49 0 l 52 35 q 152 110 125 57 q 179 271 179 162 l 179 340 l 62 336 l 69 386 q 178 383 111 383 l 178 424 q 214 660 178 588 q 310 765 250 732 q 450 799 370 799 q 521 796 482 799 l 504 741 q 441 747 481 747 q 318 712 365 747 q 252 633 271 677 q 234 455 234 589 l 235 383 q 375 387 290 383 l 368 338 q 235 340 326 340 l 235 310 q 221 150 235 214 q 164 53 208 86 l 163 46 q 343 48 255 46 q 550 57 431 50 l 533 0 z "},"¤":{"ha":677,"x_min":75,"x_max":603,"o":"m 528 205 l 591 146 l 522 77 l 464 139 q 325 94 402 94 q 203 127 258 94 l 144 65 l 75 135 l 138 193 q 111 306 111 239 q 151 452 111 395 l 86 514 l 155 582 l 221 513 q 345 546 278 546 q 460 515 406 546 l 534 593 l 603 525 l 528 453 q 559 334 559 405 q 528 205 559 255 m 334 486 q 231 437 270 486 q 192 323 192 387 q 232 205 192 256 q 336 154 273 154 q 440 205 401 154 q 478 317 478 257 q 439 432 478 378 q 334 486 401 486 z "},"¥":{"ha":616,"x_min":50,"x_max":614,"o":"m 558 425 l 554 383 l 386 383 q 340 301 359 337 l 545 301 l 543 260 q 328 264 464 264 q 307 90 313 150 q 297 0 301 29 l 240 0 q 260 166 250 76 q 271 264 270 257 q 50 260 179 264 l 52 301 l 265 301 q 239 383 257 334 l 62 383 l 65 425 l 225 421 q 117 654 155 591 q 78 724 79 718 l 155 724 l 161 711 q 258 488 212 613 q 304 310 304 363 l 310 310 q 421 540 318 370 q 536 724 524 710 l 614 724 l 589 691 q 499 563 556 646 q 408 419 442 479 l 558 425 z "},"¦":{"ha":350,"x_min":144,"x_max":210,"o":"m 149 709 q 149 742 149 723 l 149 838 q 144 1064 149 954 l 210 1064 q 203 765 203 869 l 202 654 q 205 443 202 552 l 146 443 q 150 624 150 530 l 149 709 m 149 43 q 144 269 149 158 l 205 269 q 202 77 202 172 l 203 -28 q 210 -350 203 -135 l 144 -350 q 149 -53 149 -193 l 149 43 z "},"§":{"ha":582,"x_min":-14,"x_max":509,"o":"m 163 766 q 183 673 163 709 q 253 593 204 636 l 371 485 q 426 433 408 451 q 455 388 443 415 q 467 325 467 361 q 410 213 467 262 q 269 147 354 163 q 392 12 362 62 q 421 -79 421 -37 q 361 -236 421 -177 q 192 -294 302 -294 q -14 -268 97 -294 l 9 -208 q 95 -234 50 -225 q 182 -243 140 -243 q 323 -207 274 -243 q 372 -104 372 -171 q 346 -28 372 -75 q 282 56 320 19 l 178 155 q 99 250 123 208 q 74 334 74 293 q 119 460 74 416 q 245 517 165 503 q 141 635 175 578 q 107 747 107 692 q 174 896 107 834 q 354 958 241 958 q 509 937 435 958 l 482 880 q 422 900 456 895 q 347 905 388 905 q 208 867 252 905 q 163 766 163 829 m 289 482 q 173 446 218 482 q 127 347 127 410 q 153 272 127 315 q 232 179 178 229 q 353 224 298 179 q 408 322 408 269 q 380 403 408 368 q 289 482 351 438 z "},"¨":{"ha":567,"x_min":138,"x_max":469,"o":"m 138 835 q 192 900 138 900 q 236 851 236 900 q 182 787 236 787 q 138 835 138 787 m 371 835 q 425 900 371 900 q 469 851 469 900 q 415 787 469 787 q 371 835 371 787 z "},"©":{"ha":827,"x_min":8,"x_max":814,"o":"m 412 0 q 121 121 235 0 q 8 400 8 241 q 124 683 8 563 q 412 803 239 803 q 696 684 578 803 q 814 400 814 566 q 697 119 814 239 q 412 0 581 0 m 412 760 q 157 656 260 760 q 54 401 54 553 q 101 220 54 302 q 231 90 148 138 q 412 43 314 43 q 666 151 564 43 q 768 401 768 260 q 668 650 768 541 q 412 760 567 760 m 277 393 q 316 269 277 310 q 425 228 356 228 q 461 230 445 228 q 509 239 477 233 l 515 200 q 461 189 484 193 q 418 186 439 186 q 282 242 333 186 q 232 387 232 298 q 301 570 232 498 q 468 643 371 643 q 507 641 492 643 q 536 633 522 638 l 517 585 q 461 596 481 596 q 328 538 379 596 q 277 393 277 480 z "},"ª":{"ha":400,"x_min":49,"x_max":346,"o":"m 321 545 l 267 534 q 265 570 265 544 l 265 614 l 261 614 q 209 552 240 571 q 138 533 178 533 q 74 564 100 533 q 49 656 49 595 q 110 813 49 751 q 290 879 172 876 l 306 892 l 346 897 q 314 628 314 716 q 321 545 314 587 m 151 571 q 230 618 196 571 q 272 737 264 665 l 285 847 q 149 798 201 846 q 97 657 97 751 q 111 592 97 614 q 151 571 125 571 z "},"«":{"ha":631,"x_min":49,"x_max":581,"o":"m 123 330 l 260 103 l 214 86 l 49 310 l 53 354 l 262 575 l 310 557 l 123 330 m 394 330 l 530 103 l 484 86 l 319 310 l 323 354 l 533 575 l 581 557 l 394 330 z "},"¬":{"ha":700,"x_min":50,"x_max":586,"o":"m 542 96 l 484 96 l 519 446 l 50 446 l 61 501 l 586 501 l 542 96 z "},"­":{"ha":350,"x_min":29,"x_max":321,"o":"m 309 321 l 29 313 l 40 371 l 321 382 l 309 321 z "},"®":{"ha":827,"x_min":8,"x_max":814,"o":"m 412 107 q 122 227 235 107 q 8 507 8 347 q 123 789 8 669 q 412 909 237 909 q 695 792 577 909 q 814 507 814 674 q 698 228 814 348 q 412 107 583 107 m 412 867 q 154 760 253 867 q 54 509 54 654 q 161 249 54 347 q 412 150 269 150 q 666 258 564 150 q 768 509 768 366 q 667 758 768 649 q 412 867 566 867 m 570 307 l 522 307 l 501 397 q 461 493 484 475 q 379 511 439 511 q 322 509 345 511 l 321 490 q 310 307 310 353 l 261 307 q 282 500 265 357 q 302 750 300 644 l 342 750 q 372 751 361 750 l 408 751 q 509 722 470 751 q 549 646 549 692 q 527 579 549 608 q 463 533 505 549 l 463 529 q 520 476 500 519 q 570 307 540 433 m 404 714 q 340 711 370 714 l 326 546 l 386 546 q 472 572 439 546 q 504 642 504 598 q 482 696 504 679 q 404 714 460 714 z "},"¯":{"ha":339,"x_min":65,"x_max":332,"o":"m 319 817 l 65 817 l 78 876 l 332 876 l 319 817 z "},"°":{"ha":371,"x_min":5,"x_max":379,"o":"m 5 847 q 63 982 5 928 q 210 1036 121 1036 q 332 987 284 1036 q 379 868 379 939 q 322 731 379 786 q 176 676 264 676 q 53 725 100 676 q 5 847 5 774 m 61 846 q 93 761 61 793 q 176 728 125 728 q 283 768 243 728 q 323 871 323 808 q 290 951 323 916 q 205 987 257 987 q 101 949 141 987 q 61 846 61 910 z "},"±":{"ha":700,"x_min":65,"x_max":642,"o":"m 636 454 l 399 454 l 375 227 l 317 227 l 342 454 l 107 454 l 114 514 l 349 514 l 372 742 l 429 742 l 407 514 l 642 514 l 636 454 m 591 37 l 65 37 l 68 90 l 599 90 l 591 37 z "},"²":{"ha":371,"x_min":29,"x_max":315,"o":"m 315 765 q 262 625 315 696 q 94 471 208 553 l 93 463 q 273 469 127 463 l 300 471 l 289 421 l 29 421 l 43 482 q 194 617 131 539 q 257 751 257 694 q 232 817 257 800 q 157 833 207 833 q 118 831 142 833 q 75 825 94 829 l 89 873 q 175 884 132 884 q 278 851 241 884 q 315 765 315 819 z "},"³":{"ha":371,"x_min":20,"x_max":326,"o":"m 326 791 q 300 724 326 749 q 229 682 274 699 l 229 673 q 299 642 275 666 q 323 581 323 618 q 244 439 323 495 q 24 374 164 382 l 20 410 q 198 462 128 422 q 268 566 268 502 q 226 638 268 620 q 89 657 184 657 l 100 697 q 231 719 180 697 q 281 777 281 741 q 257 818 281 803 q 178 833 233 833 q 81 822 128 833 l 92 871 q 205 884 134 884 q 296 859 266 884 q 326 791 326 834 z "},"´":{"ha":380,"x_min":96,"x_max":339,"o":"m 139 736 l 96 736 q 164 845 96 747 q 232 956 232 943 l 339 956 q 239 848 339 949 q 139 736 139 747 z "},"µ":{"ha":765,"x_min":111,"x_max":653,"o":"m 582 77 q 469 20 529 41 q 358 0 410 0 q 244 23 290 0 q 178 93 198 46 l 175 93 q 187 -309 175 -214 l 118 -322 q 125 249 125 7 q 111 644 125 498 l 184 648 l 182 537 q 181 453 182 531 q 180 338 180 376 q 221 119 180 185 q 366 53 262 53 q 490 72 441 53 q 578 126 539 92 q 575 328 578 208 l 574 396 q 561 643 572 552 l 639 650 q 632 375 632 502 q 653 -3 632 176 l 597 -5 q 586 45 590 20 q 582 77 582 71 z "},"¶":{"ha":929,"x_min":129,"x_max":692,"o":"m 566 -281 l 504 -281 q 577 355 543 45 q 628 892 610 666 q 568 894 602 894 q 528 893 538 894 q 453 273 509 785 q 397 -330 397 -239 l 397 -336 l 336 -336 l 406 296 l 414 376 l 397 376 q 129 635 129 376 q 213 869 129 782 q 443 957 297 957 q 563 955 502 957 l 614 954 q 685 953 644 954 l 692 953 q 625 379 669 805 q 566 -281 581 -47 z "},"·":{"ha":350,"x_min":86,"x_max":208,"o":"m 86 359 q 106 414 86 395 q 158 433 126 433 q 196 419 183 433 q 208 379 208 405 q 190 324 208 347 q 140 301 172 301 q 100 315 114 301 q 86 359 86 328 z "},"¸":{"ha":318,"x_min":62,"x_max":245,"o":"m 125 -66 q 217 -114 188 -87 q 245 -191 245 -141 q 81 -335 245 -335 l 82 -290 q 160 -268 130 -290 q 191 -201 191 -246 q 159 -128 191 -153 q 62 -92 128 -102 l 110 35 l 147 26 l 125 -66 z "},"¹":{"ha":371,"x_min":45,"x_max":292,"o":"m 283 799 q 264 633 274 718 q 245 437 254 549 l 244 421 l 187 421 q 203 551 191 446 l 211 619 q 220 714 216 661 q 225 803 224 768 q 58 708 164 772 l 45 745 l 245 876 l 292 876 l 283 799 z "},"º":{"ha":400,"x_min":43,"x_max":367,"o":"m 43 680 q 92 833 43 772 q 224 895 141 895 q 330 851 293 895 q 367 741 367 808 q 316 584 367 646 q 182 522 266 522 q 81 567 120 522 q 43 680 43 612 m 93 690 q 191 558 93 558 q 281 611 245 558 q 317 729 317 663 q 290 825 317 792 q 216 859 263 859 q 128 811 163 859 q 93 690 93 764 z "},"»":{"ha":631,"x_min":-3,"x_max":535,"o":"m 254 310 l 41 86 l -3 103 l 182 329 l 47 557 l 90 575 l 257 354 l 254 310 m 532 310 l 319 86 l 275 103 l 460 329 l 326 557 l 368 575 l 535 354 l 532 310 z "},"¼":{"ha":1051,"x_min":86,"x_max":951,"o":"m 324 799 q 306 633 315 718 q 287 437 296 549 l 286 421 l 229 421 q 245 551 232 446 l 252 619 q 261 714 258 661 q 267 803 265 768 q 100 708 205 772 l 86 745 l 287 876 l 333 876 l 324 799 m 804 -18 q 816 61 809 5 q 825 146 823 117 l 635 146 l 632 199 q 657 234 632 203 q 715 305 682 266 l 736 331 q 836 457 812 425 l 910 457 l 880 193 q 951 199 913 193 l 941 146 l 873 146 q 861 -18 867 81 l 804 -18 m 744 279 l 678 200 l 678 191 l 754 191 q 787 191 774 191 l 828 192 q 856 410 846 341 l 846 410 q 770 310 821 370 l 744 279 m 182 -29 l 124 -16 q 503 437 128 31 q 881 905 877 842 l 943 892 q 566 440 939 847 q 182 -29 193 34 z "},"½":{"ha":1051,"x_min":86,"x_max":951,"o":"m 324 799 q 306 633 315 718 q 287 437 296 549 l 286 421 l 229 421 q 245 551 232 446 l 252 619 q 261 714 258 661 q 267 803 265 768 q 100 708 205 772 l 86 745 l 287 876 l 333 876 l 324 799 m 182 -29 l 124 -16 q 503 437 128 31 q 881 905 877 842 l 943 892 q 566 440 939 847 q 182 -29 193 34 m 951 354 q 898 214 951 286 q 730 60 844 142 l 729 52 q 909 58 763 52 l 936 60 l 925 10 l 665 10 l 679 71 q 830 206 767 128 q 893 340 893 283 q 868 406 893 389 q 793 422 843 422 q 754 420 779 422 q 711 414 730 418 l 725 463 q 811 473 768 473 q 915 440 878 473 q 951 354 951 408 z "},"¾":{"ha":1051,"x_min":82,"x_max":951,"o":"m 804 -18 q 816 61 809 5 q 825 146 823 117 l 635 146 l 632 199 q 657 234 632 203 q 715 305 682 266 l 736 331 q 836 457 812 425 l 910 457 l 880 193 q 951 199 913 193 l 941 146 l 873 146 q 861 -18 867 81 l 804 -18 m 744 279 l 678 200 l 678 191 l 754 191 q 787 191 774 191 l 828 192 q 856 410 846 341 l 846 410 q 770 310 821 370 l 744 279 m 182 -29 l 124 -16 q 503 437 128 31 q 881 905 877 842 l 943 892 q 566 440 939 847 q 182 -29 193 34 m 389 791 q 362 724 389 749 q 292 682 336 699 l 292 673 q 361 642 337 666 q 386 581 386 618 q 306 439 386 495 q 86 374 227 382 l 82 410 q 260 462 191 422 q 330 566 330 502 q 289 638 330 620 q 151 657 247 657 l 162 697 q 293 719 243 697 q 343 777 343 741 q 319 818 343 803 q 240 833 296 833 q 143 822 191 833 l 154 871 q 268 884 196 884 q 358 859 328 884 q 389 791 389 834 z "},"¿":{"ha":490,"x_min":90,"x_max":437,"o":"m 412 597 q 392 543 412 562 q 340 524 372 524 q 303 538 316 524 q 290 578 290 553 q 309 633 290 610 q 358 656 327 656 q 398 642 385 656 q 412 597 412 629 m 290 187 l 314 290 l 339 290 l 349 146 q 202 78 251 126 q 154 -49 154 29 q 219 -161 154 -124 q 416 -199 285 -199 l 437 -199 l 415 -252 q 175 -204 259 -252 q 90 -61 90 -157 q 146 92 90 31 q 290 187 201 154 z "},"À":{"ha":844,"x_min":-18,"x_max":770,"o":"m 207 315 q 174 252 196 292 l 139 186 q 88 76 111 131 q 61 0 65 20 l -18 0 q 136 296 -12 16 q 350 721 283 576 q 421 884 418 865 l 509 884 q 639 435 509 846 q 770 0 770 25 l 694 0 q 610 315 694 16 l 207 315 m 460 825 q 405 706 458 817 q 235 368 352 595 l 599 368 q 465 825 465 797 l 460 825 m 336 1146 l 429 1146 q 439 1127 429 1143 l 480 1054 l 497 1025 q 528 968 526 975 q 530 960 530 961 l 485 960 q 412 1053 485 970 q 336 1146 339 1135 z "},"Á":{"ha":844,"x_min":-18,"x_max":770,"o":"m 207 315 q 174 252 196 292 l 139 186 q 88 76 111 131 q 61 0 65 20 l -18 0 q 136 296 -12 16 q 350 721 283 576 q 421 884 418 865 l 509 884 q 639 435 509 846 q 770 0 770 25 l 694 0 q 610 315 694 16 l 207 315 m 460 825 q 405 706 458 817 q 235 368 352 595 l 599 368 q 465 825 465 797 l 460 825 m 460 960 l 413 960 q 485 1054 413 970 q 557 1146 557 1138 l 660 1146 q 638 1121 660 1142 q 557 1054 616 1101 q 460 960 460 970 z "},"Â":{"ha":844,"x_min":-18,"x_max":770,"o":"m 207 315 q 174 252 196 292 l 139 186 q 88 76 111 131 q 61 0 65 20 l -18 0 q 136 296 -12 16 q 350 721 283 576 q 421 884 418 865 l 509 884 q 639 435 509 846 q 770 0 770 25 l 694 0 q 610 315 694 16 l 207 315 m 460 825 q 405 706 458 817 q 235 368 352 595 l 599 368 q 465 825 465 797 l 460 825 m 469 1095 q 360 1000 398 1036 q 322 960 322 963 l 281 960 q 352 1052 281 969 q 428 1146 424 1135 l 521 1146 q 576 1048 528 1127 q 624 960 624 968 l 583 960 q 557 997 583 964 q 469 1095 530 1029 z "},"Ã":{"ha":844,"x_min":-18,"x_max":770,"o":"m 207 315 q 174 252 196 292 l 139 186 q 88 76 111 131 q 61 0 65 20 l -18 0 q 136 296 -12 16 q 350 721 283 576 q 421 884 418 865 l 509 884 q 639 435 509 846 q 770 0 770 25 l 694 0 q 610 315 694 16 l 207 315 m 460 825 q 405 706 458 817 q 235 368 352 595 l 599 368 q 465 825 465 797 l 460 825 m 382 1047 q 324 1029 354 1047 q 264 977 294 1012 l 240 999 q 326 1081 283 1055 q 415 1107 370 1107 q 485 1092 437 1107 q 565 1076 532 1076 q 683 1147 615 1076 l 705 1128 q 622 1041 663 1069 q 537 1013 582 1013 q 466 1030 513 1013 q 382 1047 419 1047 z "},"Ä":{"ha":844,"x_min":-18,"x_max":770,"o":"m 207 315 q 174 252 196 292 l 139 186 q 88 76 111 131 q 61 0 65 20 l -18 0 q 136 296 -12 16 q 350 721 283 576 q 421 884 418 865 l 509 884 q 639 435 509 846 q 770 0 770 25 l 694 0 q 610 315 694 16 l 207 315 m 460 825 q 405 706 458 817 q 235 368 352 595 l 599 368 q 465 825 465 797 l 460 825 m 307 1039 q 361 1104 307 1104 q 406 1055 406 1104 q 392 1008 406 1025 q 351 991 378 991 q 317 1004 328 991 q 307 1039 307 1017 m 540 1039 q 594 1104 540 1104 q 639 1055 639 1104 q 625 1008 639 1025 q 585 991 612 991 q 551 1004 562 991 q 540 1039 540 1017 z "},"Å":{"ha":844,"x_min":-18,"x_max":770,"o":"m 207 315 q 174 252 196 292 l 139 186 q 88 76 111 131 q 61 0 65 20 l -18 0 q 136 296 -12 16 q 350 721 283 576 q 421 884 418 865 l 509 884 q 639 435 509 846 q 770 0 770 25 l 694 0 q 610 315 694 16 l 207 315 m 460 825 q 405 706 458 817 q 235 368 352 595 l 599 368 q 465 825 465 797 l 460 825 m 469 924 q 382 956 418 924 q 347 1046 347 989 q 387 1146 347 1107 q 490 1185 427 1185 q 574 1155 541 1185 q 608 1063 608 1125 q 564 960 608 996 q 469 924 519 924 m 397 1051 q 419 988 397 1008 q 473 968 441 968 q 536 994 512 968 q 561 1061 561 1019 q 539 1122 561 1103 q 484 1141 517 1141 q 422 1115 448 1141 q 397 1051 397 1089 z "},"Æ":{"ha":1086,"x_min":-18,"x_max":1043,"o":"m 615 538 l 610 490 q 925 498 823 490 l 917 433 q 782 438 869 436 q 604 440 695 440 l 594 335 q 570 53 574 148 q 1002 64 792 53 l 989 0 l 493 0 q 533 342 503 64 l 235 342 q 184 246 211 299 l 158 199 q 99 81 130 147 q 65 0 67 14 l -18 0 q 50 138 -13 20 q 221 446 113 256 q 390 750 329 635 q 452 884 452 865 l 1043 884 l 1032 821 q 650 828 862 828 l 615 538 m 490 828 q 422 690 490 816 q 256 389 353 564 l 539 389 l 547 465 q 582 828 570 670 l 490 828 z "},"Ç":{"ha":664,"x_min":56,"x_max":668,"o":"m 435 37 q 535 47 486 37 q 633 77 583 58 l 623 9 q 427 -18 508 -18 q 390 -17 401 -18 l 378 -66 q 470 -114 441 -87 q 498 -191 498 -141 q 457 -299 498 -262 q 334 -335 416 -335 l 335 -290 q 413 -268 383 -290 q 443 -201 443 -246 q 412 -128 443 -153 q 315 -92 381 -102 l 346 -11 q 132 118 208 14 q 56 385 56 222 q 193 749 56 602 q 534 896 331 896 q 668 876 609 896 l 644 812 q 584 829 614 823 q 526 835 553 835 q 236 707 350 835 q 122 393 122 580 q 205 132 122 227 q 435 37 288 37 z "},"È":{"ha":644,"x_min":64,"x_max":614,"o":"m 194 606 l 180 490 q 496 498 394 490 l 488 433 q 353 438 440 436 q 175 440 266 440 q 158 259 170 378 q 140 53 146 140 q 572 64 363 53 l 559 0 l 64 0 q 83 149 71 41 l 97 280 l 118 465 q 155 884 145 693 l 614 884 l 603 821 q 221 828 433 828 l 194 606 m 280 1146 l 374 1146 q 383 1127 374 1143 l 425 1054 l 441 1025 q 472 968 470 975 q 475 960 475 961 l 429 960 q 356 1053 429 970 q 280 1146 283 1135 z "},"É":{"ha":644,"x_min":64,"x_max":614,"o":"m 194 606 l 180 490 q 496 498 394 490 l 488 433 q 353 438 440 436 q 175 440 266 440 q 158 259 170 378 q 140 53 146 140 q 572 64 363 53 l 559 0 l 64 0 q 83 149 71 41 l 97 280 l 118 465 q 155 884 145 693 l 614 884 l 603 821 q 221 828 433 828 l 194 606 m 403 960 l 356 960 q 428 1054 356 970 q 500 1146 500 1138 l 603 1146 q 581 1121 603 1142 q 500 1054 559 1101 q 403 960 403 970 z "},"Ê":{"ha":644,"x_min":64,"x_max":614,"o":"m 194 606 l 180 490 q 496 498 394 490 l 488 433 q 353 438 440 436 q 175 440 266 440 q 158 259 170 378 q 140 53 146 140 q 572 64 363 53 l 559 0 l 64 0 q 83 149 71 41 l 97 280 l 118 465 q 155 884 145 693 l 614 884 l 603 821 q 221 828 433 828 l 194 606 m 404 1095 q 295 1000 333 1036 q 257 960 257 963 l 216 960 q 287 1052 216 969 q 363 1146 359 1135 l 456 1146 q 511 1048 463 1127 q 559 960 559 968 l 518 960 q 492 997 518 964 q 404 1095 465 1029 z "},"Ë":{"ha":644,"x_min":64,"x_max":614,"o":"m 194 606 l 180 490 q 496 498 394 490 l 488 433 q 353 438 440 436 q 175 440 266 440 q 158 259 170 378 q 140 53 146 140 q 572 64 363 53 l 559 0 l 64 0 q 83 149 71 41 l 97 280 l 118 465 q 155 884 145 693 l 614 884 l 603 821 q 221 828 433 828 l 194 606 m 243 1039 q 297 1104 243 1104 q 342 1055 342 1104 q 328 1008 342 1025 q 288 991 315 991 q 254 1004 264 991 q 243 1039 243 1017 m 476 1039 q 530 1104 476 1104 q 575 1055 575 1104 q 562 1008 575 1025 q 521 991 548 991 q 487 1004 498 991 q 476 1039 476 1017 z "},"Ì":{"ha":292,"x_min":62,"x_max":281,"o":"m 136 0 l 62 0 q 111 412 73 79 q 154 884 149 745 l 228 884 q 177 471 203 708 q 136 0 150 234 m 86 1146 l 180 1146 q 189 1127 180 1143 l 231 1054 l 248 1025 q 278 968 276 975 q 281 960 281 961 l 235 960 q 162 1053 235 970 q 86 1146 90 1135 z "},"Í":{"ha":292,"x_min":62,"x_max":408,"o":"m 136 0 l 62 0 q 111 412 73 79 q 154 884 149 745 l 228 884 q 177 471 203 708 q 136 0 150 234 m 208 960 l 161 960 q 234 1054 161 970 q 306 1146 306 1138 l 408 1146 q 386 1121 408 1142 q 306 1054 364 1101 q 208 960 208 970 z "},"Î":{"ha":292,"x_min":22,"x_max":366,"o":"m 136 0 l 62 0 q 111 412 73 79 q 154 884 149 745 l 228 884 q 177 471 203 708 q 136 0 150 234 m 211 1095 q 102 1000 140 1036 q 64 960 64 963 l 22 960 q 94 1052 22 969 q 170 1146 165 1135 l 262 1146 q 317 1048 269 1127 q 366 960 366 968 l 325 960 q 298 997 325 964 q 211 1095 272 1029 z "},"Ï":{"ha":292,"x_min":41,"x_max":374,"o":"m 136 0 l 62 0 q 111 412 73 79 q 154 884 149 745 l 228 884 q 177 471 203 708 q 136 0 150 234 m 41 1039 q 96 1104 41 1104 q 140 1055 140 1104 q 127 1008 140 1025 q 86 991 113 991 q 52 1004 63 991 q 41 1039 41 1017 m 275 1039 q 329 1104 275 1104 q 374 1055 374 1104 q 360 1008 374 1025 q 319 991 347 991 q 286 1004 296 991 q 275 1039 275 1017 z "},"Ð":{"ha":793,"x_min":-7,"x_max":739,"o":"m 271 -11 q 210 -8 248 -11 q 153 -5 171 -6 l 65 0 q 79 112 71 33 l 114 419 q -7 411 47 417 l 9 479 q 121 475 52 475 q 145 713 137 623 q 154 884 153 803 l 216 884 q 282 886 247 884 q 347 888 317 888 q 632 782 526 888 q 739 498 739 676 q 605 136 739 282 q 271 -11 470 -11 m 353 833 q 214 827 264 833 q 180 475 205 722 q 446 489 309 477 l 436 421 l 175 421 q 144 89 167 337 l 142 54 q 268 43 195 43 q 560 170 446 43 q 673 490 673 297 q 583 739 673 645 q 353 833 492 833 z "},"Ñ":{"ha":803,"x_min":54,"x_max":749,"o":"m 616 97 l 623 97 q 620 145 620 112 q 639 391 620 223 q 686 884 658 558 l 749 884 q 730 722 745 853 l 700 465 l 690 367 q 656 0 664 134 l 602 0 q 427 357 602 41 q 200 821 253 674 l 192 821 q 193 810 192 818 q 192 789 193 798 l 191 755 q 160 459 189 718 q 117 0 132 201 l 54 0 q 83 249 61 49 l 109 465 q 146 884 139 734 l 232 884 q 280 768 232 873 q 456 431 328 664 q 616 97 585 197 m 382 1047 q 324 1029 354 1047 q 264 977 294 1012 l 240 999 q 326 1081 283 1055 q 415 1107 370 1107 q 485 1092 437 1107 q 565 1076 532 1076 q 683 1147 615 1076 l 705 1128 q 622 1041 663 1069 q 537 1013 582 1013 q 466 1030 513 1013 q 382 1047 419 1047 z "},"Ò":{"ha":888,"x_min":56,"x_max":829,"o":"m 56 364 q 181 742 56 587 q 498 897 307 897 q 737 788 645 897 q 829 505 829 679 q 774 242 829 364 q 618 46 720 119 q 386 -28 517 -28 q 149 83 241 -28 q 56 364 56 195 m 121 364 q 197 120 121 213 q 401 28 273 28 q 662 171 559 28 q 764 505 764 314 q 687 752 764 662 q 476 843 610 843 q 221 699 321 843 q 121 364 121 554 m 350 1146 l 444 1146 q 453 1127 444 1143 l 494 1054 l 511 1025 q 542 968 540 975 q 545 960 545 961 l 499 960 q 426 1053 499 970 q 350 1146 353 1135 z "},"Ó":{"ha":888,"x_min":56,"x_max":829,"o":"m 56 364 q 181 742 56 587 q 498 897 307 897 q 737 788 645 897 q 829 505 829 679 q 774 242 829 364 q 618 46 720 119 q 386 -28 517 -28 q 149 83 241 -28 q 56 364 56 195 m 121 364 q 197 120 121 213 q 401 28 273 28 q 662 171 559 28 q 764 505 764 314 q 687 752 764 662 q 476 843 610 843 q 221 699 321 843 q 121 364 121 554 m 507 960 l 460 960 q 532 1054 460 970 q 604 1146 604 1138 l 707 1146 q 685 1121 707 1142 q 604 1054 663 1101 q 507 960 507 970 z "},"Ô":{"ha":888,"x_min":56,"x_max":829,"o":"m 56 364 q 181 742 56 587 q 498 897 307 897 q 737 788 645 897 q 829 505 829 679 q 774 242 829 364 q 618 46 720 119 q 386 -28 517 -28 q 149 83 241 -28 q 56 364 56 195 m 121 364 q 197 120 121 213 q 401 28 273 28 q 662 171 559 28 q 764 505 764 314 q 687 752 764 662 q 476 843 610 843 q 221 699 321 843 q 121 364 121 554 m 508 1095 q 399 1000 437 1036 q 361 960 361 963 l 319 960 q 391 1052 319 969 q 467 1146 463 1135 l 559 1146 q 614 1048 566 1127 q 663 960 663 968 l 622 960 q 595 997 622 964 q 508 1095 569 1029 z "},"Õ":{"ha":888,"x_min":56,"x_max":829,"o":"m 56 364 q 181 742 56 587 q 498 897 307 897 q 737 788 645 897 q 829 505 829 679 q 774 242 829 364 q 618 46 720 119 q 386 -28 517 -28 q 149 83 241 -28 q 56 364 56 195 m 121 364 q 197 120 121 213 q 401 28 273 28 q 662 171 559 28 q 764 505 764 314 q 687 752 764 662 q 476 843 610 843 q 221 699 321 843 q 121 364 121 554 m 424 1047 q 366 1029 396 1047 q 306 977 336 1012 l 282 999 q 368 1081 325 1055 q 457 1107 412 1107 q 527 1092 479 1107 q 607 1076 574 1076 q 725 1147 657 1076 l 747 1128 q 664 1041 705 1069 q 579 1013 624 1013 q 508 1030 555 1013 q 424 1047 461 1047 z "},"Ö":{"ha":888,"x_min":56,"x_max":829,"o":"m 56 364 q 181 742 56 587 q 498 897 307 897 q 737 788 645 897 q 829 505 829 679 q 774 242 829 364 q 618 46 720 119 q 386 -28 517 -28 q 149 83 241 -28 q 56 364 56 195 m 121 364 q 197 120 121 213 q 401 28 273 28 q 662 171 559 28 q 764 505 764 314 q 687 752 764 662 q 476 843 610 843 q 221 699 321 843 q 121 364 121 554 m 340 1039 q 394 1104 340 1104 q 439 1055 439 1104 q 425 1008 439 1025 q 385 991 412 991 q 351 1004 361 991 q 340 1039 340 1017 m 573 1039 q 627 1104 573 1104 q 672 1055 672 1104 q 659 1008 672 1025 q 618 991 645 991 q 584 1004 595 991 q 573 1039 573 1017 z "},"×":{"ha":700,"x_min":103,"x_max":603,"o":"m 507 131 l 350 301 l 142 121 l 103 161 l 309 345 l 151 517 l 197 555 l 358 383 l 564 567 l 603 525 l 399 342 l 557 171 l 507 131 z "},"Ø":{"ha":888,"x_min":-14,"x_max":897,"o":"m 770 743 q 814 634 799 694 q 829 505 829 574 q 774 242 829 364 q 618 46 720 119 q 386 -28 517 -28 q 250 3 312 -28 q 143 90 188 34 q 58 -6 81 24 q 33 -47 35 -36 l -14 -32 q 12 17 -14 -17 q 95 117 37 50 l 111 136 q 70 241 84 183 q 56 364 56 300 q 181 742 56 587 q 498 897 307 897 q 634 868 572 897 q 739 786 696 840 q 826 883 804 857 q 848 915 848 909 l 848 916 l 897 897 q 879 866 897 888 q 812 791 861 844 l 770 743 m 157 184 l 697 741 q 603 817 659 791 q 476 843 547 843 q 221 699 321 843 q 121 364 121 554 q 157 184 121 262 m 725 696 l 184 135 q 277 55 222 83 q 401 28 332 28 q 662 171 559 28 q 764 505 764 314 q 725 696 764 616 z "},"Ù":{"ha":860,"x_min":86,"x_max":811,"o":"m 366 -14 q 160 65 233 -14 q 86 304 86 144 q 96 451 86 365 q 134 884 106 538 l 207 884 q 171 590 189 751 q 153 310 153 429 q 184 145 153 205 q 259 62 215 85 q 380 39 304 39 q 602 148 525 39 q 699 437 679 257 l 703 476 q 723 688 715 603 q 737 884 730 772 l 811 884 q 757 440 781 667 q 636 99 734 212 q 366 -14 538 -14 m 336 1146 l 429 1146 q 439 1127 429 1143 l 480 1054 l 497 1025 q 528 968 526 975 q 530 960 530 961 l 485 960 q 412 1053 485 970 q 336 1146 339 1135 z "},"Ú":{"ha":860,"x_min":86,"x_max":811,"o":"m 366 -14 q 160 65 233 -14 q 86 304 86 144 q 96 451 86 365 q 134 884 106 538 l 207 884 q 171 590 189 751 q 153 310 153 429 q 184 145 153 205 q 259 62 215 85 q 380 39 304 39 q 602 148 525 39 q 699 437 679 257 l 703 476 q 723 688 715 603 q 737 884 730 772 l 811 884 q 757 440 781 667 q 636 99 734 212 q 366 -14 538 -14 m 468 960 l 421 960 q 493 1054 421 970 q 566 1146 566 1138 l 668 1146 q 646 1121 668 1142 q 566 1054 624 1101 q 468 960 468 970 z "},"Û":{"ha":860,"x_min":86,"x_max":811,"o":"m 366 -14 q 160 65 233 -14 q 86 304 86 144 q 96 451 86 365 q 134 884 106 538 l 207 884 q 171 590 189 751 q 153 310 153 429 q 184 145 153 205 q 259 62 215 85 q 380 39 304 39 q 602 148 525 39 q 699 437 679 257 l 703 476 q 723 688 715 603 q 737 884 730 772 l 811 884 q 757 440 781 667 q 636 99 734 212 q 366 -14 538 -14 m 485 1095 q 376 1000 414 1036 q 338 960 338 963 l 296 960 q 368 1052 296 969 q 444 1146 439 1135 l 536 1146 q 591 1048 543 1127 q 640 960 640 968 l 599 960 q 572 997 599 964 q 485 1095 546 1029 z "},"Ü":{"ha":860,"x_min":86,"x_max":811,"o":"m 366 -14 q 160 65 233 -14 q 86 304 86 144 q 96 451 86 365 q 134 884 106 538 l 207 884 q 171 590 189 751 q 153 310 153 429 q 184 145 153 205 q 259 62 215 85 q 380 39 304 39 q 602 148 525 39 q 699 437 679 257 l 703 476 q 723 688 715 603 q 737 884 730 772 l 811 884 q 757 440 781 667 q 636 99 734 212 q 366 -14 538 -14 m 304 1039 q 358 1104 304 1104 q 403 1055 403 1104 q 389 1008 403 1025 q 349 991 376 991 q 315 1004 326 991 q 304 1039 304 1017 m 537 1039 q 591 1104 537 1104 q 636 1055 636 1104 q 623 1008 636 1025 q 582 991 609 991 q 548 1004 559 991 q 537 1039 537 1017 z "},"Ý":{"ha":703,"x_min":58,"x_max":742,"o":"m 354 232 l 353 212 q 338 0 345 123 l 262 0 l 265 22 q 292 228 286 170 q 298 307 298 286 q 233 543 298 414 q 113 765 168 672 q 58 884 58 858 l 135 884 q 242 660 135 868 q 349 395 349 452 l 354 395 q 391 484 354 420 q 511 660 429 547 l 532 689 q 634 830 601 783 q 667 884 667 877 l 742 884 q 600 683 742 861 q 411 426 458 506 q 354 232 363 346 m 389 960 l 342 960 q 414 1054 342 970 q 486 1146 486 1138 l 589 1146 q 567 1121 589 1142 q 486 1054 545 1101 q 389 960 389 970 z "},"Þ":{"ha":693,"x_min":64,"x_max":652,"o":"m 249 210 l 183 210 q 153 211 170 210 q 138 0 142 98 l 64 0 q 113 414 75 77 q 155 884 150 751 l 229 884 l 205 707 l 207 711 q 299 717 240 715 q 386 720 358 720 q 578 662 504 720 q 652 507 652 604 q 547 286 652 363 q 249 210 442 210 m 347 667 q 268 665 296 667 q 200 657 240 664 l 178 465 l 157 264 q 254 262 172 262 q 507 323 425 262 q 589 489 589 383 q 533 624 589 582 q 347 667 477 667 z "},"ß":{"ha":734,"x_min":-22,"x_max":657,"o":"m 657 187 q 596 42 657 94 q 429 -11 536 -11 q 229 16 326 -11 l 245 77 q 333 51 291 59 q 435 43 375 43 q 556 76 515 43 q 597 170 597 109 q 525 291 597 241 q 419 380 452 340 q 386 485 386 420 q 399 550 386 522 q 428 596 412 578 q 478 648 444 614 l 541 713 q 582 764 568 740 q 596 819 596 789 q 558 893 596 865 q 453 921 521 921 q 291 834 356 921 q 216 578 227 747 l 191 126 q 160 -110 180 -36 q 109 -227 139 -183 q -4 -302 78 -270 l -22 -278 q 101 -92 77 -206 q 149 446 124 22 l 158 587 q 253 880 176 785 q 464 974 330 974 q 596 935 536 974 q 656 825 656 896 q 634 744 656 779 q 571 669 612 709 l 501 604 q 459 555 474 579 q 444 498 445 531 q 467 423 444 457 q 552 345 490 389 q 636 265 614 300 q 657 187 657 230 z "},"à":{"ha":639,"x_min":37,"x_max":570,"o":"m 495 122 q 503 1 495 54 l 439 -7 q 435 160 435 52 l 432 160 q 329 31 387 73 q 201 -12 270 -12 q 79 55 121 -12 q 37 221 37 122 q 162 520 37 397 q 490 644 287 644 l 497 644 l 528 667 l 570 676 q 514 383 533 506 q 496 179 496 260 l 495 122 m 98 233 q 127 86 98 133 q 216 40 156 40 q 348 115 276 40 q 450 337 419 189 q 485 591 481 484 q 193 480 288 589 q 98 233 98 371 m 237 956 l 338 956 q 369 880 338 947 q 415 778 400 813 q 431 736 431 743 l 386 736 q 360 780 386 743 q 313 846 334 817 q 264 913 292 876 q 237 956 237 951 z "},"á":{"ha":639,"x_min":37,"x_max":570,"o":"m 495 122 q 503 1 495 54 l 439 -7 q 435 160 435 52 l 432 160 q 329 31 387 73 q 201 -12 270 -12 q 79 55 121 -12 q 37 221 37 122 q 162 520 37 397 q 490 644 287 644 l 497 644 l 528 667 l 570 676 q 514 383 533 506 q 496 179 496 260 l 495 122 m 98 233 q 127 86 98 133 q 216 40 156 40 q 348 115 276 40 q 450 337 419 189 q 485 591 481 484 q 193 480 288 589 q 98 233 98 371 m 361 736 l 318 736 q 386 845 318 747 q 454 956 454 943 l 562 956 q 461 848 562 949 q 361 736 361 747 z "},"â":{"ha":639,"x_min":37,"x_max":570,"o":"m 495 122 q 503 1 495 54 l 439 -7 q 435 160 435 52 l 432 160 q 329 31 387 73 q 201 -12 270 -12 q 79 55 121 -12 q 37 221 37 122 q 162 520 37 397 q 490 644 287 644 l 497 644 l 528 667 l 570 676 q 514 383 533 506 q 496 179 496 260 l 495 122 m 98 233 q 127 86 98 133 q 216 40 156 40 q 348 115 276 40 q 450 337 419 189 q 485 591 481 484 q 193 480 288 589 q 98 233 98 371 m 372 900 q 224 736 228 748 l 186 736 l 186 736 q 256 844 186 749 l 309 920 q 334 956 332 951 l 425 956 q 483 835 437 925 q 529 736 529 745 l 488 736 q 372 900 488 747 z "},"ã":{"ha":639,"x_min":37,"x_max":600,"o":"m 495 122 q 503 1 495 54 l 439 -7 q 435 160 435 52 l 432 160 q 329 31 387 73 q 201 -12 270 -12 q 79 55 121 -12 q 37 221 37 122 q 162 520 37 397 q 490 644 287 644 l 497 644 l 528 667 l 570 676 q 514 383 533 506 q 496 179 496 260 l 495 122 m 98 233 q 127 86 98 133 q 216 40 156 40 q 348 115 276 40 q 450 337 419 189 q 485 591 481 484 q 193 480 288 589 q 98 233 98 371 m 335 815 q 311 820 330 815 q 277 825 291 825 q 159 732 224 825 l 138 745 q 220 852 180 819 q 304 886 260 886 q 392 872 352 886 q 463 857 431 857 q 581 920 519 857 l 600 904 q 518 818 558 844 q 432 793 479 793 q 375 804 412 793 q 335 815 338 815 z "},"ä":{"ha":639,"x_min":37,"x_max":570,"o":"m 495 122 q 503 1 495 54 l 439 -7 q 435 160 435 52 l 432 160 q 329 31 387 73 q 201 -12 270 -12 q 79 55 121 -12 q 37 221 37 122 q 162 520 37 397 q 490 644 287 644 l 497 644 l 528 667 l 570 676 q 514 383 533 506 q 496 179 496 260 l 495 122 m 98 233 q 127 86 98 133 q 216 40 156 40 q 348 115 276 40 q 450 337 419 189 q 485 591 481 484 q 193 480 288 589 q 98 233 98 371 m 221 835 q 275 900 221 900 q 319 851 319 900 q 265 787 319 787 q 221 835 221 787 m 454 835 q 509 900 454 900 q 553 851 553 900 q 498 787 553 787 q 454 835 454 787 z "},"å":{"ha":639,"x_min":37,"x_max":570,"o":"m 495 122 q 503 1 495 54 l 439 -7 q 435 160 435 52 l 432 160 q 329 31 387 73 q 201 -12 270 -12 q 79 55 121 -12 q 37 221 37 122 q 162 520 37 397 q 490 644 287 644 l 497 644 l 528 667 l 570 676 q 514 383 533 506 q 496 179 496 260 l 495 122 m 98 233 q 127 86 98 133 q 216 40 156 40 q 348 115 276 40 q 450 337 419 189 q 485 591 481 484 q 193 480 288 589 q 98 233 98 371 m 374 729 q 285 763 319 729 q 252 851 252 796 q 293 952 252 912 q 395 991 334 991 q 476 962 439 991 q 513 868 513 932 q 467 764 513 800 q 374 729 422 729 m 298 856 q 322 793 298 813 q 379 772 346 772 q 440 796 414 772 q 467 865 467 819 q 444 929 467 909 q 389 949 422 949 q 325 922 352 949 q 298 856 298 895 z "},"æ":{"ha":1029,"x_min":37,"x_max":982,"o":"m 507 325 q 555 98 507 161 q 729 36 602 36 q 822 54 774 36 q 928 109 871 72 l 916 45 q 713 -17 836 -17 q 546 35 608 -17 q 463 178 483 86 q 340 35 410 81 q 201 -12 270 -12 q 79 55 121 -12 q 37 221 37 122 q 162 520 37 397 q 490 644 287 644 l 497 644 l 528 667 l 570 676 q 545 554 555 617 q 655 642 591 611 q 798 673 720 673 q 928 632 874 673 q 982 526 982 591 q 858 376 982 419 q 507 325 733 332 m 920 532 q 883 596 920 570 q 793 623 846 623 q 614 551 694 623 q 517 374 534 479 q 817 415 714 377 q 920 532 920 452 m 485 591 q 193 480 288 589 q 98 233 98 371 q 127 86 98 133 q 216 40 156 40 q 348 115 276 40 q 450 337 419 189 q 485 591 481 484 z "},"ç":{"ha":585,"x_min":71,"x_max":550,"o":"m 329 36 q 421 52 378 36 q 522 107 465 67 l 510 39 q 322 -17 433 -17 q 286 -14 304 -17 l 273 -66 q 366 -114 336 -87 q 395 -191 395 -141 q 353 -299 395 -263 q 229 -335 311 -335 l 231 -290 q 309 -268 279 -290 q 339 -201 339 -246 q 308 -128 339 -153 q 211 -92 277 -102 l 243 -5 q 116 95 161 19 q 71 281 71 172 q 173 550 71 444 q 437 657 275 657 q 503 655 477 657 q 550 646 529 652 l 528 575 q 459 592 488 587 q 397 597 430 597 q 212 507 290 597 q 134 294 134 416 q 183 106 134 177 q 329 36 233 36 z "},"è":{"ha":656,"x_min":71,"x_max":608,"o":"m 71 277 q 171 559 71 445 q 424 673 271 673 q 556 633 505 673 q 608 526 608 593 q 489 378 608 423 q 134 325 370 332 q 185 102 134 168 q 355 36 237 36 q 554 109 444 36 l 542 45 q 339 -17 463 -17 q 142 63 214 -17 q 71 277 71 142 m 546 532 q 509 596 546 570 q 419 623 472 623 q 241 551 321 623 q 143 374 161 479 q 444 415 341 377 q 546 532 546 452 m 251 956 l 351 956 q 382 880 351 947 q 429 778 414 813 q 444 736 444 743 l 399 736 q 374 780 399 743 q 327 846 348 817 q 278 913 305 876 q 251 956 251 951 z "},"é":{"ha":656,"x_min":71,"x_max":608,"o":"m 71 277 q 171 559 71 445 q 424 673 271 673 q 556 633 505 673 q 608 526 608 593 q 489 378 608 423 q 134 325 370 332 q 185 102 134 168 q 355 36 237 36 q 554 109 444 36 l 542 45 q 339 -17 463 -17 q 142 63 214 -17 q 71 277 71 142 m 546 532 q 509 596 546 570 q 419 623 472 623 q 241 551 321 623 q 143 374 161 479 q 444 415 341 377 q 546 532 546 452 m 404 736 l 361 736 q 429 845 361 747 q 497 956 497 943 l 604 956 q 504 848 604 949 q 404 736 404 747 z "},"ê":{"ha":656,"x_min":71,"x_max":608,"o":"m 71 277 q 171 559 71 445 q 424 673 271 673 q 556 633 505 673 q 608 526 608 593 q 489 378 608 423 q 134 325 370 332 q 185 102 134 168 q 355 36 237 36 q 554 109 444 36 l 542 45 q 339 -17 463 -17 q 142 63 214 -17 q 71 277 71 142 m 546 532 q 509 596 546 570 q 419 623 472 623 q 241 551 321 623 q 143 374 161 479 q 444 415 341 377 q 546 532 546 452 m 407 900 q 258 736 262 748 l 221 736 l 221 736 q 290 844 221 749 l 344 920 q 368 956 366 951 l 460 956 q 517 835 471 925 q 564 736 564 745 l 522 736 q 407 900 522 747 z "},"ë":{"ha":656,"x_min":71,"x_max":608,"o":"m 71 277 q 171 559 71 445 q 424 673 271 673 q 556 633 505 673 q 608 526 608 593 q 489 378 608 423 q 134 325 370 332 q 185 102 134 168 q 355 36 237 36 q 554 109 444 36 l 542 45 q 339 -17 463 -17 q 142 63 214 -17 q 71 277 71 142 m 546 532 q 509 596 546 570 q 419 623 472 623 q 241 551 321 623 q 143 374 161 479 q 444 415 341 377 q 546 532 546 452 m 237 835 q 292 900 237 900 q 336 851 336 900 q 281 787 336 787 q 237 835 237 787 m 471 835 q 525 900 471 900 q 569 851 569 900 q 515 787 569 787 q 471 835 471 787 z "},"ì":{"ha":302,"x_min":62,"x_max":256,"o":"m 175 300 q 150 0 163 178 l 83 -7 q 105 181 92 47 l 118 300 q 132 467 125 355 q 138 640 138 578 l 210 656 q 184 387 204 581 l 175 300 m 62 956 l 163 956 q 194 880 163 947 q 240 778 225 813 q 256 736 256 743 l 211 736 q 185 780 211 743 q 138 846 159 817 q 90 913 117 876 q 62 956 62 951 z "},"í":{"ha":302,"x_min":83,"x_max":353,"o":"m 175 300 q 150 0 163 178 l 83 -7 q 105 181 92 47 l 118 300 q 132 467 125 355 q 138 640 138 578 l 210 656 q 184 387 204 581 l 175 300 m 153 736 l 109 736 q 177 845 109 747 q 245 956 245 943 l 353 956 q 253 848 353 949 q 153 736 153 747 z "},"î":{"ha":302,"x_min":20,"x_max":362,"o":"m 175 300 q 150 0 163 178 l 83 -7 q 105 181 92 47 l 118 300 q 132 467 125 355 q 138 640 138 578 l 210 656 q 184 387 204 581 l 175 300 m 205 900 q 57 736 61 748 l 20 736 l 20 736 q 89 844 20 749 l 142 920 q 167 956 165 951 l 258 956 q 316 835 270 925 q 362 736 362 745 l 321 736 q 205 900 321 747 z "},"ï":{"ha":302,"x_min":35,"x_max":340,"o":"m 35 835 q 89 900 35 900 q 122 887 111 900 q 134 851 134 875 q 120 804 134 821 q 79 787 106 787 q 45 800 56 787 q 35 835 35 813 m 241 835 q 296 900 241 900 q 329 887 318 900 q 340 851 340 875 q 327 804 340 821 q 286 787 313 787 q 252 800 263 787 q 241 835 241 813 m 175 300 q 150 0 163 178 l 83 -7 q 105 181 92 47 l 118 300 q 132 467 125 355 q 138 640 138 578 l 210 656 q 184 387 204 581 l 175 300 z "},"ð":{"ha":728,"x_min":71,"x_max":689,"o":"m 549 819 q 619 668 596 750 q 642 485 642 585 q 567 112 642 251 q 321 -26 492 -26 q 140 58 210 -26 q 71 268 71 143 q 163 527 71 419 q 395 635 256 635 q 488 623 444 635 q 575 585 531 610 l 576 585 q 551 685 574 631 q 493 789 529 739 q 444 759 492 787 q 370 708 397 731 l 332 764 q 391 793 345 768 q 444 821 438 817 l 463 829 q 366 921 421 878 l 406 964 q 518 861 465 922 q 584 901 538 873 q 656 945 630 928 l 689 884 l 549 819 m 585 521 q 494 565 543 550 q 385 581 446 581 q 209 488 282 581 q 135 272 135 395 q 188 92 135 158 q 334 25 241 25 q 519 156 454 25 q 585 521 585 286 z "},"ñ":{"ha":714,"x_min":79,"x_max":664,"o":"m 192 481 q 297 620 232 574 q 443 665 363 665 q 577 615 532 665 q 623 464 623 565 q 610 272 623 419 q 597 0 597 124 l 528 -7 q 545 175 528 14 q 562 454 562 336 q 532 576 562 539 q 425 612 501 612 q 251 497 330 612 q 162 219 172 382 q 147 0 152 56 l 79 -7 q 126 468 126 338 q 115 642 126 564 l 184 657 q 189 481 189 584 l 192 481 m 399 815 q 374 820 394 815 q 340 825 355 825 q 222 732 288 825 l 201 745 q 284 852 244 819 q 368 886 324 886 q 455 872 416 886 q 526 857 495 857 q 644 920 583 857 l 664 904 q 582 818 622 844 q 496 793 543 793 q 439 804 476 793 q 399 815 402 815 z "},"ò":{"ha":730,"x_min":71,"x_max":660,"o":"m 71 282 q 166 556 71 439 q 410 673 262 673 q 590 592 521 673 q 660 382 660 510 q 563 93 660 212 q 319 -26 467 -26 q 140 60 210 -26 q 71 282 71 147 m 134 288 q 186 98 134 169 q 330 26 238 26 q 519 126 441 26 q 597 366 597 227 q 546 554 597 487 q 396 621 495 621 q 208 523 283 621 q 134 288 134 425 m 267 956 l 367 956 q 398 880 367 947 q 445 778 429 813 q 460 736 460 743 l 415 736 q 389 780 415 743 q 342 846 363 817 q 294 913 321 876 q 267 956 267 951 z "},"ó":{"ha":730,"x_min":71,"x_max":660,"o":"m 71 282 q 166 556 71 439 q 410 673 262 673 q 590 592 521 673 q 660 382 660 510 q 563 93 660 212 q 319 -26 467 -26 q 140 60 210 -26 q 71 282 71 147 m 134 288 q 186 98 134 169 q 330 26 238 26 q 519 126 441 26 q 597 366 597 227 q 546 554 597 487 q 396 621 495 621 q 208 523 283 621 q 134 288 134 425 m 407 736 l 363 736 q 432 845 363 747 q 500 956 500 943 l 607 956 q 507 848 607 949 q 407 736 407 747 z "},"ô":{"ha":730,"x_min":71,"x_max":660,"o":"m 71 282 q 166 556 71 439 q 410 673 262 673 q 590 592 521 673 q 660 382 660 510 q 563 93 660 212 q 319 -26 467 -26 q 140 60 210 -26 q 71 282 71 147 m 134 288 q 186 98 134 169 q 330 26 238 26 q 519 126 441 26 q 597 366 597 227 q 546 554 597 487 q 396 621 495 621 q 208 523 283 621 q 134 288 134 425 m 435 900 q 286 736 290 748 l 249 736 l 249 736 q 318 844 249 749 l 372 920 q 396 956 394 951 l 488 956 q 545 835 499 925 q 591 736 591 745 l 550 736 q 435 900 550 747 z "},"õ":{"ha":730,"x_min":71,"x_max":664,"o":"m 71 282 q 166 556 71 439 q 410 673 262 673 q 590 592 521 673 q 660 382 660 510 q 563 93 660 212 q 319 -26 467 -26 q 140 60 210 -26 q 71 282 71 147 m 134 288 q 186 98 134 169 q 330 26 238 26 q 519 126 441 26 q 597 366 597 227 q 546 554 597 487 q 396 621 495 621 q 208 523 283 621 q 134 288 134 425 m 399 815 q 374 820 394 815 q 340 825 355 825 q 222 732 288 825 l 201 745 q 284 852 244 819 q 368 886 324 886 q 455 872 416 886 q 526 857 495 857 q 644 920 583 857 l 664 904 q 582 818 622 844 q 496 793 543 793 q 439 804 476 793 q 399 815 402 815 z "},"ö":{"ha":730,"x_min":71,"x_max":660,"o":"m 71 282 q 166 556 71 439 q 410 673 262 673 q 590 592 521 673 q 660 382 660 510 q 563 93 660 212 q 319 -26 467 -26 q 140 60 210 -26 q 71 282 71 147 m 134 288 q 186 98 134 169 q 330 26 238 26 q 519 126 441 26 q 597 366 597 227 q 546 554 597 487 q 396 621 495 621 q 208 523 283 621 q 134 288 134 425 m 258 835 q 313 900 258 900 q 357 851 357 900 q 302 787 357 787 q 258 835 258 787 m 492 835 q 546 900 492 900 q 590 851 590 900 q 536 787 590 787 q 492 835 492 787 z "},"÷":{"ha":700,"x_min":89,"x_max":611,"o":"m 376 497 q 330 545 330 497 q 348 592 330 570 q 396 614 365 614 q 436 567 436 614 q 419 518 436 539 q 376 497 403 497 m 604 311 l 89 311 l 96 370 l 611 370 l 604 311 m 322 61 q 287 72 298 61 q 277 110 277 83 q 294 157 277 136 q 339 179 311 179 q 380 134 380 179 q 361 79 380 96 q 322 61 342 61 z "},"ø":{"ha":730,"x_min":4,"x_max":717,"o":"m 621 547 q 660 382 660 473 q 563 93 660 212 q 319 -26 467 -26 q 221 -5 266 -26 q 143 57 176 17 q 90 -2 128 41 q 49 -52 51 -45 l 4 -35 q 37 13 6 -24 q 114 98 68 50 q 71 282 71 179 q 166 556 71 439 q 410 673 262 673 q 512 652 466 673 q 593 590 559 630 q 669 684 667 669 l 717 665 q 691 627 715 658 q 621 547 667 597 m 182 170 q 425 417 301 289 q 551 547 549 545 q 396 621 500 621 q 208 523 283 621 q 134 288 134 425 q 158 146 134 206 l 182 170 m 575 500 l 448 369 q 210 126 308 225 l 183 100 q 246 45 209 64 q 330 26 283 26 q 519 126 441 26 q 597 366 597 227 q 575 500 597 444 z "},"ù":{"ha":720,"x_min":93,"x_max":636,"o":"m 600 3 l 530 -9 q 528 170 528 32 l 526 170 q 420 30 481 77 q 272 -18 360 -18 q 93 183 93 -18 q 100 304 93 206 q 107 404 107 402 q 119 644 119 565 l 187 659 q 179 566 187 648 q 170 463 171 484 l 161 351 q 155 262 157 297 q 153 200 153 227 q 182 72 153 110 q 292 35 212 35 q 462 151 384 35 q 549 383 540 268 l 553 441 q 566 644 566 577 l 636 657 q 599 337 609 444 q 589 155 589 230 q 600 3 589 74 m 245 956 l 346 956 q 377 880 346 947 q 424 778 408 813 q 439 736 439 743 l 394 736 q 368 780 394 743 q 321 846 342 817 q 273 913 300 876 q 245 956 245 951 z "},"ú":{"ha":720,"x_min":93,"x_max":636,"o":"m 600 3 l 530 -9 q 528 170 528 32 l 526 170 q 420 30 481 77 q 272 -18 360 -18 q 93 183 93 -18 q 100 304 93 206 q 107 404 107 402 q 119 644 119 565 l 187 659 q 179 566 187 648 q 170 463 171 484 l 161 351 q 155 262 157 297 q 153 200 153 227 q 182 72 153 110 q 292 35 212 35 q 462 151 384 35 q 549 383 540 268 l 553 441 q 566 644 566 577 l 636 657 q 599 337 609 444 q 589 155 589 230 q 600 3 589 74 m 371 736 l 328 736 q 396 845 328 747 q 464 956 464 943 l 571 956 q 471 848 571 949 q 371 736 371 747 z "},"û":{"ha":720,"x_min":93,"x_max":636,"o":"m 600 3 l 530 -9 q 528 170 528 32 l 526 170 q 420 30 481 77 q 272 -18 360 -18 q 93 183 93 -18 q 100 304 93 206 q 107 404 107 402 q 119 644 119 565 l 187 659 q 179 566 187 648 q 170 463 171 484 l 161 351 q 155 262 157 297 q 153 200 153 227 q 182 72 153 110 q 292 35 212 35 q 462 151 384 35 q 549 383 540 268 l 553 441 q 566 644 566 577 l 636 657 q 599 337 609 444 q 589 155 589 230 q 600 3 589 74 m 386 900 q 237 736 241 748 l 200 736 l 200 736 q 269 844 200 749 l 323 920 q 347 956 345 951 l 439 956 q 496 835 450 925 q 543 736 543 745 l 501 736 q 386 900 501 747 z "},"ü":{"ha":720,"x_min":93,"x_max":636,"o":"m 600 3 l 530 -9 q 528 170 528 32 l 526 170 q 420 30 481 77 q 272 -18 360 -18 q 93 183 93 -18 q 100 304 93 206 q 107 404 107 402 q 119 644 119 565 l 187 659 q 179 566 187 648 q 170 463 171 484 l 161 351 q 155 262 157 297 q 153 200 153 227 q 182 72 153 110 q 292 35 212 35 q 462 151 384 35 q 549 383 540 268 l 553 441 q 566 644 566 577 l 636 657 q 599 337 609 444 q 589 155 589 230 q 600 3 589 74 m 227 835 q 281 900 227 900 q 325 851 325 900 q 271 787 325 787 q 227 835 227 787 m 460 835 q 514 900 460 900 q 558 851 558 900 q 504 787 558 787 q 460 835 460 787 z "},"ý":{"ha":610,"x_min":7,"x_max":603,"o":"m 7 -300 l 7 -245 q 143 -201 84 -245 q 227 -100 201 -157 q 252 12 252 -43 q 162 342 252 104 q 72 644 72 581 l 142 652 q 155 575 142 623 q 209 399 168 527 l 224 353 q 277 174 262 231 q 292 93 292 117 l 298 93 q 309 115 302 100 l 319 139 q 451 422 371 260 q 530 647 530 583 l 603 652 q 467 331 603 571 q 299 -39 332 90 q 196 -234 267 -168 q 7 -300 126 -300 m 347 736 l 304 736 q 372 845 304 747 q 440 956 440 943 l 547 956 q 447 848 547 949 q 347 736 347 747 z "},"þ":{"ha":742,"x_min":56,"x_max":677,"o":"m 243 958 q 212 643 243 926 l 195 481 l 199 481 q 450 665 296 665 q 616 595 555 665 q 677 404 677 524 q 583 98 677 214 q 323 -17 488 -17 q 228 -4 277 -17 q 153 28 178 9 l 150 28 q 147 4 149 12 l 133 -139 q 118 -300 123 -241 l 56 -310 q 116 291 96 62 l 130 438 q 176 954 174 884 l 243 958 m 615 395 q 575 560 615 509 q 443 611 536 611 q 261 498 342 611 q 171 261 180 385 l 157 78 q 236 45 195 56 q 313 33 278 33 q 538 127 461 33 q 615 395 615 221 z "},"ÿ":{"ha":610,"x_min":7,"x_max":603,"o":"m 7 -300 l 7 -245 q 143 -201 84 -245 q 227 -100 201 -157 q 252 12 252 -43 q 162 342 252 104 q 72 644 72 581 l 142 652 q 155 575 142 623 q 209 399 168 527 l 224 353 q 277 174 262 231 q 292 93 292 117 l 298 93 q 309 115 302 100 l 319 139 q 451 422 371 260 q 530 647 530 583 l 603 652 q 467 331 603 571 q 299 -39 332 90 q 196 -234 267 -168 q 7 -300 126 -300 m 193 835 q 248 900 193 900 q 292 851 292 900 q 237 787 292 787 q 193 835 193 787 m 427 835 q 481 900 427 900 q 525 851 525 900 q 471 787 525 787 q 427 835 427 787 z "},"Ā":{"ha":844,"x_min":-18,"x_max":770,"o":"m 207 315 q 174 252 196 292 l 139 186 q 88 76 111 131 q 61 0 65 20 l -18 0 q 136 296 -12 16 q 350 721 283 576 q 421 884 418 865 l 509 884 q 639 435 509 846 q 770 0 770 25 l 694 0 q 610 315 694 16 l 207 315 m 460 825 q 405 706 458 817 q 235 368 352 595 l 599 368 q 465 825 465 797 l 460 825 m 612 1017 l 325 1017 l 340 1072 l 631 1072 l 612 1017 z "},"ā":{"ha":639,"x_min":37,"x_max":570,"o":"m 495 122 q 503 1 495 54 l 439 -7 q 435 160 435 52 l 432 160 q 329 31 387 73 q 201 -12 270 -12 q 79 55 121 -12 q 37 221 37 122 q 162 520 37 397 q 490 644 287 644 l 497 644 l 528 667 l 570 676 q 514 383 533 506 q 496 179 496 260 l 495 122 m 98 233 q 127 86 98 133 q 216 40 156 40 q 348 115 276 40 q 450 337 419 189 q 485 591 481 484 q 193 480 288 589 q 98 233 98 371 m 524 817 l 269 817 l 282 876 l 536 876 l 524 817 z "},"Ă":{"ha":844,"x_min":-18,"x_max":770,"o":"m 207 315 q 174 252 196 292 l 139 186 q 88 76 111 131 q 61 0 65 20 l -18 0 q 136 296 -12 16 q 350 721 283 576 q 421 884 418 865 l 509 884 q 639 435 509 846 q 770 0 770 25 l 694 0 q 610 315 694 16 l 207 315 m 460 825 q 405 706 458 817 q 235 368 352 595 l 599 368 q 465 825 465 797 l 460 825 m 318 1118 l 362 1146 q 407 1075 379 1098 q 477 1051 435 1051 q 551 1075 516 1051 q 618 1146 585 1098 l 656 1118 q 575 1020 620 1053 q 475 987 530 987 q 376 1021 415 987 q 318 1118 336 1054 z "},"ă":{"ha":639,"x_min":37,"x_max":583,"o":"m 495 122 q 503 1 495 54 l 439 -7 q 435 160 435 52 l 432 160 q 329 31 387 73 q 201 -12 270 -12 q 79 55 121 -12 q 37 221 37 122 q 162 520 37 397 q 490 644 287 644 l 497 644 l 528 667 l 570 676 q 514 383 533 506 q 496 179 496 260 l 495 122 m 98 233 q 127 86 98 133 q 216 40 156 40 q 348 115 276 40 q 450 337 419 189 q 485 591 481 484 q 193 480 288 589 q 98 233 98 371 m 246 876 l 283 913 q 329 841 298 864 q 406 818 359 818 q 488 841 450 818 q 557 913 526 864 l 583 876 q 503 785 549 816 q 400 754 456 754 q 246 876 284 754 z "},"Ą":{"ha":844,"x_min":-18,"x_max":770,"o":"m 721 -315 q 633 -329 680 -329 q 566 -296 595 -329 q 538 -205 538 -262 q 582 -92 538 -148 q 694 0 626 -36 q 610 315 694 16 l 207 315 q 174 252 196 292 l 139 186 q 88 76 111 131 q 61 0 65 20 l -18 0 q 136 296 -12 16 q 350 721 283 576 q 421 884 418 865 l 509 884 q 639 435 509 846 q 770 0 770 25 q 591 -203 591 -109 q 609 -255 591 -234 q 653 -277 627 -277 q 685 -274 671 -277 q 714 -262 699 -272 l 721 -315 m 599 368 q 465 825 465 797 l 460 825 q 405 706 458 817 q 235 368 352 595 l 599 368 z "},"ą":{"ha":639,"x_min":37,"x_max":570,"o":"m 330 -201 q 383 -277 330 -277 q 416 -274 402 -277 q 444 -262 430 -272 l 452 -315 q 364 -329 410 -329 q 297 -295 326 -329 q 268 -205 268 -262 q 314 -94 268 -142 q 439 -5 361 -47 q 435 160 435 53 l 432 160 q 329 31 387 73 q 201 -12 270 -12 q 79 55 121 -12 q 37 221 37 122 q 162 520 37 397 q 490 644 287 644 l 497 644 l 528 667 l 570 676 q 514 383 533 506 q 496 179 496 260 l 495 122 q 503 1 495 54 q 413 -67 496 -5 q 330 -201 330 -130 m 485 591 q 193 480 288 589 q 98 233 98 371 q 127 86 98 133 q 216 40 156 40 q 348 115 276 40 q 450 337 419 189 q 485 591 481 484 z "},"Ć":{"ha":664,"x_min":56,"x_max":700,"o":"m 122 393 q 205 132 122 227 q 435 37 288 37 q 535 47 486 37 q 633 77 583 58 l 623 9 q 427 -18 508 -18 q 155 90 254 -18 q 56 385 56 198 q 193 749 56 602 q 534 896 331 896 q 668 876 609 896 l 644 812 q 584 829 614 823 q 526 835 553 835 q 236 707 350 835 q 122 393 122 580 m 500 960 l 453 960 q 525 1054 453 970 q 597 1146 597 1138 l 700 1146 q 678 1121 700 1142 q 597 1054 656 1101 q 500 960 500 970 z "},"ć":{"ha":585,"x_min":71,"x_max":597,"o":"m 134 294 q 183 106 134 177 q 329 36 233 36 q 421 52 378 36 q 522 107 465 67 l 510 39 q 322 -17 433 -17 q 138 64 205 -17 q 71 281 71 145 q 173 550 71 444 q 437 657 275 657 q 503 655 477 657 q 550 646 529 652 l 528 575 q 459 592 488 587 q 397 597 430 597 q 212 507 290 597 q 134 294 134 416 m 397 736 l 354 736 q 422 845 354 747 q 490 956 490 943 l 597 956 q 497 848 597 949 q 397 736 397 747 z "},"Ċ":{"ha":664,"x_min":56,"x_max":668,"o":"m 122 393 q 205 132 122 227 q 435 37 288 37 q 535 47 486 37 q 633 77 583 58 l 623 9 q 427 -18 508 -18 q 155 90 254 -18 q 56 385 56 198 q 193 749 56 602 q 534 896 331 896 q 668 876 609 896 l 644 812 q 584 829 614 823 q 526 835 553 835 q 236 707 350 835 q 122 393 122 580 m 484 1057 q 538 1122 484 1122 q 572 1110 561 1122 q 583 1074 583 1097 q 570 1026 583 1043 q 529 1010 556 1010 q 495 1023 506 1010 q 484 1057 484 1036 z "},"ċ":{"ha":585,"x_min":71,"x_max":550,"o":"m 134 294 q 183 106 134 177 q 329 36 233 36 q 421 52 378 36 q 522 107 465 67 l 510 39 q 322 -17 433 -17 q 138 64 205 -17 q 71 281 71 145 q 173 550 71 444 q 437 657 275 657 q 503 655 477 657 q 550 646 529 652 l 528 575 q 459 592 488 587 q 397 597 430 597 q 212 507 290 597 q 134 294 134 416 m 370 835 q 424 900 370 900 q 457 887 446 900 q 469 851 469 875 q 455 804 469 821 q 414 787 441 787 q 380 800 391 787 q 370 835 370 813 z "},"Č":{"ha":664,"x_min":56,"x_max":705,"o":"m 122 393 q 205 132 122 227 q 435 37 288 37 q 535 47 486 37 q 633 77 583 58 l 623 9 q 427 -18 508 -18 q 155 90 254 -18 q 56 385 56 198 q 193 749 56 602 q 534 896 331 896 q 668 876 609 896 l 644 812 q 584 829 614 823 q 526 835 553 835 q 236 707 350 835 q 122 393 122 580 m 558 960 l 464 960 q 413 1050 463 968 q 363 1146 363 1131 l 401 1146 q 517 1010 401 1137 q 665 1146 665 1136 l 705 1146 l 705 1145 q 634 1054 705 1137 q 558 960 562 972 z "},"č":{"ha":585,"x_min":71,"x_max":581,"o":"m 134 294 q 183 106 134 177 q 329 36 233 36 q 421 52 378 36 q 522 107 465 67 l 510 39 q 322 -17 433 -17 q 138 64 205 -17 q 71 281 71 145 q 173 550 71 444 q 437 657 275 657 q 503 655 477 657 q 550 646 529 652 l 528 575 q 459 592 488 587 q 397 597 430 597 q 212 507 290 597 q 134 294 134 416 m 433 736 l 341 736 q 313 793 340 740 l 286 847 l 267 890 q 237 956 237 951 l 279 956 q 393 794 279 947 q 500 906 460 862 q 543 956 540 950 l 581 956 l 581 955 q 509 846 581 945 q 433 736 437 747 z "},"Ď":{"ha":793,"x_min":65,"x_max":739,"o":"m 347 888 q 632 782 526 888 q 739 498 739 676 q 605 136 739 282 q 271 -11 470 -11 q 210 -8 248 -11 q 153 -5 171 -6 l 65 0 q 86 166 73 42 q 125 517 98 290 q 154 884 153 744 l 216 884 q 282 886 247 884 q 347 888 317 888 m 144 81 l 142 54 q 268 43 195 43 q 560 170 446 43 q 673 490 673 297 q 583 739 673 645 q 353 833 492 833 q 214 827 264 833 q 183 503 209 764 q 144 81 158 241 m 504 960 l 410 960 q 358 1050 408 968 q 309 1146 309 1131 l 347 1146 q 463 1010 347 1137 q 611 1146 611 1136 l 651 1146 l 651 1145 q 579 1054 651 1137 q 504 960 508 972 z "},"ď":{"ha":885,"x_min":66,"x_max":905,"o":"m 631 484 q 606 256 612 332 q 601 142 601 180 q 612 0 601 79 l 557 -9 q 548 56 549 16 q 546 176 546 97 l 545 178 q 434 35 500 83 q 286 -12 368 -12 q 128 64 189 -12 q 66 254 66 140 q 158 556 66 444 q 415 668 250 668 q 509 656 464 668 q 586 624 555 644 l 589 624 q 602 764 597 686 q 614 956 608 842 l 682 958 q 655 720 673 884 q 633 507 637 557 l 631 484 m 129 277 q 306 40 129 40 q 475 149 399 40 q 564 389 551 257 l 583 568 q 504 602 551 589 q 415 615 457 615 q 205 525 281 615 q 129 277 129 434 m 855 761 q 795 778 820 761 q 770 827 770 795 q 790 884 770 865 q 842 903 810 903 q 889 879 873 903 q 905 817 905 856 q 866 700 905 759 q 779 614 826 641 l 768 633 q 824 706 796 664 q 855 761 852 749 z "},"Đ":{"ha":793,"x_min":-7,"x_max":739,"o":"m 271 -11 q 210 -8 248 -11 q 153 -5 171 -6 l 65 0 q 79 112 71 33 l 114 419 q -7 411 47 417 l 9 479 q 121 475 52 475 q 145 713 137 623 q 154 884 153 803 l 216 884 q 282 886 247 884 q 347 888 317 888 q 632 782 526 888 q 739 498 739 676 q 605 136 739 282 q 271 -11 470 -11 m 353 833 q 214 827 264 833 q 180 475 205 722 q 446 489 309 477 l 436 421 l 175 421 q 144 89 167 337 l 142 54 q 268 43 195 43 q 560 170 446 43 q 673 490 673 297 q 583 739 673 645 q 353 833 492 833 z "},"đ":{"ha":742,"x_min":66,"x_max":798,"o":"m 790 747 l 659 747 q 633 507 638 566 l 631 484 q 606 256 612 332 q 601 142 601 180 q 612 0 601 79 l 557 -9 q 548 56 549 16 q 546 176 546 97 l 545 178 q 434 35 500 83 q 286 -12 368 -12 q 128 64 189 -12 q 66 254 66 140 q 158 556 66 444 q 415 668 250 668 q 509 656 464 668 q 586 624 555 644 l 589 624 l 602 747 l 436 747 l 447 796 l 604 796 q 614 956 609 851 l 682 958 l 664 796 l 798 796 l 790 747 m 583 568 q 504 602 551 589 q 415 615 457 615 q 205 525 281 615 q 129 277 129 434 q 306 40 129 40 q 475 149 399 40 q 564 389 551 257 l 583 568 z "},"Ē":{"ha":644,"x_min":64,"x_max":614,"o":"m 194 606 l 180 490 q 496 498 394 490 l 488 433 q 353 438 440 436 q 175 440 266 440 q 158 259 170 378 q 140 53 146 140 q 572 64 363 53 l 559 0 l 64 0 q 83 149 71 41 l 97 280 l 118 465 q 155 884 145 693 l 614 884 l 603 821 q 221 828 433 828 l 194 606 m 546 1017 l 258 1017 l 274 1072 l 564 1072 l 546 1017 z "},"ē":{"ha":656,"x_min":71,"x_max":608,"o":"m 71 277 q 171 559 71 445 q 424 673 271 673 q 556 633 505 673 q 608 526 608 593 q 489 378 608 423 q 134 325 370 332 q 185 102 134 168 q 355 36 237 36 q 554 109 444 36 l 542 45 q 339 -17 463 -17 q 142 63 214 -17 q 71 277 71 142 m 546 532 q 509 596 546 570 q 419 623 472 623 q 241 551 321 623 q 143 374 161 479 q 444 415 341 377 q 546 532 546 452 m 528 817 l 273 817 l 286 876 l 540 876 l 528 817 z "},"Ė":{"ha":644,"x_min":64,"x_max":614,"o":"m 194 606 l 180 490 q 496 498 394 490 l 488 433 q 353 438 440 436 q 175 440 266 440 q 158 259 170 378 q 140 53 146 140 q 572 64 363 53 l 559 0 l 64 0 q 83 149 71 41 l 97 280 l 118 465 q 155 884 145 693 l 614 884 l 603 821 q 221 828 433 828 l 194 606 m 358 1057 q 412 1122 358 1122 q 446 1110 435 1122 q 457 1074 457 1097 q 444 1026 457 1043 q 403 1010 430 1010 q 369 1023 380 1010 q 358 1057 358 1036 z "},"ė":{"ha":656,"x_min":71,"x_max":608,"o":"m 71 277 q 171 559 71 445 q 424 673 271 673 q 556 633 505 673 q 608 526 608 593 q 489 378 608 423 q 134 325 370 332 q 185 102 134 168 q 355 36 237 36 q 554 109 444 36 l 542 45 q 339 -17 463 -17 q 142 63 214 -17 q 71 277 71 142 m 546 532 q 509 596 546 570 q 419 623 472 623 q 241 551 321 623 q 143 374 161 479 q 444 415 341 377 q 546 532 546 452 m 361 835 q 415 900 361 900 q 449 887 437 900 q 460 851 460 875 q 446 804 460 821 q 406 787 433 787 q 372 800 382 787 q 361 835 361 813 z "},"Ę":{"ha":644,"x_min":64,"x_max":614,"o":"m 194 606 l 180 490 q 496 498 394 490 l 488 433 q 353 438 440 436 q 175 440 266 440 q 158 259 170 378 q 140 53 146 140 q 572 64 363 53 l 559 0 l 531 -28 q 442 -122 473 -82 q 411 -203 411 -163 q 429 -255 411 -233 q 472 -277 447 -277 q 505 -274 491 -277 q 533 -262 519 -272 l 541 -315 q 453 -329 499 -329 q 386 -295 414 -329 q 357 -205 357 -262 q 386 -125 357 -167 q 517 -5 414 -83 l 517 0 l 64 0 q 83 149 71 41 l 97 280 l 118 465 q 155 884 145 693 l 614 884 l 603 821 q 221 828 433 828 l 194 606 z "},"ę":{"ha":656,"x_min":71,"x_max":608,"o":"m 134 325 q 185 102 134 168 q 355 36 237 36 q 554 109 444 36 l 542 45 q 499 17 524 31 q 434 -44 475 4 q 382 -129 393 -92 q 371 -203 371 -165 q 389 -255 371 -233 q 432 -277 407 -277 q 465 -274 451 -277 q 493 -262 478 -272 l 500 -315 q 412 -329 458 -329 q 346 -296 374 -329 q 317 -205 317 -262 q 342 -102 317 -151 q 419 -17 368 -52 l 419 -9 q 339 -17 374 -17 q 142 63 214 -17 q 71 277 71 142 q 171 559 71 445 q 424 673 271 673 q 556 633 505 673 q 608 526 608 593 q 489 378 608 423 q 134 325 370 332 m 546 532 q 509 596 546 570 q 419 623 472 623 q 241 551 321 623 q 143 374 161 479 q 444 415 341 377 q 546 532 546 452 z "},"Ě":{"ha":644,"x_min":64,"x_max":614,"o":"m 194 606 l 180 490 q 496 498 394 490 l 488 433 q 353 438 440 436 q 175 440 266 440 q 158 259 170 378 q 140 53 146 140 q 572 64 363 53 l 559 0 l 64 0 q 83 149 71 41 l 97 280 l 118 465 q 155 884 145 693 l 614 884 l 603 821 q 221 828 433 828 l 194 606 m 465 960 l 371 960 q 320 1050 370 968 q 270 1146 270 1131 l 309 1146 q 424 1010 309 1137 q 572 1146 572 1136 l 612 1146 l 612 1145 q 541 1054 612 1137 q 465 960 469 972 z "},"ě":{"ha":656,"x_min":71,"x_max":608,"o":"m 71 277 q 171 559 71 445 q 424 673 271 673 q 556 633 505 673 q 608 526 608 593 q 489 378 608 423 q 134 325 370 332 q 185 102 134 168 q 355 36 237 36 q 554 109 444 36 l 542 45 q 339 -17 463 -17 q 142 63 214 -17 q 71 277 71 142 m 546 532 q 509 596 546 570 q 419 623 472 623 q 241 551 321 623 q 143 374 161 479 q 444 415 341 377 q 546 532 546 452 m 432 736 l 340 736 q 312 793 338 740 l 285 847 l 265 890 q 236 956 236 951 l 277 956 q 391 794 277 947 q 498 906 458 862 q 541 956 538 950 l 579 956 l 579 955 q 507 846 579 945 q 432 736 435 747 z "},"Ğ":{"ha":781,"x_min":56,"x_max":708,"o":"m 122 404 q 206 134 122 229 q 443 39 290 39 q 511 42 485 39 q 578 53 538 45 l 599 57 l 602 98 q 614 239 609 193 q 623 340 619 286 l 627 375 l 697 375 l 691 329 q 669 153 677 240 q 659 20 661 65 q 562 -8 613 1 q 440 -18 511 -18 q 155 90 255 -18 q 56 390 56 198 q 196 750 56 604 q 549 896 337 896 q 631 889 587 896 q 708 872 675 883 l 688 808 q 519 835 597 835 q 237 708 353 835 q 122 404 122 582 m 359 1118 l 403 1146 q 448 1075 420 1098 q 518 1051 476 1051 q 591 1075 557 1051 q 659 1146 626 1098 l 697 1118 q 616 1020 661 1053 q 515 987 571 987 q 416 1021 456 987 q 359 1118 377 1054 z "},"ğ":{"ha":686,"x_min":-17,"x_max":699,"o":"m 538 591 q 563 538 554 564 q 571 486 571 513 q 495 297 571 369 q 297 225 419 225 q 238 231 266 225 q 193 245 211 237 q 153 204 170 230 q 135 150 135 179 q 196 92 135 104 q 401 79 256 79 q 545 44 490 79 q 600 -56 600 9 q 496 -268 600 -186 q 244 -350 392 -350 q 64 -306 144 -350 q -17 -134 -17 -262 q 18 -16 -17 -66 q 117 64 53 35 l 115 65 q 84 97 95 77 q 74 135 74 118 q 150 267 74 191 l 151 269 q 102 326 124 286 q 81 411 81 367 q 153 598 81 530 q 349 665 226 665 q 441 655 403 665 q 510 623 479 644 l 513 623 q 564 705 532 682 q 633 728 597 728 q 673 727 659 728 q 699 722 687 726 l 684 669 q 538 597 564 669 l 538 591 m 140 422 q 179 312 140 347 q 298 277 218 277 q 455 329 399 277 q 511 465 511 380 q 475 581 511 545 q 334 618 439 618 q 192 564 244 618 q 140 422 140 510 m 248 -298 q 456 -233 372 -298 q 541 -78 541 -168 q 495 4 541 -14 q 288 22 449 22 q 151 32 220 22 q 40 -123 40 -30 q 89 -255 40 -211 q 248 -298 138 -298 m 228 876 l 265 913 q 310 841 279 864 q 388 818 341 818 q 470 841 432 818 q 539 913 507 864 l 564 876 q 484 785 530 816 q 382 754 438 754 q 228 876 266 754 z "},"Ġ":{"ha":781,"x_min":56,"x_max":708,"o":"m 122 404 q 206 134 122 229 q 443 39 290 39 q 511 42 485 39 q 578 53 538 45 l 599 57 l 602 98 q 614 239 609 193 q 623 340 619 286 l 627 375 l 697 375 l 691 329 q 669 153 677 240 q 659 20 661 65 q 562 -8 613 1 q 440 -18 511 -18 q 155 90 255 -18 q 56 390 56 198 q 196 750 56 604 q 549 896 337 896 q 631 889 587 896 q 708 872 675 883 l 688 808 q 519 835 597 835 q 237 708 353 835 q 122 404 122 582 m 484 1057 q 538 1122 484 1122 q 572 1110 561 1122 q 583 1074 583 1097 q 570 1026 583 1043 q 529 1010 556 1010 q 495 1023 506 1010 q 484 1057 484 1036 z "},"ġ":{"ha":686,"x_min":-17,"x_max":699,"o":"m 538 591 q 563 538 554 564 q 571 486 571 513 q 495 297 571 369 q 297 225 419 225 q 238 231 266 225 q 193 245 211 237 q 153 204 170 230 q 135 150 135 179 q 196 92 135 104 q 401 79 256 79 q 545 44 490 79 q 600 -56 600 9 q 496 -268 600 -186 q 244 -350 392 -350 q 64 -306 144 -350 q -17 -134 -17 -262 q 18 -16 -17 -66 q 117 64 53 35 l 115 65 q 84 97 95 77 q 74 135 74 118 q 150 267 74 191 l 151 269 q 102 326 124 286 q 81 411 81 367 q 153 598 81 530 q 349 665 226 665 q 441 655 403 665 q 510 623 479 644 l 513 623 q 564 705 532 682 q 633 728 597 728 q 673 727 659 728 q 699 722 687 726 l 684 669 q 538 597 564 669 l 538 591 m 140 422 q 179 312 140 347 q 298 277 218 277 q 455 329 399 277 q 511 465 511 380 q 475 581 511 545 q 334 618 439 618 q 192 564 244 618 q 140 422 140 510 m 248 -298 q 456 -233 372 -298 q 541 -78 541 -168 q 495 4 541 -14 q 288 22 449 22 q 151 32 220 22 q 40 -123 40 -30 q 89 -255 40 -211 q 248 -298 138 -298 m 333 835 q 387 900 333 900 q 421 887 410 900 q 432 851 432 875 q 418 804 432 821 q 378 787 405 787 q 344 800 355 787 q 333 835 333 813 z "},"Ģ":{"ha":781,"x_min":56,"x_max":708,"o":"m 122 404 q 206 134 122 229 q 443 39 290 39 q 511 42 485 39 q 578 53 538 45 l 599 57 l 602 98 q 614 239 609 193 q 623 340 619 286 l 627 375 l 697 375 l 691 329 q 669 153 677 240 q 659 20 661 65 q 562 -8 613 1 q 440 -18 511 -18 q 155 90 255 -18 q 56 390 56 198 q 196 750 56 604 q 549 896 337 896 q 631 889 587 896 q 708 872 675 883 l 688 808 q 519 835 597 835 q 237 708 353 835 q 122 404 122 582 m 399 -214 q 358 -199 374 -214 q 342 -160 342 -185 q 360 -120 342 -134 q 407 -106 378 -106 q 443 -120 428 -106 q 458 -160 458 -135 q 427 -252 458 -201 q 362 -330 397 -302 l 341 -319 q 382 -259 365 -293 q 399 -214 399 -226 z "},"ģ":{"ha":686,"x_min":-17,"x_max":699,"o":"m 538 591 q 563 538 554 564 q 571 486 571 513 q 495 297 571 369 q 297 225 419 225 q 238 231 266 225 q 193 245 211 237 q 153 204 170 230 q 135 150 135 179 q 196 92 135 104 q 401 79 256 79 q 545 44 490 79 q 600 -56 600 9 q 496 -268 600 -186 q 244 -350 392 -350 q 64 -306 144 -350 q -17 -134 -17 -262 q 18 -16 -17 -66 q 117 64 53 35 l 115 65 q 84 97 95 77 q 74 135 74 118 q 150 267 74 191 l 151 269 q 102 326 124 286 q 81 411 81 367 q 153 598 81 530 q 349 665 226 665 q 441 655 403 665 q 510 623 479 644 l 513 623 q 564 705 532 682 q 633 728 597 728 q 673 727 659 728 q 699 722 687 726 l 684 669 q 538 597 564 669 l 538 591 m 140 422 q 179 312 140 347 q 298 277 218 277 q 455 329 399 277 q 511 465 511 380 q 475 581 511 545 q 334 618 439 618 q 192 564 244 618 q 140 422 140 510 m 248 -298 q 456 -233 372 -298 q 541 -78 541 -168 q 495 4 541 -14 q 288 22 449 22 q 151 32 220 22 q 40 -123 40 -30 q 89 -255 40 -211 q 248 -298 138 -298 m 363 895 q 404 880 389 895 q 420 840 420 865 q 402 801 420 815 q 355 786 384 786 q 320 801 335 786 q 304 840 304 816 q 335 932 304 882 q 400 1011 366 983 l 421 1000 q 380 940 398 973 q 363 895 363 906 z "},"Ħ":{"ha":791,"x_min":47,"x_max":787,"o":"m 779 635 l 694 635 l 675 465 q 652 243 661 346 q 635 0 643 140 l 561 0 q 584 182 568 47 q 612 441 600 317 l 175 441 q 153 224 161 319 q 138 0 145 129 l 64 0 q 100 303 74 67 q 136 635 127 540 l 47 635 l 54 688 l 142 688 l 144 711 q 155 884 152 813 l 229 884 q 203 688 222 840 l 639 688 q 642 720 640 708 l 648 797 q 653 884 651 848 l 726 884 q 701 688 721 848 l 787 688 l 779 635 m 197 635 q 180 494 186 543 l 618 494 q 633 635 629 582 l 197 635 z "},"ħ":{"ha":718,"x_min":52,"x_max":623,"o":"m 597 0 l 526 -7 q 544 170 526 21 q 562 454 562 318 q 533 576 562 540 q 428 612 503 612 q 260 503 342 612 q 166 256 178 393 l 144 0 l 142 1 l 79 -7 q 88 59 79 3 q 103 174 97 115 l 121 342 l 139 507 q 150 622 139 510 l 161 745 l 52 745 l 61 793 l 165 793 q 176 954 175 901 l 240 958 q 236 899 240 947 q 225 793 232 851 l 469 793 l 463 745 l 221 745 q 208 622 216 691 q 195 507 199 553 l 192 482 l 196 482 q 443 665 291 665 q 577 615 532 665 q 623 464 623 565 q 610 272 623 419 q 597 0 597 124 z "},"Ī":{"ha":292,"x_min":54,"x_max":360,"o":"m 136 0 l 62 0 q 111 412 73 79 q 154 884 149 745 l 228 884 q 177 471 203 708 q 136 0 150 234 m 342 1017 l 54 1017 l 70 1072 l 360 1072 l 342 1017 z "},"ī":{"ha":302,"x_min":56,"x_max":322,"o":"m 175 300 q 150 0 163 178 l 83 -7 q 105 181 92 47 l 118 300 q 132 467 125 355 q 138 640 138 578 l 210 656 q 184 387 204 581 l 175 300 m 310 817 l 56 817 l 68 876 l 322 876 l 310 817 z "},"Į":{"ha":292,"x_min":-22,"x_max":228,"o":"m 98 -277 q 131 -274 117 -277 q 160 -262 145 -272 l 167 -315 q 79 -329 125 -329 q 8 -293 39 -329 q -22 -192 -22 -256 q -2 -94 -22 -138 q 62 0 18 -50 q 112 421 75 96 q 154 884 149 745 l 228 884 q 177 471 203 708 q 136 0 150 234 q 54 -86 76 -43 q 32 -189 32 -128 q 52 -253 32 -229 q 98 -277 72 -277 z "},"į":{"ha":302,"x_min":-32,"x_max":236,"o":"m 182 787 q 138 835 138 787 q 192 900 138 900 q 236 851 236 900 q 182 787 236 787 m 210 656 q 184 387 204 581 l 175 300 q 150 0 163 178 q 55 -98 87 -52 q 22 -203 22 -144 q 40 -255 22 -233 q 83 -277 58 -277 q 116 -274 102 -277 q 144 -262 130 -272 l 151 -315 q 64 -329 110 -329 q -3 -296 26 -329 q -32 -205 -32 -262 q -2 -95 -32 -149 q 83 -7 28 -41 q 113 239 92 53 l 119 300 q 133 463 127 353 q 138 640 138 572 l 210 656 z "},"İ":{"ha":292,"x_min":62,"x_max":257,"o":"m 136 0 l 62 0 q 111 412 73 79 q 154 884 149 745 l 228 884 q 177 471 203 708 q 136 0 150 234 m 158 1057 q 212 1122 158 1122 q 246 1110 235 1122 q 257 1074 257 1097 q 243 1026 257 1043 q 203 1010 230 1010 q 169 1023 180 1010 q 158 1057 158 1036 z "},"ı":{"ha":302,"x_min":83,"x_max":210,"o":"m 175 300 q 150 0 163 178 l 83 -7 q 105 181 92 47 l 118 300 q 132 467 125 355 q 138 640 138 578 l 210 656 q 184 387 204 581 l 175 300 z "},"Ķ":{"ha":736,"x_min":64,"x_max":693,"o":"m 532 222 q 617 99 557 184 q 676 0 676 14 l 599 0 q 485 188 599 17 q 327 406 372 358 q 221 454 282 454 l 176 454 q 155 248 164 351 q 138 -1 146 144 l 64 0 q 113 414 75 77 q 155 884 150 751 l 229 884 q 182 505 212 765 l 203 505 q 424 683 232 505 q 615 884 615 861 l 693 884 q 528 707 693 869 q 289 496 362 546 l 289 490 q 394 414 346 477 q 522 237 443 351 l 532 222 m 341 -214 q 300 -199 315 -214 q 284 -160 284 -185 q 302 -120 284 -134 q 349 -106 320 -106 q 385 -120 370 -106 q 399 -160 399 -135 q 369 -252 399 -201 q 304 -330 338 -302 l 283 -319 q 324 -259 307 -293 q 341 -214 341 -226 z "},"ķ":{"ha":665,"x_min":82,"x_max":650,"o":"m 160 180 l 163 180 q 237 300 180 227 q 374 450 294 374 l 442 517 q 538 613 510 584 q 566 652 566 642 l 650 650 q 571 559 650 631 q 386 399 492 488 l 387 393 q 524 165 473 283 q 575 0 575 47 l 509 -7 q 468 145 509 37 q 351 354 427 252 q 295 294 320 321 q 253 244 271 267 q 146 0 152 105 l 82 -7 q 129 384 93 58 q 179 954 165 711 l 245 958 q 203 555 245 926 q 160 180 161 185 m 329 -214 q 288 -199 303 -214 q 272 -160 272 -185 q 290 -120 272 -134 q 336 -106 308 -106 q 372 -120 357 -106 q 387 -160 387 -135 q 357 -252 387 -201 q 292 -330 326 -302 l 271 -319 q 312 -259 294 -293 q 329 -214 329 -226 z "},"Ĺ":{"ha":616,"x_min":62,"x_max":557,"o":"m 155 884 l 229 884 l 222 832 q 192 591 222 829 q 140 53 162 353 q 328 56 207 53 q 536 62 448 58 l 557 62 l 547 0 l 62 0 q 89 205 69 35 q 126 534 108 374 q 155 884 144 694 m 236 960 l 189 960 q 261 1054 189 970 q 334 1146 334 1138 l 436 1146 q 414 1121 436 1142 q 334 1054 392 1101 q 236 960 236 970 z "},"ĺ":{"ha":292,"x_min":86,"x_max":435,"o":"m 224 710 q 187 369 205 549 q 154 1 170 189 l 86 -7 q 94 51 86 -1 q 126 322 102 103 l 136 408 q 164 693 147 513 q 183 954 180 873 l 250 958 q 239 832 250 936 l 224 710 m 235 1029 l 188 1029 q 260 1123 188 1039 q 332 1215 332 1207 l 435 1215 q 413 1191 435 1211 q 332 1123 391 1170 q 235 1029 235 1040 z "},"Ļ":{"ha":616,"x_min":62,"x_max":557,"o":"m 155 884 l 229 884 l 222 832 q 192 591 222 829 q 140 53 162 353 q 328 56 207 53 q 536 62 448 58 l 557 62 l 547 0 l 62 0 q 89 205 69 35 q 126 534 108 374 q 155 884 144 694 m 297 -214 q 256 -199 271 -214 q 240 -160 240 -185 q 258 -120 240 -134 q 304 -106 276 -106 q 340 -120 326 -106 q 355 -160 355 -135 q 325 -252 355 -201 q 260 -330 294 -302 l 239 -319 q 280 -259 262 -293 q 297 -214 297 -226 z "},"ļ":{"ha":292,"x_min":48,"x_max":250,"o":"m 224 710 q 187 369 205 549 q 154 1 170 189 l 86 -7 q 94 51 86 -1 q 126 322 102 103 l 136 408 q 164 693 147 513 q 183 954 180 873 l 250 958 q 239 832 250 936 l 224 710 m 106 -214 q 65 -199 81 -214 q 50 -160 50 -185 q 67 -120 50 -134 q 114 -106 85 -106 q 150 -120 135 -106 q 165 -160 165 -135 q 134 -252 165 -201 q 69 -330 104 -302 l 48 -319 q 89 -259 72 -293 q 106 -214 106 -226 z "},"Ľ":{"ha":616,"x_min":62,"x_max":629,"o":"m 155 884 l 229 884 l 222 832 q 192 591 222 829 q 140 53 162 353 q 328 56 207 53 q 536 62 448 58 l 557 62 l 547 0 l 62 0 q 89 205 69 35 q 126 534 108 374 q 155 884 144 694 m 579 761 q 519 778 544 761 q 494 827 494 795 q 514 884 494 865 q 566 903 534 903 q 613 879 597 903 q 629 817 629 856 q 590 700 629 759 q 503 614 550 641 l 492 633 q 548 706 520 664 q 579 761 576 749 z "},"ľ":{"ha":464,"x_min":86,"x_max":485,"o":"m 224 710 q 187 369 205 549 q 154 1 170 189 l 86 -7 q 94 51 86 -1 q 126 322 102 103 l 136 408 q 164 693 147 513 q 183 954 180 873 l 250 958 q 239 832 250 936 l 224 710 m 435 761 q 375 778 399 761 q 350 827 350 795 q 370 884 350 865 q 421 903 389 903 q 469 879 452 903 q 485 817 485 856 q 445 700 485 759 q 359 614 406 641 l 347 633 q 404 706 376 664 q 435 761 432 749 z "},"Ł":{"ha":616,"x_min":-43,"x_max":557,"o":"m 557 62 l 547 0 l 62 0 q 107 363 71 45 l -12 278 l -43 322 l 114 424 l 118 465 q 155 884 142 673 l 229 884 l 222 831 q 178 468 199 661 l 463 665 l 493 619 l 172 408 q 140 53 155 253 q 328 56 207 53 q 536 62 448 58 l 557 62 z "},"ł":{"ha":319,"x_min":-37,"x_max":386,"o":"m 196 449 q 154 1 169 191 l 86 -7 q 95 58 86 5 q 113 203 104 111 q 135 400 122 296 l -5 286 l -37 330 l 142 468 l 146 507 q 171 775 161 652 q 183 954 181 898 l 250 958 q 229 746 250 936 q 203 515 207 555 l 353 639 l 386 591 l 196 449 z "},"Ń":{"ha":803,"x_min":54,"x_max":749,"o":"m 616 97 l 623 97 q 620 145 620 112 q 639 391 620 223 q 686 884 658 558 l 749 884 q 730 722 745 853 l 700 465 l 690 367 q 656 0 664 134 l 602 0 q 427 357 602 41 q 200 821 253 674 l 192 821 q 193 810 192 818 q 192 789 193 798 l 191 755 q 160 459 189 718 q 117 0 132 201 l 54 0 q 83 249 61 49 l 109 465 q 146 884 139 734 l 232 884 q 280 768 232 873 q 456 431 328 664 q 616 97 585 197 m 469 960 l 422 960 q 495 1054 422 970 q 567 1146 567 1138 l 669 1146 q 647 1121 669 1142 q 567 1054 625 1101 q 469 960 469 970 z "},"ń":{"ha":714,"x_min":79,"x_max":623,"o":"m 192 481 q 297 620 232 574 q 443 665 363 665 q 577 615 532 665 q 623 464 623 565 q 610 272 623 419 q 597 0 597 124 l 528 -7 q 545 175 528 14 q 562 454 562 336 q 532 576 562 539 q 425 612 501 612 q 251 497 330 612 q 162 219 172 382 q 147 0 152 56 l 79 -7 q 126 468 126 338 q 115 642 126 564 l 184 657 q 189 481 189 584 l 192 481 m 417 736 l 374 736 q 442 845 374 747 q 510 956 510 943 l 617 956 q 517 848 617 949 q 417 736 417 747 z "},"Ņ":{"ha":803,"x_min":54,"x_max":749,"o":"m 616 97 l 623 97 q 620 145 620 112 q 639 391 620 223 q 686 884 658 558 l 749 884 q 730 722 745 853 l 700 465 l 690 367 q 656 0 664 134 l 602 0 q 427 357 602 41 q 200 821 253 674 l 192 821 q 193 810 192 818 q 192 789 193 798 l 191 755 q 160 459 189 718 q 117 0 132 201 l 54 0 q 83 249 61 49 l 109 465 q 146 884 139 734 l 232 884 q 280 768 232 873 q 456 431 328 664 q 616 97 585 197 m 340 -214 q 298 -199 314 -214 q 283 -160 283 -185 q 301 -120 283 -134 q 347 -106 319 -106 q 383 -120 368 -106 q 398 -160 398 -135 q 368 -252 398 -201 q 302 -330 337 -302 l 281 -319 q 322 -259 305 -293 q 340 -214 340 -226 z "},"ņ":{"ha":714,"x_min":79,"x_max":623,"o":"m 192 481 q 297 620 232 574 q 443 665 363 665 q 577 615 532 665 q 623 464 623 565 q 610 272 623 419 q 597 0 597 124 l 528 -7 q 545 175 528 14 q 562 454 562 336 q 532 576 562 539 q 425 612 501 612 q 251 497 330 612 q 162 219 172 382 q 147 0 152 56 l 79 -7 q 126 468 126 338 q 115 642 126 564 l 184 657 q 189 481 189 584 l 192 481 m 340 -214 q 298 -199 314 -214 q 283 -160 283 -185 q 301 -120 283 -134 q 347 -106 319 -106 q 383 -120 368 -106 q 398 -160 398 -135 q 368 -252 398 -201 q 302 -330 337 -302 l 281 -319 q 322 -259 305 -293 q 340 -214 340 -226 z "},"Ň":{"ha":803,"x_min":54,"x_max":749,"o":"m 616 97 l 623 97 q 620 145 620 112 q 639 391 620 223 q 686 884 658 558 l 749 884 q 730 722 745 853 l 700 465 l 690 367 q 656 0 664 134 l 602 0 q 427 357 602 41 q 200 821 253 674 l 192 821 q 193 810 192 818 q 192 789 193 798 l 191 755 q 160 459 189 718 q 117 0 132 201 l 54 0 q 83 249 61 49 l 109 465 q 146 884 139 734 l 232 884 q 280 768 232 873 q 456 431 328 664 q 616 97 585 197 m 503 960 l 408 960 q 357 1050 407 968 q 307 1146 307 1131 l 346 1146 q 461 1010 346 1137 q 610 1146 610 1136 l 650 1146 l 650 1145 q 578 1054 650 1137 q 503 960 507 972 z "},"ň":{"ha":714,"x_min":79,"x_max":623,"o":"m 192 481 q 297 620 232 574 q 443 665 363 665 q 577 615 532 665 q 623 464 623 565 q 610 272 623 419 q 597 0 597 124 l 528 -7 q 545 175 528 14 q 562 454 562 336 q 532 576 562 539 q 425 612 501 612 q 251 497 330 612 q 162 219 172 382 q 147 0 152 56 l 79 -7 q 126 468 126 338 q 115 642 126 564 l 184 657 q 189 481 189 584 l 192 481 m 449 736 l 357 736 q 329 793 355 740 l 302 847 l 282 890 q 253 956 253 951 l 294 956 q 408 794 294 947 q 515 906 475 862 q 558 956 555 950 l 596 956 l 596 955 q 524 846 596 945 q 449 736 452 747 z "},"Ŋ":{"ha":803,"x_min":54,"x_max":749,"o":"m 749 884 q 730 722 745 853 l 700 465 l 690 367 q 656 0 664 134 l 654 -50 q 566 -227 652 -153 q 370 -300 479 -300 l 374 -239 q 548 -180 495 -239 q 602 -9 602 -122 q 429 355 602 44 q 200 821 256 667 l 192 821 q 193 810 192 818 q 192 789 193 798 l 191 755 q 160 459 189 718 q 117 0 132 201 l 54 0 q 83 249 61 49 l 109 465 q 146 884 139 734 l 232 884 q 280 768 232 873 q 456 431 328 664 q 616 97 585 197 l 623 97 q 620 145 620 112 q 639 391 620 223 q 686 884 658 558 l 749 884 z "},"ŋ":{"ha":714,"x_min":79,"x_max":623,"o":"m 292 -300 l 294 -243 q 405 -226 352 -243 q 485 -167 457 -210 q 518 -65 512 -125 l 530 53 l 534 83 q 555 304 548 221 q 562 454 562 387 q 532 576 562 539 q 425 612 501 612 q 302 557 359 612 q 210 422 245 503 q 168 271 174 341 l 157 142 l 150 57 l 146 0 l 79 -7 q 126 468 126 338 q 115 642 126 564 l 184 657 q 189 481 189 584 l 192 481 q 297 620 232 574 q 443 665 363 665 q 577 615 532 665 q 623 464 623 565 q 601 127 623 415 q 505 -230 579 -160 q 292 -300 430 -300 z "},"Ō":{"ha":888,"x_min":56,"x_max":829,"o":"m 56 364 q 181 742 56 587 q 498 897 307 897 q 737 788 645 897 q 829 505 829 679 q 774 242 829 364 q 618 46 720 119 q 386 -28 517 -28 q 149 83 241 -28 q 56 364 56 195 m 121 364 q 197 120 121 213 q 401 28 273 28 q 662 171 559 28 q 764 505 764 314 q 687 752 764 662 q 476 843 610 843 q 221 699 321 843 q 121 364 121 554 m 652 1017 l 365 1017 l 380 1072 l 671 1072 l 652 1017 z "},"ō":{"ha":730,"x_min":71,"x_max":660,"o":"m 71 282 q 166 556 71 439 q 410 673 262 673 q 590 592 521 673 q 660 382 660 510 q 563 93 660 212 q 319 -26 467 -26 q 140 60 210 -26 q 71 282 71 147 m 134 288 q 186 98 134 169 q 330 26 238 26 q 519 126 441 26 q 597 366 597 227 q 546 554 597 487 q 396 621 495 621 q 208 523 283 621 q 134 288 134 425 m 558 817 l 304 817 l 317 876 l 570 876 l 558 817 z "},"Ő":{"ha":888,"x_min":56,"x_max":829,"o":"m 56 364 q 181 742 56 587 q 498 897 307 897 q 737 788 645 897 q 829 505 829 679 q 774 242 829 364 q 618 46 720 119 q 386 -28 517 -28 q 149 83 241 -28 q 56 364 56 195 m 121 364 q 197 120 121 213 q 401 28 273 28 q 662 171 559 28 q 764 505 764 314 q 687 752 764 662 q 476 843 610 843 q 221 699 321 843 q 121 364 121 554 m 458 1051 q 392 960 409 977 l 346 960 l 346 961 q 352 985 346 967 q 370 1034 358 1004 l 376 1051 q 410 1146 398 1110 l 513 1146 q 503 1124 513 1140 q 471 1070 494 1107 l 458 1051 m 637 960 l 592 960 q 627 1049 600 969 q 654 1146 654 1128 l 760 1146 q 709 1056 755 1126 q 637 960 663 986 z "},"ő":{"ha":730,"x_min":71,"x_max":684,"o":"m 71 282 q 166 556 71 439 q 410 673 262 673 q 590 592 521 673 q 660 382 660 510 q 563 93 660 212 q 319 -26 467 -26 q 140 60 210 -26 q 71 282 71 147 m 134 288 q 186 98 134 169 q 330 26 238 26 q 519 126 441 26 q 597 366 597 227 q 546 554 597 487 q 396 621 495 621 q 208 523 283 621 q 134 288 134 425 m 297 736 l 261 736 q 296 849 264 753 q 329 956 329 946 l 439 956 q 368 845 437 940 q 297 736 300 751 m 546 736 l 546 736 l 508 736 q 542 847 508 743 q 578 956 576 951 l 684 956 l 684 955 q 615 844 684 938 q 546 736 546 750 z "},"Œ":{"ha":1162,"x_min":56,"x_max":1132,"o":"m 712 606 l 699 490 q 1014 498 912 490 l 1006 433 q 871 438 958 436 q 693 440 784 440 q 676 259 688 378 q 659 53 664 140 q 1090 64 881 53 l 1078 0 l 582 0 q 389 -21 505 -21 q 150 88 243 -21 q 56 364 56 197 q 184 741 56 590 q 515 892 313 892 q 673 884 593 892 l 1132 884 l 1121 821 q 739 828 951 828 l 712 606 m 669 822 q 602 834 637 831 q 503 838 567 838 q 298 770 385 838 q 166 595 212 703 q 121 364 121 486 q 197 124 121 214 q 401 35 273 35 q 590 62 514 35 l 636 465 q 669 822 659 657 z "},"œ":{"ha":1173,"x_min":71,"x_max":1125,"o":"m 650 325 q 697 99 650 162 q 872 36 745 36 q 965 54 917 36 q 1071 109 1014 72 l 1059 45 q 856 -17 979 -17 q 691 33 753 -17 q 607 171 629 83 q 491 27 565 80 q 319 -26 416 -26 q 140 60 210 -26 q 71 282 71 147 q 166 556 71 439 q 410 673 262 673 q 558 621 498 673 q 640 479 618 568 q 761 622 683 570 q 940 673 839 673 q 1071 632 1017 673 q 1125 526 1125 591 q 1002 376 1125 420 q 650 325 879 332 m 1063 532 q 1026 596 1063 570 q 936 623 989 623 q 758 551 838 623 q 660 374 677 479 q 960 415 857 377 q 1063 532 1063 452 m 396 621 q 208 523 283 621 q 134 288 134 425 q 186 98 134 169 q 330 26 238 26 q 519 126 441 26 q 597 366 597 227 q 546 554 597 487 q 396 621 495 621 z "},"Ŕ":{"ha":737,"x_min":62,"x_max":681,"o":"m 389 888 q 575 833 508 888 q 642 682 642 778 q 595 544 642 610 q 456 441 549 477 l 457 437 q 574 340 535 413 q 681 0 612 268 l 607 0 q 527 286 562 207 q 449 387 491 366 q 283 408 407 408 q 172 407 195 408 q 140 0 142 146 l 62 0 q 106 360 72 66 q 154 884 140 654 l 228 884 q 308 886 249 884 q 389 888 366 888 m 288 461 q 499 518 424 461 q 574 681 574 575 q 523 799 574 762 q 346 835 471 835 q 220 827 274 835 l 176 463 q 220 461 190 461 l 288 461 m 389 960 l 342 960 q 414 1054 342 970 q 486 1146 486 1138 l 589 1146 q 567 1121 589 1142 q 486 1054 545 1101 q 389 960 389 970 z "},"ŕ":{"ha":498,"x_min":79,"x_max":519,"o":"m 146 0 l 79 -7 q 126 468 126 338 q 115 642 126 564 l 184 657 q 189 538 189 579 l 192 538 q 268 632 214 597 q 385 667 323 667 q 501 652 433 667 l 478 596 l 456 601 q 421 606 439 604 q 376 607 403 607 q 244 548 298 607 q 178 378 190 489 q 146 0 165 267 m 319 736 l 276 736 q 344 845 276 747 q 412 956 412 943 l 519 956 q 419 848 519 949 q 319 736 319 747 z "},"Ŗ":{"ha":737,"x_min":62,"x_max":681,"o":"m 389 888 q 575 833 508 888 q 642 682 642 778 q 595 544 642 610 q 456 441 549 477 l 457 437 q 574 340 535 413 q 681 0 612 268 l 607 0 q 527 286 562 207 q 449 387 491 366 q 283 408 407 408 q 172 407 195 408 q 140 0 142 146 l 62 0 q 106 360 72 66 q 154 884 140 654 l 228 884 q 308 886 249 884 q 389 888 366 888 m 288 461 q 499 518 424 461 q 574 681 574 575 q 523 799 574 762 q 346 835 471 835 q 220 827 274 835 l 176 463 q 220 461 190 461 l 288 461 m 330 -214 q 289 -199 304 -214 q 273 -160 273 -185 q 291 -120 273 -134 q 338 -106 309 -106 q 374 -120 359 -106 q 389 -160 389 -135 q 358 -252 389 -201 q 293 -330 328 -302 l 272 -319 q 313 -259 296 -293 q 330 -214 330 -226 z "},"ŗ":{"ha":498,"x_min":50,"x_max":501,"o":"m 146 0 l 79 -7 q 126 468 126 338 q 115 642 126 564 l 184 657 q 189 538 189 579 l 192 538 q 268 632 214 597 q 385 667 323 667 q 501 652 433 667 l 478 596 l 456 601 q 421 606 439 604 q 376 607 403 607 q 244 548 298 607 q 178 378 190 489 q 146 0 165 267 m 108 -214 q 66 -199 82 -214 q 51 -160 51 -185 q 69 -120 51 -134 q 115 -106 87 -106 q 151 -120 136 -106 q 166 -160 166 -135 q 136 -252 166 -201 q 71 -330 105 -302 l 50 -319 q 91 -259 73 -293 q 108 -214 108 -226 z "},"Ř":{"ha":737,"x_min":62,"x_max":681,"o":"m 389 888 q 575 833 508 888 q 642 682 642 778 q 595 544 642 610 q 456 441 549 477 l 457 437 q 574 340 535 413 q 681 0 612 268 l 607 0 q 527 286 562 207 q 449 387 491 366 q 283 408 407 408 q 172 407 195 408 q 140 0 142 146 l 62 0 q 106 360 72 66 q 154 884 140 654 l 228 884 q 308 886 249 884 q 389 888 366 888 m 288 461 q 499 518 424 461 q 574 681 574 575 q 523 799 574 762 q 346 835 471 835 q 220 827 274 835 l 176 463 q 220 461 190 461 l 288 461 m 439 960 l 345 960 q 293 1050 343 968 q 243 1146 243 1131 l 282 1146 q 397 1010 282 1137 q 546 1146 546 1136 l 586 1146 l 586 1145 q 514 1054 586 1137 q 439 960 443 972 z "},"ř":{"ha":498,"x_min":79,"x_max":513,"o":"m 146 0 l 79 -7 q 126 468 126 338 q 115 642 126 564 l 184 657 q 189 538 189 579 l 192 538 q 268 632 214 597 q 385 667 323 667 q 501 652 433 667 l 478 596 l 456 601 q 421 606 439 604 q 376 607 403 607 q 244 548 298 607 q 178 378 190 489 q 146 0 165 267 m 366 736 l 273 736 q 245 793 272 740 l 218 847 l 199 890 q 170 956 170 951 l 211 956 q 325 794 211 947 q 432 906 392 862 q 475 956 472 950 l 513 956 l 513 955 q 441 846 513 945 q 366 736 369 747 z "},"Ś":{"ha":657,"x_min":26,"x_max":574,"o":"m 163 673 q 193 575 163 614 q 341 485 224 535 q 509 376 458 434 q 559 232 559 317 q 228 -20 559 -20 q 123 -13 180 -20 q 26 7 66 -5 l 49 72 q 133 44 81 56 q 241 33 185 33 l 248 33 q 431 84 367 36 q 494 215 494 133 q 462 332 494 286 q 309 431 429 378 q 143 535 189 484 q 98 659 98 587 q 176 831 98 768 q 395 895 254 895 q 574 876 511 895 l 550 811 q 354 843 467 843 q 218 795 273 843 q 163 673 163 747 m 361 960 l 314 960 q 386 1054 314 970 q 458 1146 458 1138 l 561 1146 q 539 1121 561 1142 q 458 1054 517 1101 q 361 960 361 970 z "},"ś":{"ha":541,"x_min":33,"x_max":506,"o":"m 147 505 q 177 433 147 458 q 300 365 208 408 q 427 285 392 321 q 461 193 461 248 q 400 44 461 99 q 233 -11 339 -11 q 33 16 130 -11 l 50 77 q 138 51 96 59 q 239 43 180 43 q 360 76 319 43 q 401 170 401 109 q 372 254 401 229 q 256 319 343 280 q 128 393 168 357 q 87 492 87 429 q 150 614 87 565 q 313 664 212 664 q 488 643 408 664 l 464 586 q 309 610 381 610 q 190 581 233 610 q 147 505 147 553 m 306 736 l 262 736 q 331 845 262 747 q 399 956 399 943 l 506 956 q 406 848 506 949 q 306 736 306 747 z "},"Ş":{"ha":657,"x_min":26,"x_max":574,"o":"m 297 -17 l 285 -66 q 377 -114 348 -87 q 406 -191 406 -141 q 363 -299 406 -263 q 240 -335 321 -335 l 241 -290 q 320 -268 290 -290 q 350 -201 350 -246 q 319 -128 350 -153 q 222 -92 288 -102 l 252 -20 l 228 -20 q 123 -13 180 -20 q 26 7 66 -5 l 49 72 q 133 44 81 56 q 241 33 185 33 l 248 33 q 431 84 367 36 q 494 215 494 133 q 462 332 494 286 q 309 431 429 378 q 143 535 189 484 q 98 659 98 587 q 176 831 98 768 q 395 895 254 895 q 574 876 511 895 l 550 811 q 354 843 467 843 q 218 795 273 843 q 163 673 163 747 q 193 575 163 614 q 341 485 224 535 q 509 376 458 434 q 559 232 559 317 q 297 -17 559 9 z "},"ş":{"ha":541,"x_min":33,"x_max":488,"o":"m 461 193 q 401 45 461 100 q 236 -11 340 -10 l 222 -66 q 314 -114 285 -87 q 343 -191 343 -141 q 301 -299 343 -263 q 178 -335 259 -335 l 179 -290 q 257 -268 227 -290 q 288 -201 288 -246 q 257 -128 288 -153 q 160 -92 226 -102 l 191 -9 q 33 16 109 -5 l 50 77 q 138 51 96 59 q 239 43 180 43 q 360 76 319 43 q 401 170 401 109 q 372 254 401 229 q 256 319 343 280 q 128 393 168 357 q 87 492 87 429 q 150 614 87 565 q 313 664 212 664 q 488 643 408 664 l 464 586 q 309 610 381 610 q 190 581 233 610 q 147 505 147 553 q 177 433 147 458 q 300 365 208 408 q 427 285 392 321 q 461 193 461 248 z "},"Š":{"ha":657,"x_min":26,"x_max":574,"o":"m 163 673 q 193 575 163 614 q 341 485 224 535 q 509 376 458 434 q 559 232 559 317 q 228 -20 559 -20 q 123 -13 180 -20 q 26 7 66 -5 l 49 72 q 133 44 81 56 q 241 33 185 33 l 248 33 q 431 84 367 36 q 494 215 494 133 q 462 332 494 286 q 309 431 429 378 q 143 535 189 484 q 98 659 98 587 q 176 831 98 768 q 395 895 254 895 q 574 876 511 895 l 550 811 q 354 843 467 843 q 218 795 273 843 q 163 673 163 747 m 414 960 l 319 960 q 268 1050 318 968 q 218 1146 218 1131 l 257 1146 q 372 1010 257 1137 q 521 1146 521 1136 l 561 1146 l 561 1145 q 489 1054 561 1137 q 414 960 418 972 z "},"š":{"ha":541,"x_min":33,"x_max":509,"o":"m 147 505 q 177 433 147 458 q 300 365 208 408 q 427 285 392 321 q 461 193 461 248 q 400 44 461 99 q 233 -11 339 -11 q 33 16 130 -11 l 50 77 q 138 51 96 59 q 239 43 180 43 q 360 76 319 43 q 401 170 401 109 q 372 254 401 229 q 256 319 343 280 q 128 393 168 357 q 87 492 87 429 q 150 614 87 565 q 313 664 212 664 q 488 643 408 664 l 464 586 q 309 610 381 610 q 190 581 233 610 q 147 505 147 553 m 361 736 l 269 736 q 241 793 268 740 l 214 847 l 195 890 q 165 956 165 951 l 207 956 q 321 794 207 947 q 428 906 388 862 q 471 956 468 950 l 509 956 l 509 955 q 437 846 509 945 q 361 736 365 747 z "},"Ţ":{"ha":685,"x_min":74,"x_max":707,"o":"m 551 826 q 422 828 486 828 l 418 795 q 378 465 391 586 l 372 410 q 352 194 360 286 q 339 0 345 103 l 265 0 q 311 378 274 57 q 353 828 347 700 q 74 821 264 828 l 81 884 l 707 884 l 696 821 q 629 823 651 822 l 551 826 m 289 -214 q 248 -199 263 -214 q 232 -160 232 -185 q 250 -120 232 -134 q 296 -106 268 -106 q 332 -120 317 -106 q 347 -160 347 -135 q 317 -252 347 -201 q 252 -330 286 -302 l 231 -319 q 272 -259 254 -293 q 289 -214 289 -226 z "},"ţ":{"ha":525,"x_min":68,"x_max":460,"o":"m 151 170 q 161 306 151 212 q 193 578 171 400 q 68 574 155 578 l 77 631 q 159 628 109 628 l 203 628 l 231 825 l 292 829 l 287 801 q 258 628 271 713 q 458 635 353 628 l 452 574 q 249 578 326 578 q 231 414 249 576 q 212 191 212 252 q 232 67 212 96 q 304 39 252 39 q 380 53 342 39 q 460 97 418 68 l 449 33 q 302 -14 371 -14 q 185 33 219 -14 q 151 170 151 79 m 265 -214 q 224 -199 239 -214 q 208 -160 208 -185 q 226 -120 208 -134 q 273 -106 244 -106 q 309 -120 294 -106 q 323 -160 323 -135 q 293 -252 323 -201 q 228 -330 262 -302 l 207 -319 q 248 -259 231 -293 q 265 -214 265 -226 z "},"Ť":{"ha":685,"x_min":74,"x_max":707,"o":"m 551 826 q 422 828 486 828 l 418 795 q 378 465 391 586 l 372 410 q 352 194 360 286 q 339 0 345 103 l 265 0 q 311 378 274 57 q 353 828 347 700 q 74 821 264 828 l 81 884 l 707 884 l 696 821 q 629 823 651 822 l 551 826 m 443 960 l 349 960 q 297 1050 347 968 q 248 1146 248 1131 l 286 1146 q 401 1010 286 1137 q 550 1146 550 1136 l 590 1146 l 590 1145 q 518 1054 590 1137 q 443 960 447 972 z "},"ť":{"ha":612,"x_min":68,"x_max":656,"o":"m 151 170 q 161 306 151 212 q 193 578 171 400 q 68 574 155 578 l 77 631 q 159 628 109 628 l 203 628 l 231 825 l 292 829 l 287 801 q 258 628 271 713 q 458 635 353 628 l 452 574 q 249 578 326 578 q 231 414 249 576 q 212 191 212 252 q 232 67 212 96 q 304 39 252 39 q 380 53 342 39 q 460 97 418 68 l 449 33 q 302 -14 371 -14 q 185 33 219 -14 q 151 170 151 79 m 606 761 q 546 778 570 761 q 521 827 521 795 q 541 884 521 865 q 592 903 560 903 q 640 879 623 903 q 656 817 656 856 q 616 700 656 759 q 530 614 576 641 l 518 633 q 575 706 547 664 q 606 761 603 749 z "},"Ū":{"ha":860,"x_min":86,"x_max":811,"o":"m 366 -14 q 160 65 233 -14 q 86 304 86 144 q 96 451 86 365 q 134 884 106 538 l 207 884 q 171 590 189 751 q 153 310 153 429 q 184 145 153 205 q 259 62 215 85 q 380 39 304 39 q 602 148 525 39 q 699 437 679 257 l 703 476 q 723 688 715 603 q 737 884 730 772 l 811 884 q 757 440 781 667 q 636 99 734 212 q 366 -14 538 -14 m 610 1017 l 322 1017 l 338 1072 l 628 1072 l 610 1017 z "},"ū":{"ha":720,"x_min":93,"x_max":636,"o":"m 600 3 l 530 -9 q 528 170 528 32 l 526 170 q 420 30 481 77 q 272 -18 360 -18 q 93 183 93 -18 q 100 304 93 206 q 107 404 107 402 q 119 644 119 565 l 187 659 q 179 566 187 648 q 170 463 171 484 l 161 351 q 155 262 157 297 q 153 200 153 227 q 182 72 153 110 q 292 35 212 35 q 462 151 384 35 q 549 383 540 268 l 553 441 q 566 644 566 577 l 636 657 q 599 337 609 444 q 589 155 589 230 q 600 3 589 74 m 511 817 l 257 817 l 270 876 l 524 876 l 511 817 z "},"Ŭ":{"ha":860,"x_min":86,"x_max":811,"o":"m 366 -14 q 160 65 233 -14 q 86 304 86 144 q 96 451 86 365 q 134 884 106 538 l 207 884 q 171 590 189 751 q 153 310 153 429 q 184 145 153 205 q 259 62 215 85 q 380 39 304 39 q 602 148 525 39 q 699 437 679 257 l 703 476 q 723 688 715 603 q 737 884 730 772 l 811 884 q 757 440 781 667 q 636 99 734 212 q 366 -14 538 -14 m 311 1118 l 355 1146 q 400 1075 372 1098 q 471 1051 429 1051 q 544 1075 509 1051 q 611 1146 578 1098 l 650 1118 q 568 1020 613 1053 q 468 987 524 987 q 369 1021 408 987 q 311 1118 330 1054 z "},"ŭ":{"ha":720,"x_min":93,"x_max":636,"o":"m 600 3 l 530 -9 q 528 170 528 32 l 526 170 q 420 30 481 77 q 272 -18 360 -18 q 93 183 93 -18 q 100 304 93 206 q 107 404 107 402 q 119 644 119 565 l 187 659 q 179 566 187 648 q 170 463 171 484 l 161 351 q 155 262 157 297 q 153 200 153 227 q 182 72 153 110 q 292 35 212 35 q 462 151 384 35 q 549 383 540 268 l 553 441 q 566 644 566 577 l 636 657 q 599 337 609 444 q 589 155 589 230 q 600 3 589 74 m 239 876 l 276 913 q 321 841 290 864 q 399 818 352 818 q 480 841 443 818 q 550 913 518 864 l 575 876 q 495 785 541 816 q 393 754 449 754 q 239 876 277 754 z "},"Ů":{"ha":860,"x_min":86,"x_max":811,"o":"m 366 -14 q 160 65 233 -14 q 86 304 86 144 q 96 451 86 365 q 134 884 106 538 l 207 884 q 171 590 189 751 q 153 310 153 429 q 184 145 153 205 q 259 62 215 85 q 380 39 304 39 q 602 148 525 39 q 699 437 679 257 l 703 476 q 723 688 715 603 q 737 884 730 772 l 811 884 q 757 440 781 667 q 636 99 734 212 q 366 -14 538 -14 m 458 924 q 372 956 407 924 q 336 1046 336 989 q 376 1146 336 1107 q 479 1185 416 1185 q 564 1155 530 1185 q 597 1063 597 1125 q 553 960 597 996 q 458 924 509 924 m 386 1051 q 408 988 386 1008 q 463 968 431 968 q 526 994 501 968 q 550 1061 550 1019 q 528 1122 550 1103 q 473 1141 506 1141 q 412 1115 437 1141 q 386 1051 386 1089 z "},"ů":{"ha":720,"x_min":93,"x_max":636,"o":"m 600 3 l 530 -9 q 528 170 528 32 l 526 170 q 420 30 481 77 q 272 -18 360 -18 q 93 183 93 -18 q 100 304 93 206 q 107 404 107 402 q 119 644 119 565 l 187 659 q 179 566 187 648 q 170 463 171 484 l 161 351 q 155 262 157 297 q 153 200 153 227 q 182 72 153 110 q 292 35 212 35 q 462 151 384 35 q 549 383 540 268 l 553 441 q 566 644 566 577 l 636 657 q 599 337 609 444 q 589 155 589 230 q 600 3 589 74 m 375 729 q 287 763 320 729 q 253 851 253 796 q 294 952 253 912 q 396 991 335 991 q 477 962 440 991 q 514 868 514 932 q 469 764 514 800 q 375 729 423 729 m 300 856 q 323 793 300 813 q 380 772 347 772 q 441 796 415 772 q 468 865 468 819 q 446 929 468 909 q 391 949 423 949 q 327 922 353 949 q 300 856 300 895 z "},"Ű":{"ha":860,"x_min":86,"x_max":811,"o":"m 366 -14 q 160 65 233 -14 q 86 304 86 144 q 96 451 86 365 q 134 884 106 538 l 207 884 q 171 590 189 751 q 153 310 153 429 q 184 145 153 205 q 259 62 215 85 q 380 39 304 39 q 602 148 525 39 q 699 437 679 257 l 703 476 q 723 688 715 603 q 737 884 730 772 l 811 884 q 757 440 781 667 q 636 99 734 212 q 366 -14 538 -14 m 416 1051 q 350 960 367 977 l 304 960 l 304 961 q 310 985 304 967 q 328 1034 316 1004 l 334 1051 q 368 1146 356 1110 l 471 1146 q 461 1124 471 1140 q 429 1070 452 1107 l 416 1051 m 595 960 l 550 960 q 585 1049 558 969 q 612 1146 612 1128 l 718 1146 q 667 1056 713 1126 q 595 960 621 986 z "},"ű":{"ha":720,"x_min":93,"x_max":672,"o":"m 600 3 l 530 -9 q 528 170 528 32 l 526 170 q 420 30 481 77 q 272 -18 360 -18 q 93 183 93 -18 q 100 304 93 206 q 107 404 107 402 q 119 644 119 565 l 187 659 q 179 566 187 648 q 170 463 171 484 l 161 351 q 155 262 157 297 q 153 200 153 227 q 182 72 153 110 q 292 35 212 35 q 462 151 384 35 q 549 383 540 268 l 553 441 q 566 644 566 577 l 636 657 q 599 337 609 444 q 589 155 589 230 q 600 3 589 74 m 285 736 l 249 736 q 284 849 252 753 q 317 956 317 946 l 427 956 q 356 845 425 940 q 285 736 288 751 m 534 736 l 534 736 l 496 736 q 530 847 496 743 q 566 956 564 951 l 672 956 l 672 955 q 603 844 672 938 q 534 736 534 750 z "},"Ų":{"ha":860,"x_min":86,"x_max":811,"o":"m 811 884 q 782 661 795 770 q 758 441 768 551 q 718 245 747 330 q 641 104 688 161 q 536 22 594 47 q 427 -70 479 -3 q 375 -203 375 -137 q 393 -255 375 -233 q 436 -277 411 -277 q 469 -274 455 -277 q 497 -262 482 -272 l 504 -315 q 416 -329 463 -329 q 350 -296 378 -329 q 321 -205 321 -262 q 347 -101 321 -152 q 424 -16 374 -51 l 424 -11 q 366 -14 387 -14 q 160 65 233 -14 q 86 304 86 144 q 96 451 86 365 q 134 884 106 538 l 207 884 q 171 590 189 751 q 153 310 153 429 q 184 145 153 205 q 259 62 215 85 q 380 39 304 39 q 602 148 525 39 q 699 437 679 257 l 703 476 q 723 688 715 603 q 737 884 730 772 l 811 884 z "},"ų":{"ha":720,"x_min":93,"x_max":636,"o":"m 479 -277 q 512 -273 494 -277 q 541 -262 530 -269 l 547 -315 q 464 -329 506 -329 q 392 -301 420 -329 q 364 -218 364 -273 q 411 -105 364 -159 q 530 -9 458 -51 q 528 170 528 32 l 526 170 q 420 30 481 77 q 272 -18 360 -18 q 93 183 93 -18 q 100 304 93 206 q 107 404 107 402 q 119 644 119 565 l 187 659 q 179 566 187 648 q 170 463 171 484 l 161 351 q 155 262 157 297 q 153 200 153 227 q 182 72 153 110 q 292 35 212 35 q 462 151 384 35 q 549 383 540 268 l 553 441 q 566 644 566 577 l 636 657 q 599 337 609 444 q 589 155 589 230 q 600 3 589 74 q 455 -117 492 -69 q 418 -214 418 -164 q 435 -259 418 -242 q 479 -277 453 -277 z "},"Ÿ":{"ha":703,"x_min":58,"x_max":742,"o":"m 354 232 l 353 212 q 338 0 345 123 l 262 0 l 265 22 q 292 228 286 170 q 298 307 298 286 q 233 543 298 414 q 113 765 168 672 q 58 884 58 858 l 135 884 q 242 660 135 868 q 349 395 349 452 l 354 395 q 391 484 354 420 q 511 660 429 547 l 532 689 q 634 830 601 783 q 667 884 667 877 l 742 884 q 600 683 742 861 q 411 426 458 506 q 354 232 363 346 m 255 1039 q 309 1104 255 1104 q 354 1055 354 1104 q 340 1008 354 1025 q 300 991 327 991 q 266 1004 277 991 q 255 1039 255 1017 m 488 1039 q 543 1104 488 1104 q 587 1055 587 1104 q 574 1008 587 1025 q 533 991 560 991 q 499 1004 510 991 q 488 1039 488 1017 z "},"Ź":{"ha":665,"x_min":22,"x_max":632,"o":"m 231 245 q 144 118 178 170 q 109 60 111 66 l 109 53 q 567 64 322 53 l 558 0 l 22 0 l 29 57 q 329 484 172 244 l 404 595 q 512 760 480 711 q 545 823 543 810 l 545 828 l 445 828 q 119 821 241 828 l 125 884 l 632 884 l 625 823 q 463 587 595 781 l 231 245 m 361 960 l 314 960 q 386 1054 314 970 q 458 1146 458 1138 l 561 1146 q 539 1121 561 1142 q 458 1054 517 1101 q 361 960 361 970 z "},"ź":{"ha":582,"x_min":26,"x_max":530,"o":"m 104 52 l 104 47 q 493 58 345 47 l 479 0 l 26 0 l 32 54 q 101 142 83 117 q 282 366 119 168 q 446 589 446 565 l 446 591 q 86 586 230 591 l 97 644 l 530 644 l 517 590 q 256 254 408 432 q 104 52 104 77 m 306 736 l 262 736 q 331 845 262 747 q 399 956 399 943 l 506 956 q 406 848 506 949 q 306 736 306 747 z "},"Ż":{"ha":665,"x_min":22,"x_max":632,"o":"m 231 245 q 144 118 178 170 q 109 60 111 66 l 109 53 q 567 64 322 53 l 558 0 l 22 0 l 29 57 q 329 484 172 244 l 404 595 q 512 760 480 711 q 545 823 543 810 l 545 828 l 445 828 q 119 821 241 828 l 125 884 l 632 884 l 625 823 q 463 587 595 781 l 231 245 m 353 1057 q 407 1122 353 1122 q 440 1110 429 1122 q 452 1074 452 1097 q 438 1026 452 1043 q 397 1010 425 1010 q 363 1023 374 1010 q 353 1057 353 1036 z "},"ż":{"ha":582,"x_min":26,"x_max":530,"o":"m 104 52 l 104 47 q 493 58 345 47 l 479 0 l 26 0 l 32 54 q 101 142 83 117 q 282 366 119 168 q 446 589 446 565 l 446 591 q 86 586 230 591 l 97 644 l 530 644 l 517 590 q 256 254 408 432 q 104 52 104 77 m 277 835 q 332 900 277 900 q 365 887 354 900 q 376 851 376 875 q 363 804 376 821 q 322 787 349 787 q 288 800 299 787 q 277 835 277 813 z "},"Ž":{"ha":665,"x_min":22,"x_max":632,"o":"m 231 245 q 144 118 178 170 q 109 60 111 66 l 109 53 q 567 64 322 53 l 558 0 l 22 0 l 29 57 q 329 484 172 244 l 404 595 q 512 760 480 711 q 545 823 543 810 l 545 828 l 445 828 q 119 821 241 828 l 125 884 l 632 884 l 625 823 q 463 587 595 781 l 231 245 m 423 960 l 329 960 q 278 1050 328 968 q 228 1146 228 1131 l 267 1146 q 382 1010 267 1137 q 530 1146 530 1136 l 570 1146 l 570 1145 q 499 1054 570 1137 q 423 960 427 972 z "},"ž":{"ha":582,"x_min":26,"x_max":530,"o":"m 104 52 l 104 47 q 493 58 345 47 l 479 0 l 26 0 l 32 54 q 101 142 83 117 q 282 366 119 168 q 446 589 446 565 l 446 591 q 86 586 230 591 l 97 644 l 530 644 l 517 590 q 256 254 408 432 q 104 52 104 77 m 370 736 l 277 736 q 250 793 276 740 l 222 847 l 203 890 q 174 956 174 951 l 215 956 q 329 794 215 947 q 436 906 396 862 q 479 956 476 950 l 517 956 l 517 955 q 445 846 517 945 q 370 736 373 747 z "},"Ɓ":{"ha":811,"x_min":46,"x_max":734,"o":"m 335 -4 q 143 0 304 -4 q 180 317 153 66 l 197 465 q 232 832 224 710 l 195 832 q 118 807 140 832 q 96 732 96 783 q 98 701 96 721 q 102 675 100 681 l 53 665 q 48 699 51 675 q 46 732 46 722 q 86 845 46 806 q 207 884 126 884 l 309 884 q 392 886 334 884 q 486 888 450 888 q 657 839 595 888 q 720 700 720 790 q 675 561 720 618 q 553 485 631 505 l 553 481 q 684 412 634 465 q 734 288 734 359 q 629 76 734 156 q 335 -4 524 -4 m 262 507 q 316 506 282 507 l 359 505 q 590 549 523 505 q 657 692 657 593 q 472 835 657 835 q 370 833 406 835 q 300 827 334 832 q 291 758 300 822 q 262 507 282 694 m 419 454 q 322 454 360 454 q 256 450 285 453 q 218 58 231 225 q 355 50 277 50 q 584 111 496 50 q 671 277 671 171 q 604 406 671 358 q 419 454 537 454 z "},"Ɔ":{"ha":677,"x_min":5,"x_max":618,"o":"m 551 484 q 468 746 551 651 q 239 840 385 840 q 139 830 187 840 q 40 801 90 820 l 51 868 q 247 896 165 896 q 519 788 420 896 q 618 493 618 680 q 480 129 618 275 q 139 -18 342 -18 q 5 1 64 -18 l 29 65 q 90 48 59 54 q 147 43 121 43 q 437 170 323 43 q 551 484 551 298 z "},"Ɖ":{"ha":793,"x_min":-7,"x_max":739,"o":"m 271 -11 q 210 -8 248 -11 q 153 -5 171 -6 l 65 0 q 79 112 71 33 l 114 419 q -7 411 47 417 l 9 479 q 121 475 52 475 q 145 713 137 623 q 154 884 153 803 l 216 884 q 282 886 247 884 q 347 888 317 888 q 632 782 526 888 q 739 498 739 676 q 605 136 739 282 q 271 -11 470 -11 m 353 833 q 214 827 264 833 q 180 475 205 722 q 446 489 309 477 l 436 421 l 175 421 q 144 89 167 337 l 142 54 q 268 43 195 43 q 560 170 446 43 q 673 490 673 297 q 583 739 673 645 q 353 833 492 833 z "},"Ɗ":{"ha":872,"x_min":46,"x_max":818,"o":"m 350 -11 q 289 -8 328 -11 q 231 -5 250 -6 q 144 0 227 -5 q 163 153 149 28 q 199 465 177 278 l 202 497 q 222 690 215 614 q 232 832 229 765 l 195 832 q 118 807 140 832 q 96 732 96 783 q 98 701 96 721 q 102 675 100 681 l 53 665 q 48 699 51 675 q 46 732 46 722 q 86 845 46 806 q 207 884 126 884 l 296 884 q 361 886 326 884 q 427 888 396 888 q 711 782 605 888 q 818 498 818 676 q 684 136 818 283 q 350 -11 549 -11 m 432 833 q 293 827 344 833 q 263 504 288 755 q 228 134 238 252 l 221 54 q 347 43 274 43 q 639 170 526 43 q 753 490 753 297 q 662 739 753 645 q 432 833 572 833 z "},"Ǝ":{"ha":644,"x_min":29,"x_max":579,"o":"m 449 278 l 463 393 q 147 385 249 393 l 155 450 q 290 446 203 448 q 468 444 377 444 q 485 625 473 506 q 503 831 497 743 q 71 820 280 831 l 83 884 l 579 884 q 561 736 572 842 l 525 418 q 488 0 498 191 l 29 0 l 40 63 q 422 56 210 56 l 449 278 z "},"Ə":{"ha":733,"x_min":11,"x_max":682,"o":"m 682 501 q 619 215 682 332 q 458 41 555 98 q 261 -16 361 -16 q 76 49 140 -16 q 11 208 11 113 q 68 373 11 312 q 248 461 126 433 q 615 489 370 489 l 615 497 q 534 747 615 654 q 302 840 453 840 q 190 830 240 840 q 85 802 140 819 l 98 863 q 188 885 129 873 q 311 896 246 896 q 577 793 471 896 q 682 501 682 690 m 74 205 q 116 87 74 136 q 262 37 157 37 q 422 82 344 37 q 554 218 501 127 q 614 437 608 309 q 294 416 406 437 q 128 347 182 395 q 74 205 74 298 z "},"Ɛ":{"ha":661,"x_min":32,"x_max":633,"o":"m 96 210 q 151 75 96 125 q 311 25 207 25 q 472 42 404 25 q 619 97 541 59 l 608 28 q 472 -13 551 1 q 311 -28 394 -28 q 109 31 186 -28 q 32 211 32 89 q 85 373 32 308 q 244 468 138 438 l 243 472 q 155 548 185 498 q 125 659 125 597 q 212 837 125 772 q 410 903 298 903 q 536 893 478 903 q 633 872 595 884 l 615 800 q 419 850 513 850 q 246 798 306 850 q 186 665 186 745 q 238 537 186 578 q 396 497 291 497 q 476 498 436 497 q 528 500 517 499 l 504 441 q 428 446 465 446 q 181 387 266 446 q 96 210 96 328 z "},"Ƒ":{"ha":606,"x_min":-132,"x_max":623,"o":"m -132 -314 l -119 -257 q -86 -262 -105 -260 q -54 -264 -66 -264 q 47 -162 36 -264 q 102 319 59 -61 q 155 884 145 699 l 623 884 l 611 821 q 221 828 458 828 q 205 690 220 798 l 195 604 q 179 468 186 538 q 479 476 349 468 l 472 411 q 172 418 338 418 l 115 -155 q 63 -281 107 -239 q -50 -322 20 -322 q -132 -314 -90 -322 z "},"ƒ":{"ha":700,"x_min":18,"x_max":656,"o":"m 636 844 q 576 857 607 857 q 512 839 542 857 q 457 783 482 821 q 389 541 429 739 q 570 543 445 541 l 566 492 q 380 494 468 494 q 270 -61 292 17 q 196 -209 248 -138 q 29 -319 144 -279 l 18 -272 q 122 -207 86 -243 q 189 -105 159 -171 q 255 138 218 -39 q 321 494 292 315 q 256 493 284 493 l 192 492 l 195 543 q 328 541 267 541 q 433 843 368 777 q 579 909 499 909 q 616 907 600 909 q 656 897 631 904 l 636 844 z "},"Ɣ":{"ha":747,"x_min":46,"x_max":815,"o":"m 375 104 q 433 -62 414 1 q 452 -161 452 -124 q 408 -292 452 -245 q 296 -338 364 -338 q 204 -300 237 -338 q 171 -204 171 -262 q 206 -65 171 -140 q 309 110 241 9 q 157 506 268 217 q 46 884 46 795 l 114 884 q 232 484 114 792 l 319 252 l 335 212 l 351 167 q 616 601 486 378 q 746 884 746 825 l 815 884 q 621 503 815 812 q 375 104 427 193 m 332 47 q 256 -79 285 -19 q 227 -200 227 -138 q 247 -267 227 -242 q 296 -292 267 -292 q 389 -161 389 -292 q 375 -81 389 -130 q 332 47 361 -32 z "},"Ƙ":{"ha":736,"x_min":64,"x_max":754,"o":"m 513 709 q 364 558 404 597 q 289 496 324 519 l 289 490 q 394 414 346 477 q 522 237 443 351 l 532 222 q 617 99 557 184 q 676 0 676 14 l 599 0 q 485 188 599 17 q 327 406 372 358 q 221 454 282 454 l 176 454 q 155 248 164 351 q 138 -1 146 144 l 64 0 q 113 414 75 77 q 155 884 150 751 l 229 884 q 182 505 212 765 l 216 505 q 306 576 233 505 q 475 747 378 647 l 543 815 q 612 874 587 859 q 668 889 638 889 q 754 857 714 889 l 720 810 q 695 822 707 818 q 668 827 684 827 q 606 803 631 827 q 550 747 580 779 l 541 737 l 513 709 z "},"ƙ":{"ha":665,"x_min":82,"x_max":650,"o":"m 160 180 l 163 180 q 237 300 180 227 q 374 450 294 374 l 442 517 q 538 613 510 584 q 566 652 566 642 l 650 650 q 571 559 650 631 q 386 399 492 488 l 387 393 q 524 165 473 283 q 575 0 575 47 l 509 -7 q 468 145 509 37 q 351 354 427 252 q 295 294 320 321 q 253 244 271 267 q 146 0 152 105 l 82 -7 q 133 425 98 82 q 168 788 168 768 l 168 787 q 222 928 178 883 q 334 974 267 974 q 387 970 364 974 q 435 961 410 967 l 415 905 q 376 913 393 910 q 335 916 358 916 q 230 791 243 916 q 189 429 216 667 l 160 180 z "},"Ơ":{"ha":943,"x_min":56,"x_max":981,"o":"m 803 671 q 829 505 829 589 q 774 242 829 364 q 618 46 720 119 q 386 -28 517 -28 q 149 83 241 -28 q 56 364 56 195 q 181 742 56 587 q 498 897 307 897 q 671 848 596 897 q 787 710 746 798 q 865 755 836 730 q 893 812 893 779 q 870 833 893 817 q 847 878 847 848 q 864 927 847 907 q 920 946 882 946 q 965 928 950 946 q 981 880 981 909 q 940 763 981 810 q 803 671 899 715 m 476 843 q 221 699 321 843 q 121 364 121 554 q 197 120 121 213 q 401 28 273 28 q 662 171 559 28 q 764 505 764 314 q 687 752 764 662 q 476 843 610 843 z "},"ơ":{"ha":815,"x_min":71,"x_max":833,"o":"m 656 441 q 660 382 660 413 q 563 93 660 212 q 319 -26 467 -26 q 140 60 210 -26 q 71 282 71 147 q 166 556 71 439 q 410 673 262 673 q 560 622 497 673 q 647 482 623 570 l 659 492 q 721 547 701 527 q 746 582 741 566 q 714 607 727 589 q 701 647 701 625 q 720 708 701 686 q 772 730 739 730 q 818 712 802 730 q 833 665 833 694 q 798 563 833 610 q 656 441 762 516 m 396 621 q 208 523 283 621 q 134 288 134 425 q 186 98 134 169 q 330 26 238 26 q 519 126 441 26 q 597 366 597 227 q 546 554 597 487 q 396 621 495 621 z "},"Ư":{"ha":978,"x_min":86,"x_max":1021,"o":"m 781 652 l 755 425 q 639 103 734 220 q 366 -14 544 -14 q 160 65 233 -14 q 86 304 86 144 q 96 451 86 365 q 134 884 106 538 l 207 884 q 171 590 189 751 q 153 310 153 429 q 184 145 153 205 q 259 62 215 85 q 380 39 304 39 q 602 148 525 39 q 699 437 679 257 l 703 476 q 723 688 715 603 q 737 884 730 772 l 811 884 q 802 819 806 852 q 793 755 798 787 q 789 726 791 739 l 786 701 q 897 754 860 725 q 935 811 935 784 q 911 833 935 819 q 888 878 888 847 q 905 926 888 905 q 960 946 923 946 q 1005 927 990 946 q 1021 879 1021 909 q 964 751 1021 806 q 781 652 908 696 z "},"ư":{"ha":720,"x_min":93,"x_max":842,"o":"m 610 435 q 594 272 599 336 q 589 155 589 207 q 600 3 589 74 l 530 -9 q 528 170 528 32 l 526 170 q 420 30 481 77 q 272 -18 360 -18 q 93 183 93 -18 q 100 304 93 206 q 107 404 107 402 q 119 644 119 565 l 187 659 q 179 566 187 648 q 170 463 171 484 l 161 351 q 155 262 157 297 q 153 200 153 227 q 182 72 153 110 q 292 35 212 35 q 462 151 384 35 q 549 383 540 268 l 553 441 q 566 644 566 577 l 636 657 q 614 481 625 564 q 711 534 674 507 q 754 582 748 561 q 723 607 736 589 q 710 647 710 625 q 728 708 710 686 q 781 730 747 730 q 826 712 810 730 q 842 665 842 694 q 786 539 842 593 q 610 435 730 485 z "},"Ʋ":{"ha":893,"x_min":118,"x_max":815,"o":"m 815 629 q 744 295 815 444 q 563 62 673 146 q 342 -21 452 -21 q 171 34 224 -21 q 118 210 118 89 q 140 513 118 256 q 170 884 163 769 l 243 884 q 201 512 216 682 q 186 264 186 342 q 198 114 186 151 q 242 55 210 77 q 343 32 275 32 q 538 112 442 32 q 696 326 635 191 q 757 618 757 461 q 714 785 757 729 q 579 842 671 842 q 509 832 553 842 l 507 890 q 583 897 546 897 q 760 824 705 897 q 815 629 815 751 z "},"Ƴ":{"ha":745,"x_min":58,"x_max":828,"o":"m 794 829 q 730 850 769 850 q 673 821 706 850 q 476 528 640 793 l 437 467 q 380 355 399 406 q 354 232 360 304 l 353 212 q 338 0 345 123 l 262 0 l 265 22 q 292 228 286 170 q 298 307 298 286 q 233 543 298 414 q 113 765 168 672 q 58 884 58 858 l 135 884 q 242 660 135 868 q 349 395 349 452 l 354 395 q 375 457 354 415 q 466 612 397 499 l 492 654 q 612 842 567 777 q 737 907 658 907 q 786 900 760 907 q 828 884 812 894 l 794 829 z "},"ƴ":{"ha":610,"x_min":7,"x_max":728,"o":"m 728 884 l 694 829 q 631 850 669 850 q 558 767 582 850 q 486 536 534 685 q 384 223 438 387 q 296 -57 330 60 q 193 -237 263 -174 q 7 -300 123 -300 l 7 -245 q 143 -201 84 -245 q 227 -100 201 -157 q 252 12 252 -43 q 162 342 252 104 q 72 644 72 581 l 142 652 q 155 575 142 623 q 209 399 168 527 l 224 353 q 275 182 260 237 q 289 102 289 127 l 296 102 q 397 443 325 203 q 507 794 470 682 q 637 907 543 907 q 686 900 660 907 q 728 884 711 894 z "},"Ʒ":{"ha":686,"x_min":25,"x_max":632,"o":"m 625 823 q 466 693 547 762 q 285 534 385 624 l 286 534 q 519 479 425 534 q 614 281 614 425 q 519 65 614 150 q 281 -20 424 -20 q 25 24 121 -20 l 45 90 q 166 50 104 62 q 285 37 227 37 q 476 101 400 37 q 553 262 553 164 q 490 427 553 375 q 275 478 427 478 q 225 477 248 478 q 186 475 202 477 l 205 534 q 539 823 398 712 l 539 828 l 438 828 q 106 821 227 828 l 111 884 l 632 884 l 625 823 z "},"ǝ":{"ha":656,"x_min":49,"x_max":587,"o":"m 587 380 q 486 98 587 212 q 233 -16 386 -16 q 101 24 153 -16 q 49 131 49 64 q 168 279 49 234 q 524 332 287 325 q 472 555 524 490 q 302 621 420 621 q 103 549 214 621 l 115 612 q 318 674 195 674 q 515 594 444 674 q 587 380 587 515 m 111 125 q 148 61 111 87 q 238 35 185 35 q 416 106 336 35 q 514 283 496 178 q 214 242 316 280 q 111 125 111 205 z "},"Ș":{"ha":657,"x_min":26,"x_max":574,"o":"m 163 673 q 193 575 163 614 q 341 485 224 535 q 509 376 458 434 q 559 232 559 317 q 228 -20 559 -20 q 123 -13 180 -20 q 26 7 66 -5 l 49 72 q 133 44 81 56 q 241 33 185 33 l 248 33 q 431 84 367 36 q 494 215 494 133 q 462 332 494 286 q 309 431 429 378 q 143 535 189 484 q 98 659 98 587 q 176 831 98 768 q 395 895 254 895 q 574 876 511 895 l 550 811 q 354 843 467 843 q 218 795 273 843 q 163 673 163 747 m 277 -214 q 236 -199 252 -214 q 220 -160 220 -185 q 238 -120 220 -134 q 285 -106 256 -106 q 321 -120 306 -106 q 336 -160 336 -135 q 305 -252 336 -201 q 240 -330 275 -302 l 219 -319 q 260 -259 243 -293 q 277 -214 277 -226 z "},"ș":{"ha":541,"x_min":33,"x_max":488,"o":"m 147 505 q 177 433 147 458 q 300 365 208 408 q 427 285 392 321 q 461 193 461 248 q 400 44 461 99 q 233 -11 339 -11 q 33 16 130 -11 l 50 77 q 138 51 96 59 q 239 43 180 43 q 360 76 319 43 q 401 170 401 109 q 372 254 401 229 q 256 319 343 280 q 128 393 168 357 q 87 492 87 429 q 150 614 87 565 q 313 664 212 664 q 488 643 408 664 l 464 586 q 309 610 381 610 q 190 581 233 610 q 147 505 147 553 m 219 -214 q 178 -199 193 -214 q 162 -160 162 -185 q 180 -120 162 -134 q 227 -106 198 -106 q 262 -120 248 -106 q 277 -160 277 -135 q 247 -252 277 -201 q 182 -330 216 -302 l 161 -319 q 202 -259 184 -293 q 219 -214 219 -226 z "},"Ț":{"ha":685,"x_min":74,"x_max":707,"o":"m 551 826 q 422 828 486 828 l 418 795 q 378 465 391 586 l 372 410 q 352 194 360 286 q 339 0 345 103 l 265 0 q 311 378 274 57 q 353 828 347 700 q 74 821 264 828 l 81 884 l 707 884 l 696 821 q 629 823 651 822 l 551 826 m 286 -214 q 245 -199 260 -214 q 229 -160 229 -185 q 247 -120 229 -134 q 294 -106 265 -106 q 330 -120 315 -106 q 345 -160 345 -135 q 314 -252 345 -201 q 249 -330 283 -302 l 228 -319 q 269 -259 252 -293 q 286 -214 286 -226 z "},"ț":{"ha":493,"x_min":68,"x_max":460,"o":"m 151 170 q 161 306 151 212 q 193 578 171 400 q 68 574 155 578 l 77 631 q 159 628 109 628 l 203 628 l 231 825 l 292 829 l 287 801 q 258 628 271 713 q 458 635 353 628 l 452 574 q 249 578 326 578 q 231 414 249 576 q 212 191 212 252 q 232 67 212 96 q 304 39 252 39 q 380 53 342 39 q 460 97 418 68 l 449 33 q 302 -14 371 -14 q 185 33 219 -14 q 151 170 151 79 m 222 -214 q 180 -199 196 -214 q 165 -160 165 -185 q 183 -120 165 -134 q 229 -106 201 -106 q 265 -120 250 -106 q 280 -160 280 -135 q 250 -252 280 -201 q 184 -330 219 -302 l 163 -319 q 204 -259 187 -293 q 222 -214 222 -226 z "},"ɓ":{"ha":746,"x_min":85,"x_max":679,"o":"m 200 482 q 458 665 301 665 q 619 592 559 665 q 679 404 679 518 q 586 98 679 214 q 329 -17 492 -17 q 227 -4 274 -17 q 151 28 179 9 l 147 28 l 132 0 l 85 -7 q 124 323 100 100 q 160 684 148 545 l 170 787 q 227 925 179 877 q 347 974 275 974 q 457 961 407 974 l 437 905 q 349 916 393 916 q 269 883 301 916 q 229 785 236 850 l 210 595 l 197 482 l 200 482 m 616 385 q 577 556 616 502 q 446 611 538 611 q 267 502 348 611 q 174 261 186 392 l 155 78 q 235 45 191 56 q 315 33 280 33 q 536 129 455 33 q 616 385 616 225 z "},"ɔ":{"ha":585,"x_min":33,"x_max":513,"o":"m 450 346 q 400 534 450 463 q 254 604 351 604 q 162 589 205 604 q 61 533 119 573 l 73 602 q 261 657 150 657 q 445 576 378 657 q 513 359 513 495 q 410 90 513 197 q 146 -17 308 -17 q 80 -15 106 -17 q 33 -5 54 -12 l 56 65 q 124 48 96 54 q 186 43 153 43 q 372 134 294 43 q 450 346 450 224 z "},"ɖ":{"ha":742,"x_min":66,"x_max":713,"o":"m 545 178 q 434 35 500 83 q 286 -12 368 -12 q 128 64 189 -12 q 66 254 66 140 q 158 556 66 444 q 415 668 250 668 q 509 656 464 668 q 586 624 555 644 l 589 624 q 602 764 597 686 q 614 956 608 842 l 682 958 q 642 592 669 847 q 600 174 615 338 l 583 -3 q 574 -106 578 -55 q 570 -186 570 -157 q 584 -246 570 -227 q 633 -265 599 -265 q 677 -261 657 -265 q 704 -256 697 -257 l 713 -310 q 667 -319 686 -316 q 624 -322 649 -322 q 538 -288 568 -322 q 507 -187 507 -254 q 520 -56 507 -149 l 526 -4 q 538 101 530 35 l 547 178 l 545 178 m 129 277 q 306 40 129 40 q 475 149 399 40 q 564 389 551 257 l 583 568 q 504 602 551 589 q 415 615 457 615 q 205 525 281 615 q 129 277 129 434 z "},"ɗ":{"ha":742,"x_min":66,"x_max":844,"o":"m 631 484 q 606 256 612 332 q 601 142 601 180 q 612 0 601 79 l 557 -9 q 548 56 549 16 q 546 176 546 97 l 545 178 q 434 35 500 83 q 286 -12 368 -12 q 128 64 189 -12 q 66 254 66 140 q 158 556 66 444 q 415 668 250 668 q 509 656 464 668 q 586 624 555 644 l 589 624 q 607 807 591 640 q 755 974 623 974 q 844 961 794 974 l 825 905 q 797 912 816 908 q 757 916 779 916 q 674 847 688 916 q 647 646 660 778 l 633 507 l 631 484 m 129 277 q 306 40 129 40 q 475 149 399 40 q 564 389 551 257 l 583 568 q 504 602 551 589 q 415 615 457 615 q 205 525 281 615 q 129 277 129 434 z "},"ə":{"ha":656,"x_min":47,"x_max":585,"o":"m 585 380 q 485 98 585 212 q 232 -16 385 -16 q 99 24 151 -16 q 47 131 47 64 q 166 279 47 234 q 522 332 286 325 q 471 555 522 490 q 300 621 419 621 q 102 549 212 621 l 114 612 q 317 674 193 674 q 514 594 442 674 q 585 380 585 515 m 110 125 q 147 61 110 87 q 237 35 184 35 q 415 106 335 35 q 513 283 495 178 q 212 242 315 280 q 110 125 110 205 z "},"ɛ":{"ha":610,"x_min":66,"x_max":568,"o":"m 171 482 q 225 395 171 428 q 372 363 279 363 q 476 368 417 363 l 454 302 q 366 311 408 311 q 189 274 250 311 q 127 167 127 237 q 173 65 127 96 q 311 33 218 33 q 409 45 364 33 q 534 87 454 57 l 524 29 q 420 -5 482 9 q 293 -18 358 -18 q 124 28 182 -18 q 66 157 66 74 q 111 277 66 229 q 225 340 156 325 l 227 345 q 141 393 173 361 q 110 469 110 424 q 191 617 110 568 q 400 665 272 665 q 568 648 490 665 l 551 587 q 372 614 471 614 q 225 578 279 614 q 171 482 171 542 z "},"ɣ":{"ha":640,"x_min":61,"x_max":612,"o":"m 301 100 l 309 73 q 351 -74 338 -20 q 364 -171 364 -127 q 322 -281 364 -238 q 218 -325 281 -325 q 121 -290 149 -325 q 93 -191 93 -256 q 129 -67 93 -136 q 237 109 165 2 q 182 263 219 168 l 154 338 q 61 644 61 587 l 132 652 q 210 368 132 587 l 222 332 q 282 160 265 210 l 295 178 q 386 310 365 277 q 473 468 406 342 q 539 644 539 593 l 612 652 q 533 466 612 605 q 424 277 454 327 q 301 100 393 228 m 257 49 q 178 -84 208 -22 q 149 -191 149 -147 q 163 -254 149 -234 q 210 -273 178 -273 q 277 -246 252 -273 q 301 -151 301 -219 q 257 49 301 -100 z "},"ʃ":{"ha":302,"x_min":-193,"x_max":467,"o":"m -193 -304 l -178 -250 q -96 -261 -130 -261 q 90 -12 73 -261 q 115 338 108 238 l 135 650 q 176 850 148 781 q 257 947 205 920 q 404 974 309 974 q 467 964 427 974 l 452 909 q 374 921 407 921 q 241 857 279 921 q 194 675 203 793 q 173 328 184 558 l 154 9 q 77 -240 137 -166 q -126 -314 18 -314 q -193 -304 -153 -314 z "},"ʋ":{"ha":644,"x_min":61,"x_max":586,"o":"m 359 597 l 342 646 q 441 665 389 665 q 548 610 509 665 q 586 443 586 555 q 495 111 586 244 q 271 -22 404 -22 q 120 27 168 -22 q 72 182 72 77 q 90 327 72 226 q 107 471 107 429 q 61 632 107 573 l 121 659 q 155 585 144 620 q 165 492 165 550 q 147 326 165 415 q 129 176 129 237 q 161 65 129 100 q 267 29 194 29 q 459 145 385 29 q 533 443 533 262 q 509 570 533 528 q 428 611 484 611 q 359 597 395 611 z "},"ʒ":{"ha":534,"x_min":-32,"x_max":503,"o":"m 184 262 q 375 194 311 262 q 440 5 440 125 q 361 -228 440 -134 q 154 -322 283 -322 q 52 -314 96 -322 q -29 -288 7 -306 l -32 -218 q 54 -258 9 -246 q 149 -269 98 -269 q 319 -198 261 -269 q 378 4 378 -127 q 321 166 378 114 q 165 218 264 218 q 94 215 121 218 l 107 254 q 325 481 231 381 q 418 589 418 581 l 418 591 q 58 586 203 591 l 69 644 l 503 644 l 489 590 q 370 456 476 570 q 178 262 263 342 l 184 262 z "},"ʻ":{"ha":350,"x_min":118,"x_max":313,"o":"m 297 916 q 203 811 222 846 q 175 742 183 777 q 226 720 210 736 q 243 672 243 703 q 223 621 243 640 q 176 603 203 603 q 134 622 150 603 q 118 672 118 640 q 163 817 118 745 q 300 960 208 888 l 313 930 l 297 916 z "},"ʼ":{"ha":350,"x_min":118,"x_max":313,"o":"m 132 661 q 228 767 208 731 q 256 838 248 802 q 204 860 221 843 q 187 907 187 877 q 208 958 187 940 q 254 977 228 977 q 297 958 281 977 q 313 907 313 939 q 268 763 313 834 q 131 619 222 692 l 118 648 l 132 661 z "},"ˆ":{"ha":530,"x_min":103,"x_max":446,"o":"m 289 900 q 140 736 144 748 l 103 736 l 103 736 q 172 844 103 749 l 226 920 q 250 956 248 951 l 342 956 q 399 835 353 925 q 446 736 446 745 l 404 736 q 289 900 404 747 z "},"ˇ":{"ha":530,"x_min":111,"x_max":454,"o":"m 307 736 l 215 736 q 187 793 214 740 l 160 847 l 140 890 q 111 956 111 951 l 153 956 q 267 794 153 947 q 374 906 334 862 q 416 956 414 950 l 454 956 l 454 955 q 382 846 454 945 q 307 736 311 747 z "},"ˉ":{"ha":339,"x_min":65,"x_max":332,"o":"m 319 817 l 65 817 l 78 876 l 332 876 l 319 817 z "},"˘":{"ha":530,"x_min":144,"x_max":481,"o":"m 144 876 l 182 913 q 227 841 196 864 q 304 818 258 818 q 386 841 349 818 q 456 913 424 864 l 481 876 q 401 785 447 816 q 298 754 355 754 q 144 876 182 754 z "},"˙":{"ha":357,"x_min":180,"x_max":279,"o":"m 180 835 q 235 900 180 900 q 268 887 257 900 q 279 851 279 875 q 266 804 279 821 q 225 787 252 787 q 191 800 202 787 q 180 835 180 813 z "},"˛":{"ha":318,"x_min":37,"x_max":221,"o":"m 153 -277 q 185 -274 172 -277 q 214 -262 199 -272 l 221 -315 q 134 -329 180 -329 q 66 -295 95 -329 q 37 -205 37 -262 q 74 -84 37 -142 q 176 7 110 -26 l 191 7 q 119 -94 147 -37 q 92 -203 92 -151 q 110 -255 92 -233 q 153 -277 127 -277 z "},"˜":{"ha":600,"x_min":118,"x_max":581,"o":"m 315 815 q 291 820 311 815 q 257 825 271 825 q 139 732 204 825 l 118 745 q 201 852 161 819 q 285 886 241 886 q 372 872 332 886 q 443 857 412 857 q 561 920 499 857 l 581 904 q 499 818 538 844 q 412 793 459 793 q 356 804 393 793 q 315 815 319 815 z "},"˝":{"ha":599,"x_min":110,"x_max":533,"o":"m 146 736 l 110 736 q 145 849 113 753 q 178 956 178 946 l 288 956 q 217 845 286 940 q 146 736 149 751 m 395 736 l 395 736 l 357 736 q 391 847 357 743 q 427 956 425 951 l 533 956 l 533 955 q 464 844 533 938 q 395 736 395 750 z "},"̀":{"ha":0,"x_min":-437,"x_max":-244,"o":"m -437 956 l -337 956 q -306 880 -337 947 q -259 778 -275 813 q -244 736 -244 743 l -289 736 q -315 780 -289 743 q -362 846 -340 817 q -410 913 -383 876 q -437 956 -437 951 z "},"́":{"ha":0,"x_min":-340,"x_max":-97,"o":"m -297 736 l -340 736 q -272 845 -340 747 q -204 956 -204 943 l -97 956 q -197 848 -97 949 q -297 736 -297 747 z "},"̃":{"ha":0,"x_min":-497,"x_max":-35,"o":"m -300 815 q -324 820 -304 815 q -358 825 -344 825 q -476 732 -411 825 l -497 745 q -414 852 -454 819 q -330 886 -374 886 q -243 872 -283 886 q -172 857 -203 857 q -54 920 -116 857 l -35 904 q -116 818 -77 844 q -203 793 -156 793 q -259 804 -222 793 q -300 815 -296 815 z "},"̉":{"ha":0,"x_min":-290,"x_max":-100,"o":"m -290 932 l -278 968 q -250 968 -268 968 q -138 948 -177 968 q -100 879 -100 927 q -137 806 -100 831 q -240 762 -175 781 l -245 720 l -279 718 l -278 793 q -189 826 -215 806 q -163 879 -163 846 q -195 918 -163 905 q -290 932 -227 932 z "},"̣":{"ha":0,"x_min":-254,"x_max":-149,"o":"m -254 -139 q -238 -94 -254 -114 q -193 -74 -222 -74 q -149 -122 -149 -74 q -165 -170 -149 -150 q -210 -191 -182 -191 q -254 -139 -254 -191 z "},"ʹ":{"ha":197,"x_min":0,"x_max":197,"o":"m 49 736 l 0 736 q 48 840 0 739 q 96 955 96 942 l 96 956 l 197 956 l 197 955 q 179 920 197 947 q 121 842 161 893 q 49 736 49 744 z "},"͵":{"ha":197,"x_min":0,"x_max":197,"o":"m 197 -68 l 179 -108 l 150 -170 q 102 -288 102 -272 l 0 -288 q 75 -172 0 -272 l 85 -158 q 122 -109 96 -145 q 149 -68 149 -72 l 197 -68 z "},"΄":{"ha":380,"x_min":111,"x_max":371,"o":"m 154 757 l 111 757 q 194 896 115 783 q 275 1023 273 1008 l 371 1023 q 262 892 367 1010 q 154 757 158 774 z "},"΅":{"ha":567,"x_min":121,"x_max":496,"o":"m 334 919 q 303 882 327 910 q 279 850 280 854 l 244 850 q 311 964 250 863 l 325 987 l 355 1037 q 381 1080 362 1048 q 401 1118 401 1112 l 496 1118 q 471 1081 496 1111 q 404 1000 446 1050 l 334 919 m 121 831 q 175 896 121 896 q 209 883 197 896 q 220 847 220 871 q 206 800 220 817 q 165 783 193 783 q 132 796 142 783 q 121 831 121 809 m 334 831 q 387 896 334 896 q 421 883 410 896 q 432 847 432 871 q 418 800 432 817 q 378 783 405 783 q 334 831 334 783 z "},"Ά":{"ha":962,"x_min":100,"x_max":888,"o":"m 325 315 q 292 252 314 292 l 257 186 q 206 76 229 131 q 179 0 183 20 l 100 0 q 254 296 106 16 q 468 721 401 576 q 539 884 536 865 l 627 884 q 757 435 627 846 q 888 0 888 25 l 812 0 q 728 315 812 16 l 325 315 m 578 825 q 523 706 576 817 q 353 368 470 595 l 717 368 q 583 825 583 797 l 578 825 m 154 757 l 111 757 q 194 896 115 783 q 275 1023 273 1008 l 371 1023 q 262 892 367 1010 q 154 757 158 774 z "},"Έ":{"ha":885,"x_min":111,"x_max":854,"o":"m 434 606 l 420 490 q 736 498 634 490 l 728 433 q 593 438 680 436 q 415 440 506 440 q 398 259 410 378 q 380 53 386 140 q 812 64 603 53 l 800 0 l 304 0 q 323 149 311 41 l 337 280 l 358 465 q 395 884 385 693 l 854 884 l 843 821 q 461 828 673 828 l 434 606 m 154 757 l 111 757 q 194 896 115 783 q 275 1023 273 1008 l 371 1023 q 262 892 367 1010 q 154 757 158 774 z "},"Ή":{"ha":1039,"x_min":111,"x_max":974,"o":"m 974 884 q 926 500 956 758 q 882 0 896 243 l 808 0 q 831 182 816 47 q 860 441 847 317 l 422 441 q 401 224 409 319 q 385 0 393 129 l 311 0 q 360 414 323 77 q 403 884 397 751 l 477 884 q 428 494 453 721 l 865 494 q 888 716 880 626 q 901 884 897 806 l 974 884 m 154 757 l 111 757 q 194 896 115 783 q 275 1023 273 1008 l 371 1023 q 262 892 367 1010 q 154 757 158 774 z "},"Ί":{"ha":528,"x_min":111,"x_max":463,"o":"m 371 0 l 297 0 q 346 412 308 79 q 389 884 383 745 l 463 884 q 411 471 438 708 q 371 0 385 234 m 154 757 l 111 757 q 194 896 115 783 q 275 1023 273 1008 l 371 1023 q 262 892 367 1010 q 154 757 158 774 z "},"Ό":{"ha":1083,"x_min":111,"x_max":1025,"o":"m 252 364 q 377 742 252 587 q 694 897 503 897 q 933 788 841 897 q 1025 505 1025 679 q 970 242 1025 364 q 814 46 916 119 q 582 -28 713 -28 q 345 83 437 -28 q 252 364 252 195 m 317 364 q 393 120 317 213 q 597 28 469 28 q 858 171 755 28 q 960 505 960 314 q 883 752 960 662 q 672 843 806 843 q 417 699 517 843 q 317 364 317 554 m 154 757 l 111 757 q 194 896 115 783 q 275 1023 273 1008 l 371 1023 q 262 892 367 1010 q 154 757 158 774 z "},"Ύ":{"ha":987,"x_min":111,"x_max":1027,"o":"m 639 232 l 637 212 q 623 0 629 123 l 547 0 l 550 22 q 577 228 570 170 q 583 307 583 286 q 518 543 583 414 q 398 765 453 672 q 343 884 343 858 l 420 884 q 527 660 420 868 q 633 395 633 452 l 639 395 q 676 484 639 420 q 796 660 713 547 l 817 689 q 919 830 886 783 q 951 884 951 877 l 1027 884 q 885 683 1027 861 q 696 426 743 506 q 639 232 648 346 m 154 757 l 111 757 q 194 896 115 783 q 275 1023 273 1008 l 371 1023 q 262 892 367 1010 q 154 757 158 774 z "},"Ώ":{"ha":1120,"x_min":111,"x_max":1061,"o":"m 704 0 q 814 186 714 79 q 955 367 915 292 q 996 538 996 441 q 912 769 996 688 q 703 851 829 851 q 469 739 566 851 q 372 469 372 626 q 406 296 372 370 q 492 168 440 222 q 557 79 544 113 q 571 0 571 46 l 225 0 q 227 34 225 17 q 229 66 229 50 q 366 56 288 60 q 497 52 443 52 l 497 62 q 430 157 497 81 q 334 303 362 233 q 306 454 306 374 q 424 778 306 652 q 726 904 542 904 q 966 802 870 904 q 1061 547 1061 701 q 1025 376 1061 455 q 888 190 989 296 q 783 61 787 83 l 782 53 q 1054 66 927 53 l 1036 0 l 704 0 m 154 757 l 111 757 q 194 896 115 783 q 275 1023 273 1008 l 371 1023 q 262 892 367 1010 q 154 757 158 774 z "},"ΐ":{"ha":382,"x_min":37,"x_max":412,"o":"m 97 143 q 106 267 97 184 q 140 536 115 350 l 155 648 l 215 660 q 168 314 182 430 q 154 146 154 197 q 169 65 154 90 q 225 40 184 40 q 282 50 258 40 q 340 79 307 59 l 328 26 q 283 -1 313 12 q 224 -14 252 -14 q 127 20 157 -14 q 97 143 97 54 m 251 919 q 220 882 243 910 q 196 850 197 854 l 161 850 q 227 964 166 863 l 241 987 l 272 1037 q 298 1080 279 1048 q 318 1118 317 1112 l 412 1118 q 388 1081 412 1111 q 320 1000 363 1050 l 251 919 m 37 831 q 92 896 37 896 q 125 883 114 896 q 136 847 136 871 q 123 800 136 817 q 82 783 109 783 q 48 796 59 783 q 37 831 37 809 m 250 831 q 304 896 250 896 q 337 883 326 896 q 349 847 349 871 q 335 800 349 817 q 294 783 321 783 q 250 831 250 783 z "},"Α":{"ha":844,"x_min":-18,"x_max":770,"o":"m 207 315 q 174 252 196 292 l 139 186 q 88 76 111 131 q 61 0 65 20 l -18 0 q 136 296 -12 16 q 350 721 283 576 q 421 884 418 865 l 509 884 q 639 435 509 846 q 770 0 770 25 l 694 0 q 610 315 694 16 l 207 315 m 460 825 q 405 706 458 817 q 235 368 352 595 l 599 368 q 465 825 465 797 l 460 825 z "},"Β":{"ha":730,"x_min":62,"x_max":654,"o":"m 406 888 q 577 839 515 888 q 639 700 639 790 q 594 561 639 618 q 472 485 550 505 l 472 481 q 604 412 553 465 q 654 288 654 359 q 549 76 654 156 q 254 -4 444 -4 q 62 0 223 -4 q 100 317 72 66 l 117 465 q 154 884 146 720 l 228 884 q 312 886 254 884 q 406 888 370 888 m 182 507 q 236 506 202 507 l 279 505 q 509 549 442 505 q 576 692 576 593 q 392 835 576 835 q 290 833 326 835 q 220 827 254 832 q 210 758 220 823 q 182 507 201 692 m 138 58 q 275 50 196 50 q 503 110 416 50 q 590 277 590 170 q 523 406 590 358 q 339 454 456 454 q 242 454 280 454 q 175 450 204 453 q 138 58 147 189 z "},"Γ":{"ha":599,"x_min":64,"x_max":623,"o":"m 221 828 q 213 746 220 800 l 204 676 q 165 351 178 479 q 141 48 152 223 l 138 0 l 64 0 q 83 149 71 41 l 97 280 l 118 465 q 155 884 145 693 l 623 884 l 611 821 q 221 828 458 828 z "},"Δ":{"ha":807,"x_min":-28,"x_max":729,"o":"m 399 884 l 485 884 q 607 438 485 866 q 729 0 729 9 l -28 0 q 185 434 -28 24 q 399 884 397 844 m 441 825 l 436 825 q 402 741 435 812 q 281 496 370 670 l 201 343 q 99 145 125 199 q 60 54 72 90 l 644 54 q 533 490 625 180 q 441 825 441 800 z "},"Ε":{"ha":644,"x_min":64,"x_max":614,"o":"m 194 606 l 180 490 q 496 498 394 490 l 488 433 q 353 438 440 436 q 175 440 266 440 q 158 259 170 378 q 140 53 146 140 q 572 64 363 53 l 559 0 l 64 0 q 83 149 71 41 l 97 280 l 118 465 q 155 884 145 693 l 614 884 l 603 821 q 221 828 433 828 l 194 606 z "},"Ζ":{"ha":665,"x_min":22,"x_max":632,"o":"m 231 245 q 144 118 178 170 q 109 60 111 66 l 109 53 q 567 64 322 53 l 558 0 l 22 0 l 29 57 q 329 484 172 244 l 404 595 q 512 760 480 711 q 545 823 543 810 l 545 828 l 445 828 q 119 821 241 828 l 125 884 l 632 884 l 625 823 q 463 587 595 781 l 231 245 z "},"Η":{"ha":791,"x_min":64,"x_max":726,"o":"m 726 884 q 679 500 709 758 q 635 0 648 243 l 561 0 q 584 182 568 47 q 612 441 600 317 l 175 441 q 153 224 161 319 q 138 0 145 129 l 64 0 q 113 414 75 77 q 155 884 150 751 l 229 884 q 180 494 205 721 l 618 494 q 641 716 632 626 q 653 884 649 806 l 726 884 z "},"Θ":{"ha":888,"x_min":56,"x_max":829,"o":"m 56 364 q 181 742 56 587 q 498 897 307 897 q 737 788 645 897 q 829 505 829 679 q 774 242 829 364 q 618 46 720 119 q 386 -28 517 -28 q 149 83 241 -28 q 56 364 56 195 m 121 364 q 197 120 121 213 q 401 28 273 28 q 662 171 559 28 q 764 505 764 314 q 687 752 764 662 q 476 843 610 843 q 221 699 321 843 q 121 364 121 554 m 296 424 l 306 489 q 453 482 403 482 q 596 489 508 482 l 587 424 q 443 428 538 428 q 296 424 351 428 z "},"Ι":{"ha":292,"x_min":62,"x_max":228,"o":"m 136 0 l 62 0 q 111 412 73 79 q 154 884 149 745 l 228 884 q 177 471 203 708 q 136 0 150 234 z "},"Κ":{"ha":736,"x_min":64,"x_max":693,"o":"m 532 222 q 617 99 557 184 q 676 0 676 14 l 599 0 q 485 188 599 17 q 327 406 372 358 q 221 454 282 454 l 176 454 q 155 248 164 351 q 138 -1 146 144 l 64 0 q 113 414 75 77 q 155 884 150 751 l 229 884 q 182 505 212 765 l 203 505 q 424 683 232 505 q 615 884 615 861 l 693 884 q 528 707 693 869 q 289 496 362 546 l 289 490 q 394 414 346 477 q 522 237 443 351 l 532 222 z "},"Λ":{"ha":807,"x_min":-28,"x_max":729,"o":"m 729 0 l 654 0 q 548 422 654 45 q 441 825 441 799 l 436 825 q 242 421 432 791 q 52 0 52 50 l -28 0 q 186 438 -28 24 q 400 884 400 852 l 481 884 l 520 747 q 633 360 538 684 q 729 0 729 36 z "},"Μ":{"ha":1046,"x_min":39,"x_max":935,"o":"m 478 100 l 482 100 q 513 192 486 130 q 629 437 540 254 l 659 497 q 788 776 750 688 q 825 884 825 863 l 935 884 q 917 375 917 696 q 926 0 917 97 l 850 0 q 854 444 850 245 q 871 831 859 642 l 867 831 q 655 368 804 666 q 498 0 506 71 l 436 0 q 416 149 436 41 q 357 427 397 257 l 292 694 l 278 754 l 274 779 q 264 831 266 826 l 257 831 q 175 363 241 693 l 137 168 q 106 0 106 11 l 39 0 q 68 133 39 10 q 148 515 98 255 q 208 884 199 775 l 318 884 q 398 509 318 830 q 478 100 478 187 z "},"Ν":{"ha":803,"x_min":54,"x_max":749,"o":"m 616 97 l 623 97 q 620 145 620 112 q 639 391 620 223 q 686 884 658 558 l 749 884 q 730 722 745 853 l 700 465 l 690 367 q 656 0 664 134 l 602 0 q 427 357 602 41 q 200 821 253 674 l 192 821 q 193 810 192 818 q 192 789 193 798 l 191 755 q 160 459 189 718 q 117 0 132 201 l 54 0 q 83 249 61 49 l 109 465 q 146 884 139 734 l 232 884 q 280 768 232 873 q 456 431 328 664 q 616 97 585 197 z "},"Ξ":{"ha":713,"x_min":11,"x_max":697,"o":"m 121 821 l 132 884 l 697 884 l 688 821 q 399 828 583 828 q 121 821 213 828 m 291 436 q 168 433 208 436 l 175 496 q 271 490 224 491 q 385 489 317 489 q 568 496 502 489 l 561 433 q 378 436 513 436 l 291 436 m 21 64 q 343 56 131 56 q 629 64 529 56 l 619 0 l 11 0 l 21 64 z "},"Ο":{"ha":888,"x_min":56,"x_max":829,"o":"m 56 364 q 181 742 56 587 q 498 897 307 897 q 737 788 645 897 q 829 505 829 679 q 774 242 829 364 q 618 46 720 119 q 386 -28 517 -28 q 149 83 241 -28 q 56 364 56 195 m 121 364 q 197 120 121 213 q 401 28 273 28 q 662 171 559 28 q 764 505 764 314 q 687 752 764 662 q 476 843 610 843 q 221 699 321 843 q 121 364 121 554 z "},"Π":{"ha":794,"x_min":64,"x_max":730,"o":"m 671 399 q 637 0 645 147 l 564 0 q 591 228 569 34 q 633 624 614 422 l 654 831 l 222 831 q 213 753 222 816 l 201 660 q 165 343 189 574 q 139 0 142 113 l 64 0 q 118 473 77 104 l 122 507 q 143 703 135 619 q 154 884 151 786 l 730 884 q 679 473 706 713 l 671 399 z "},"Ρ":{"ha":693,"x_min":64,"x_max":664,"o":"m 399 888 q 590 829 516 888 q 664 675 664 771 q 562 456 664 535 q 261 378 460 378 l 195 378 q 168 379 183 378 q 138 0 146 165 l 64 0 q 107 370 69 41 q 155 884 146 699 l 232 884 q 343 886 270 884 l 399 888 m 602 657 q 546 792 602 750 q 359 835 490 835 q 284 833 311 835 q 220 827 257 832 l 172 432 q 267 431 191 431 q 519 491 437 431 q 602 657 602 552 z "},"Σ":{"ha":705,"x_min":-17,"x_max":690,"o":"m 201 823 q 270 724 201 805 q 472 492 339 642 q 262 256 420 433 q 102 61 104 79 l 100 54 q 643 66 416 54 l 632 0 l -17 0 q 56 100 -14 18 q 260 334 126 182 l 395 486 l 395 490 q 157 777 218 694 q 96 884 96 860 l 690 884 l 682 821 q 200 828 378 828 l 201 823 z "},"Τ":{"ha":685,"x_min":74,"x_max":707,"o":"m 551 826 q 422 828 486 828 l 418 795 q 378 465 391 586 l 372 410 q 352 194 360 286 q 339 0 345 103 l 265 0 q 311 378 274 57 q 353 828 347 700 q 74 821 264 828 l 81 884 l 707 884 l 696 821 q 629 823 651 822 l 551 826 z "},"Υ":{"ha":703,"x_min":58,"x_max":742,"o":"m 354 232 l 353 212 q 338 0 345 123 l 262 0 l 265 22 q 292 228 286 170 q 298 307 298 286 q 233 543 298 414 q 113 765 168 672 q 58 884 58 858 l 135 884 q 242 660 135 868 q 349 395 349 452 l 354 395 q 391 484 354 420 q 511 660 429 547 l 532 689 q 634 830 601 783 q 667 884 667 877 l 742 884 q 600 683 742 861 q 411 426 458 506 q 354 232 363 346 z "},"Φ":{"ha":878,"x_min":29,"x_max":850,"o":"m 435 53 l 433 30 q 429 -28 429 -5 l 355 -28 l 359 -1 q 367 54 361 21 q 123 161 218 64 q 29 403 29 258 q 146 714 29 589 q 449 857 264 840 l 450 877 q 450 903 450 894 l 450 909 l 525 909 l 518 854 q 759 746 668 848 q 850 496 850 644 q 733 190 850 307 q 435 53 617 73 m 421 557 q 444 807 438 722 q 198 685 300 795 q 96 431 96 576 q 170 203 96 292 q 370 106 243 115 q 387 230 375 136 q 412 465 398 324 l 421 557 m 791 493 q 714 708 791 619 q 510 804 636 798 q 489 617 509 784 q 452 245 469 450 l 439 106 q 693 231 594 116 q 791 493 791 345 z "},"Χ":{"ha":766,"x_min":-28,"x_max":742,"o":"m 685 0 l 602 0 q 566 108 602 24 q 437 340 531 193 l 377 432 l 366 449 l 349 429 q 183 214 231 289 q 95 78 136 138 q 54 0 54 18 l -28 0 q 111 213 -28 27 q 336 496 250 399 q 269 600 305 543 q 208 697 232 657 q 109 884 109 863 l 192 884 q 217 815 192 870 q 269 715 242 760 l 385 539 q 466 628 429 587 q 545 722 503 669 l 562 744 q 636 840 610 804 q 663 884 663 875 l 742 884 q 645 754 742 862 q 497 585 547 646 q 416 492 447 524 q 622 148 559 270 q 685 0 685 25 z "},"Ψ":{"ha":899,"x_min":62,"x_max":892,"o":"m 892 857 q 874 801 888 857 q 847 657 860 744 q 803 502 835 571 q 710 386 771 432 q 463 304 597 304 l 452 304 q 428 0 437 160 l 354 0 q 390 304 369 106 q 142 380 218 307 q 66 576 66 454 q 69 656 66 602 q 72 739 72 709 q 62 857 72 795 l 122 878 q 126 845 125 870 q 127 786 127 820 q 127 730 127 751 l 129 603 q 188 419 132 476 q 396 353 243 361 l 408 465 q 433 707 424 612 q 446 884 442 802 l 519 884 q 468 465 492 682 l 456 353 q 676 422 599 360 q 789 656 753 484 l 806 742 q 825 834 817 804 q 840 878 832 863 l 892 857 z "},"Ω":{"ha":888,"x_min":-7,"x_max":829,"o":"m 472 0 q 583 186 482 79 q 723 367 683 292 q 764 538 764 441 q 681 769 764 688 q 471 851 597 851 q 237 739 334 851 q 140 469 140 626 q 174 296 140 370 q 260 168 208 222 q 326 79 312 113 q 339 0 339 46 l -7 0 q -5 34 -7 17 q -3 66 -3 50 q 134 56 56 60 q 265 52 211 52 l 265 62 q 198 157 265 81 q 102 303 130 233 q 74 454 74 374 q 192 778 74 652 q 494 904 310 904 q 734 802 638 904 q 829 547 829 701 q 793 376 829 455 q 656 190 757 296 q 551 61 555 83 l 550 53 q 822 66 695 53 l 804 0 l 472 0 z "},"Ϊ":{"ha":292,"x_min":41,"x_max":374,"o":"m 136 0 l 62 0 q 111 412 73 79 q 154 884 149 745 l 228 884 q 177 471 203 708 q 136 0 150 234 m 41 1039 q 96 1104 41 1104 q 140 1055 140 1104 q 127 1008 140 1025 q 86 991 113 991 q 52 1004 63 991 q 41 1039 41 1017 m 275 1039 q 329 1104 275 1104 q 374 1055 374 1104 q 360 1008 374 1025 q 319 991 347 991 q 286 1004 296 991 q 275 1039 275 1017 z "},"Ϋ":{"ha":703,"x_min":58,"x_max":742,"o":"m 354 232 l 353 212 q 338 0 345 123 l 262 0 l 265 22 q 292 228 286 170 q 298 307 298 286 q 233 543 298 414 q 113 765 168 672 q 58 884 58 858 l 135 884 q 242 660 135 868 q 349 395 349 452 l 354 395 q 391 484 354 420 q 511 660 429 547 l 532 689 q 634 830 601 783 q 667 884 667 877 l 742 884 q 600 683 742 861 q 411 426 458 506 q 354 232 363 346 m 255 1039 q 309 1104 255 1104 q 354 1055 354 1104 q 340 1008 354 1025 q 300 991 327 991 q 266 1004 277 991 q 255 1039 255 1017 m 488 1039 q 543 1104 488 1104 q 587 1055 587 1104 q 574 1008 587 1025 q 533 991 560 991 q 499 1004 510 991 q 488 1039 488 1017 z "},"ά":{"ha":799,"x_min":78,"x_max":715,"o":"m 478 195 l 475 195 q 365 33 427 94 q 229 -29 304 -29 q 117 38 157 -29 q 78 233 78 104 q 150 548 78 432 q 340 664 222 664 q 451 612 412 664 q 511 371 489 561 l 517 371 q 593 528 551 425 q 635 659 635 631 l 704 648 q 642 491 704 623 q 521 277 579 359 q 562 90 539 143 q 615 37 585 37 q 657 48 633 37 q 715 82 682 59 l 710 35 q 665 -1 692 11 q 603 -14 637 -14 q 546 6 566 -14 q 506 87 526 26 q 478 195 486 148 m 322 612 q 191 508 242 612 q 139 240 139 403 q 162 75 139 127 q 241 22 186 22 q 359 98 300 22 q 472 307 418 174 q 450 454 463 388 q 414 566 436 519 q 322 612 391 612 m 376 757 l 334 757 q 416 896 338 783 q 498 1023 495 1008 l 593 1023 q 485 892 589 1010 q 376 757 380 774 z "},"έ":{"ha":610,"x_min":66,"x_max":568,"o":"m 171 482 q 225 395 171 428 q 372 363 279 363 q 476 368 417 363 l 454 302 q 366 311 408 311 q 189 274 250 311 q 127 167 127 237 q 173 65 127 96 q 311 33 218 33 q 409 45 364 33 q 534 87 454 57 l 524 29 q 420 -5 482 9 q 293 -18 358 -18 q 124 28 182 -18 q 66 157 66 74 q 111 277 66 229 q 225 340 156 325 l 227 345 q 141 393 173 361 q 110 469 110 424 q 191 617 110 568 q 400 665 272 665 q 568 648 490 665 l 551 587 q 372 614 471 614 q 225 578 279 614 q 171 482 171 542 m 349 757 l 306 757 q 389 896 310 783 q 470 1023 467 1008 l 566 1023 q 457 892 562 1010 q 349 757 353 774 z "},"ή":{"ha":713,"x_min":85,"x_max":618,"o":"m 192 496 q 440 665 285 665 q 618 484 618 665 q 584 213 618 423 q 550 -292 550 3 l 488 -301 q 500 -33 488 -200 q 535 274 513 135 q 557 471 557 412 q 527 582 557 551 q 431 614 496 614 q 287 549 350 614 q 201 408 224 484 q 150 -3 178 332 l 85 3 q 120 241 108 145 q 132 400 132 337 q 124 527 132 475 q 92 618 117 578 l 144 660 q 186 496 186 589 l 192 496 m 390 757 l 347 757 q 430 896 351 783 q 511 1023 509 1008 l 607 1023 q 498 892 603 1010 q 390 757 394 774 z "},"ί":{"ha":382,"x_min":97,"x_max":412,"o":"m 97 143 q 106 267 97 184 q 140 536 115 350 l 155 648 l 215 660 q 168 314 182 430 q 154 146 154 197 q 169 65 154 90 q 225 40 184 40 q 282 50 258 40 q 340 79 307 59 l 328 26 q 283 -1 313 12 q 224 -14 252 -14 q 127 20 157 -14 q 97 143 97 54 m 195 757 l 153 757 q 235 896 157 783 q 317 1023 314 1008 l 412 1023 q 304 892 408 1010 q 195 757 199 774 z "},"ΰ":{"ha":653,"x_min":61,"x_max":586,"o":"m 129 176 q 161 65 129 100 q 267 29 194 29 q 452 135 379 29 q 525 416 525 240 q 517 529 525 467 q 494 653 509 592 l 541 660 q 573 552 561 614 q 586 443 586 490 q 495 111 586 244 q 271 -22 404 -22 q 120 27 168 -22 q 72 182 72 77 q 90 327 72 226 q 107 471 107 429 q 61 632 107 573 l 121 659 q 155 585 144 620 q 165 492 165 550 q 147 326 165 415 q 129 176 129 237 m 373 919 q 342 882 366 910 q 318 850 319 854 l 283 850 q 349 964 288 863 l 363 987 l 394 1037 q 420 1080 401 1048 q 440 1118 439 1112 l 534 1118 q 510 1081 534 1111 q 442 1000 485 1050 l 373 919 m 159 831 q 214 896 159 896 q 247 883 236 896 q 258 847 258 871 q 245 800 258 817 q 204 783 231 783 q 170 796 181 783 q 159 831 159 809 m 372 831 q 426 896 372 896 q 459 883 448 896 q 471 847 471 871 q 457 800 471 817 q 416 783 444 783 q 372 831 372 783 z "},"α":{"ha":799,"x_min":78,"x_max":715,"o":"m 478 195 l 475 195 q 365 33 427 94 q 229 -29 304 -29 q 117 38 157 -29 q 78 233 78 104 q 150 548 78 432 q 340 664 222 664 q 451 612 412 664 q 511 371 489 561 l 517 371 q 593 528 551 425 q 635 659 635 631 l 704 648 q 642 491 704 623 q 521 277 579 359 q 562 90 539 143 q 615 37 585 37 q 657 48 633 37 q 715 82 682 59 l 710 35 q 665 -1 692 11 q 603 -14 637 -14 q 546 6 566 -14 q 506 87 526 26 q 478 195 486 148 m 322 612 q 191 508 242 612 q 139 240 139 403 q 162 75 139 127 q 241 22 186 22 q 359 98 300 22 q 472 307 418 174 q 450 454 463 388 q 414 566 436 519 q 322 612 391 612 z "},"β":{"ha":707,"x_min":78,"x_max":660,"o":"m 494 600 l 493 595 q 602 494 566 555 q 637 340 637 432 q 545 90 637 195 q 315 -16 452 -16 q 134 68 189 -16 q 78 325 78 152 q 184 788 78 603 q 469 972 290 972 q 606 923 551 972 q 660 799 660 874 q 605 671 660 726 q 494 600 549 616 m 597 807 q 559 889 597 858 q 463 921 521 921 q 264 809 347 921 q 157 562 182 697 q 350 594 260 567 q 519 672 441 621 q 597 807 597 722 m 326 37 q 502 127 429 37 q 575 343 575 218 q 540 475 575 416 q 440 564 505 533 q 290 525 363 539 q 164 511 217 511 l 150 511 q 140 355 140 452 q 158 158 140 220 q 216 67 176 96 q 326 37 256 37 z "},"γ":{"ha":636,"x_min":33,"x_max":585,"o":"m 400 178 l 368 127 q 313 34 330 68 q 283 -31 296 1 q 274 -172 283 -97 q 250 -301 264 -248 l 207 -315 q 197 -265 200 -288 q 195 -216 195 -242 l 195 -204 q 233 1 199 -85 q 182 321 233 166 q 33 616 131 477 l 81 659 q 157 546 108 637 q 240 331 206 454 q 282 77 275 208 l 286 77 q 328 144 305 106 l 361 199 l 397 262 q 503 480 481 405 q 525 650 525 556 l 578 659 q 585 554 585 634 q 549 435 585 515 q 400 178 513 355 z "},"δ":{"ha":705,"x_min":71,"x_max":696,"o":"m 257 868 q 342 744 257 823 q 495 595 428 665 q 598 447 562 524 q 635 297 635 370 q 546 62 635 154 q 319 -29 457 -29 q 139 42 208 -29 q 71 231 71 114 q 79 332 71 283 q 112 426 88 380 q 188 523 136 473 q 286 594 240 574 l 366 631 l 367 636 q 250 751 296 698 q 204 854 204 804 q 252 951 204 920 q 395 983 299 983 q 696 904 550 983 l 672 846 q 517 911 592 890 q 366 932 443 932 q 286 913 315 932 q 257 868 257 895 m 406 595 q 194 444 254 525 q 134 249 134 363 q 186 83 134 144 q 334 22 239 22 q 507 98 442 22 q 572 292 572 174 q 527 448 572 371 q 406 595 482 526 z "},"ε":{"ha":610,"x_min":66,"x_max":568,"o":"m 171 482 q 225 395 171 428 q 372 363 279 363 q 476 368 417 363 l 454 302 q 366 311 408 311 q 189 274 250 311 q 127 167 127 237 q 173 65 127 96 q 311 33 218 33 q 409 45 364 33 q 534 87 454 57 l 524 29 q 420 -5 482 9 q 293 -18 358 -18 q 124 28 182 -18 q 66 157 66 74 q 111 277 66 229 q 225 340 156 325 l 227 345 q 141 393 173 361 q 110 469 110 424 q 191 617 110 568 q 400 665 272 665 q 568 648 490 665 l 551 587 q 372 614 471 614 q 225 578 279 614 q 171 482 171 542 z "},"ζ":{"ha":532,"x_min":71,"x_max":582,"o":"m 313 58 l 330 54 l 385 41 q 465 2 433 29 q 497 -71 497 -25 q 428 -249 497 -142 l 392 -236 q 427 -142 417 -175 q 437 -83 437 -110 q 313 3 437 -18 q 130 81 189 24 q 71 249 71 138 q 192 620 71 432 q 473 897 313 807 l 475 903 q 215 888 387 888 l 229 940 q 567 970 438 940 l 582 942 l 400 791 q 201 523 269 660 q 134 249 134 387 q 153 153 134 189 q 204 96 173 117 q 313 58 236 75 z "},"η":{"ha":713,"x_min":85,"x_max":618,"o":"m 192 496 q 440 665 285 665 q 618 484 618 665 q 584 213 618 423 q 550 -292 550 3 l 488 -301 q 500 -33 488 -200 q 535 274 513 135 q 557 471 557 412 q 527 582 557 551 q 431 614 496 614 q 287 549 350 614 q 201 408 224 484 q 150 -3 178 332 l 85 3 q 120 241 108 145 q 132 400 132 337 q 124 527 132 475 q 92 618 117 578 l 144 660 q 186 496 186 589 l 192 496 z "},"θ":{"ha":736,"x_min":43,"x_max":665,"o":"m 296 28 q 509 149 422 28 q 607 468 596 270 q 489 444 545 452 q 372 436 433 436 q 166 500 236 436 q 97 694 97 565 q 174 890 97 812 q 383 968 252 968 q 591 852 517 968 q 665 542 665 737 q 564 141 665 305 q 286 -24 463 -24 q 144 28 198 -24 q 88 175 90 79 q 43 364 85 270 l 72 386 q 124 300 105 359 q 146 167 142 241 q 186 60 149 93 q 296 28 224 28 m 364 916 q 213 856 268 916 q 158 696 158 797 q 211 536 158 585 q 374 488 263 488 q 607 513 488 488 l 607 525 q 548 818 607 720 q 364 916 488 916 z "},"ι":{"ha":382,"x_min":97,"x_max":340,"o":"m 97 143 q 106 267 97 184 q 140 536 115 350 l 155 648 l 215 660 q 168 314 182 430 q 154 146 154 197 q 169 65 154 90 q 225 40 184 40 q 282 50 258 40 q 340 79 307 59 l 328 26 q 283 -1 313 12 q 224 -14 252 -14 q 127 20 157 -14 q 97 143 97 54 z "},"κ":{"ha":771,"x_min":56,"x_max":722,"o":"m 452 164 q 472 313 452 240 q 514 428 492 387 l 510 436 q 440 352 506 427 q 300 200 374 277 l 264 163 q 142 32 177 70 q 104 -16 106 -7 l 56 12 l 102 79 q 197 267 160 165 q 233 472 233 370 q 214 577 233 545 q 164 610 194 610 q 85 581 121 610 l 96 635 q 175 665 128 665 q 260 618 228 665 q 292 482 292 572 q 212 187 292 344 l 215 180 q 315 292 238 205 q 437 431 391 379 l 530 532 q 607 617 581 587 q 635 659 634 648 l 686 631 q 632 548 683 602 q 545 398 582 494 q 509 168 509 302 q 531 74 509 105 q 595 43 553 43 q 656 52 627 43 q 722 83 686 62 l 705 28 q 587 -14 656 -14 q 484 31 516 -14 q 452 164 452 75 z "},"λ":{"ha":607,"x_min":-7,"x_max":562,"o":"m 357 536 l 353 536 q 207 274 348 490 q 61 -7 65 58 l -7 7 q 39 109 -3 31 q 163 310 81 186 l 289 506 q 355 610 347 595 q 346 796 355 747 q 319 874 336 846 q 241 903 302 903 q 192 892 218 903 q 154 869 165 881 l 160 930 q 268 960 214 960 q 380 897 348 960 q 412 661 412 834 q 420 371 412 479 q 461 170 428 262 q 562 22 494 78 l 515 -20 q 397 178 437 41 q 357 536 357 314 z "},"μ":{"ha":771,"x_min":54,"x_max":725,"o":"m 514 157 l 513 157 q 410 24 472 71 q 279 -22 347 -22 q 186 8 220 -22 q 142 107 153 38 l 139 107 q 121 8 129 66 q 114 -102 114 -50 q 122 -213 114 -168 q 147 -289 130 -258 l 83 -334 q 62 -259 70 -300 q 54 -183 54 -218 q 78 32 54 -97 q 111 260 102 161 l 115 305 q 130 496 125 418 q 135 650 135 573 l 203 659 l 191 539 q 176 367 181 432 q 171 250 171 302 q 202 79 171 129 q 286 29 233 29 q 440 128 371 29 q 524 383 509 227 q 542 643 538 540 l 614 660 q 586 440 606 625 q 567 147 567 255 q 582 66 567 93 q 624 39 596 39 q 671 46 652 39 q 725 75 690 54 l 717 26 q 616 -14 675 -14 q 537 31 560 -14 q 514 157 514 75 z "},"ν":{"ha":606,"x_min":40,"x_max":559,"o":"m 283 90 l 286 90 q 446 356 393 219 q 498 650 498 492 l 547 659 q 559 596 559 623 q 503 352 559 488 q 364 113 446 216 l 337 78 q 294 22 309 43 q 278 -5 278 1 l 232 5 q 165 389 232 233 q 40 616 98 544 l 87 659 q 218 420 153 585 q 283 90 283 256 z "},"ξ":{"ha":575,"x_min":71,"x_max":586,"o":"m 378 564 q 446 566 409 564 q 490 567 459 566 l 478 504 q 372 513 419 513 q 204 434 275 513 q 134 254 134 356 q 177 124 134 163 q 314 61 221 84 q 451 6 407 38 q 496 -83 496 -25 q 484 -151 496 -119 q 428 -249 473 -182 l 393 -236 q 424 -156 414 -189 q 435 -100 435 -124 q 321 2 435 -22 q 139 81 208 26 q 71 240 71 137 q 130 424 71 343 q 283 533 189 505 l 282 538 q 200 588 224 556 q 175 673 175 621 q 244 806 175 747 q 411 901 313 865 l 411 905 q 168 890 325 890 l 183 950 q 572 979 456 950 l 586 922 q 321 813 406 873 q 236 673 236 753 q 272 590 236 616 q 378 564 307 564 z "},"ο":{"ha":730,"x_min":71,"x_max":660,"o":"m 71 282 q 166 556 71 439 q 410 673 262 673 q 590 592 521 673 q 660 382 660 510 q 563 93 660 212 q 319 -26 467 -26 q 140 60 210 -26 q 71 282 71 147 m 134 288 q 186 98 134 169 q 330 26 238 26 q 519 126 441 26 q 597 366 597 227 q 546 554 597 487 q 396 621 495 621 q 208 523 283 621 q 134 288 134 425 z "},"π":{"ha":823,"x_min":57,"x_max":790,"o":"m 568 585 q 528 218 528 346 q 550 77 528 117 q 624 37 573 37 q 676 46 652 37 q 733 71 701 54 l 720 18 q 680 -4 707 6 q 618 -14 653 -14 q 498 31 533 -14 q 464 182 464 76 q 483 358 464 241 q 525 581 501 475 l 525 585 l 315 585 q 233 222 280 370 q 132 -7 185 75 l 57 7 q 184 247 129 95 q 269 585 239 399 l 211 585 q 131 579 163 585 q 69 559 100 574 l 79 602 q 248 644 127 644 q 790 652 592 644 l 781 576 q 568 585 683 585 z "},"ρ":{"ha":689,"x_min":24,"x_max":608,"o":"m 371 661 q 544 580 479 661 q 608 375 608 498 q 522 101 608 220 q 310 -18 436 -18 q 173 34 234 -18 q 92 176 113 86 l 85 176 q 81 25 81 131 q 90 -134 81 -52 q 115 -292 99 -217 l 58 -323 q 24 9 24 -141 q 101 476 24 291 q 371 661 179 661 m 546 358 q 495 541 546 473 q 361 610 444 610 q 190 521 254 610 q 118 272 126 433 q 190 91 140 149 q 319 33 241 33 q 479 134 412 33 q 546 358 546 234 z "},"ς":{"ha":567,"x_min":58,"x_max":530,"o":"m 311 75 q 396 33 366 51 q 448 -15 427 15 q 469 -87 469 -44 q 454 -155 469 -121 q 400 -249 439 -189 l 364 -236 q 410 -89 410 -153 q 388 -38 410 -60 q 280 23 366 -16 l 264 31 q 116 135 174 72 q 58 298 58 198 q 150 565 58 470 q 407 660 241 660 q 530 646 477 660 l 504 585 q 448 602 475 596 q 387 607 421 607 q 198 528 275 607 q 121 310 121 450 q 167 173 121 226 q 289 85 214 119 l 311 75 z "},"σ":{"ha":714,"x_min":71,"x_max":689,"o":"m 533 566 q 588 473 566 525 q 610 342 610 422 q 515 90 610 207 q 296 -26 420 -26 q 130 56 190 -26 q 71 261 71 138 q 163 538 71 430 q 404 647 256 647 q 689 663 633 647 l 673 610 q 534 578 624 578 l 533 566 m 463 582 q 399 589 441 589 q 205 502 279 589 q 132 272 132 415 q 304 25 132 25 q 477 125 406 25 q 547 353 547 225 q 525 481 547 423 q 463 582 502 538 z "},"τ":{"ha":661,"x_min":69,"x_max":625,"o":"m 193 585 q 131 579 165 585 q 69 559 97 573 l 79 602 q 149 634 106 625 q 239 644 192 644 q 625 652 470 644 l 614 581 q 342 585 578 585 q 301 218 301 346 q 324 77 301 117 q 397 37 347 37 q 449 46 425 37 q 507 71 473 54 l 493 18 q 454 -4 481 6 q 392 -14 427 -14 q 272 31 307 -14 q 237 182 237 75 q 256 358 237 241 q 298 581 275 475 l 298 585 l 193 585 z "},"υ":{"ha":653,"x_min":61,"x_max":586,"o":"m 129 176 q 161 65 129 100 q 267 29 194 29 q 452 135 379 29 q 525 416 525 240 q 517 529 525 467 q 494 653 509 592 l 541 660 q 573 552 561 614 q 586 443 586 490 q 495 111 586 244 q 271 -22 404 -22 q 120 27 168 -22 q 72 182 72 77 q 90 327 72 226 q 107 471 107 429 q 61 632 107 573 l 121 659 q 155 585 144 620 q 165 492 165 550 q 147 326 165 415 q 129 176 129 237 z "},"φ":{"ha":1004,"x_min":71,"x_max":933,"o":"m 437 39 q 460 365 437 56 q 701 673 484 673 q 872 613 812 673 q 933 449 933 552 q 810 130 933 260 q 492 -14 687 0 q 481 -170 492 -76 q 452 -332 471 -263 l 397 -329 q 427 -145 416 -235 q 437 -14 437 -55 q 171 78 271 -5 q 71 297 71 161 q 148 547 71 451 q 374 677 226 642 l 386 628 q 200 524 267 608 q 134 318 134 440 q 214 115 134 184 q 437 39 294 45 m 696 624 q 523 392 549 624 q 497 39 497 159 q 767 162 663 51 q 871 435 871 273 q 823 573 871 523 q 696 624 776 624 z "},"χ":{"ha":686,"x_min":-28,"x_max":640,"o":"m 611 -249 l 610 -301 q 565 -321 587 -315 q 517 -328 543 -328 q 436 -289 466 -328 q 369 -116 406 -251 q 304 143 332 18 l 178 -33 q 76 -205 110 -129 q 39 -323 42 -281 l -28 -310 q 54 -130 -23 -254 q 292 197 132 -6 q 269 302 286 222 l 236 454 q 196 568 220 529 q 125 607 172 607 q 85 603 105 607 q 57 595 64 599 l 66 640 q 101 656 77 649 q 144 663 125 663 q 268 561 238 663 q 340 236 297 459 l 478 433 q 568 659 553 543 l 640 644 q 567 487 633 595 q 353 179 500 379 l 359 151 q 429 -113 400 -27 q 475 -234 458 -198 q 533 -271 492 -271 q 573 -265 550 -271 q 611 -249 595 -259 z "},"ψ":{"ha":897,"x_min":72,"x_max":831,"o":"m 457 357 l 429 47 q 678 170 588 64 q 768 453 768 276 q 761 548 768 497 q 742 644 754 598 l 789 660 q 831 437 831 572 q 722 137 831 259 q 422 -5 614 14 q 400 -298 408 -151 l 326 -328 q 364 -5 331 -282 q 148 68 224 2 q 72 262 72 135 q 86 383 72 305 q 100 497 100 461 q 72 625 100 591 l 125 656 q 158 501 158 602 q 153 438 158 476 l 146 390 q 134 271 134 309 q 193 107 134 161 q 371 46 252 54 l 399 338 q 430 651 410 461 q 465 961 450 842 l 518 961 q 495 735 518 951 q 457 357 473 519 z "},"ω":{"ha":996,"x_min":74,"x_max":920,"o":"m 273 28 q 381 66 334 28 q 458 175 428 105 l 460 184 q 459 225 460 211 l 458 268 q 470 435 458 354 q 501 554 482 515 l 536 567 q 543 431 543 511 q 534 298 543 373 q 511 174 525 223 l 510 163 q 569 62 532 96 q 660 28 606 28 q 803 112 748 28 q 859 342 859 197 q 834 496 859 432 q 762 616 810 561 l 783 657 q 888 514 857 595 q 920 330 920 433 q 847 83 920 191 q 669 -24 775 -24 q 552 11 603 -24 q 482 113 501 45 l 475 113 q 394 11 449 46 q 275 -24 339 -24 q 123 43 173 -24 q 74 244 74 109 q 134 478 74 368 q 296 665 194 589 l 314 628 q 184 453 233 551 q 135 252 135 355 q 167 80 135 132 q 273 28 199 28 z "},"ϊ":{"ha":382,"x_min":64,"x_max":363,"o":"m 64 835 q 118 900 64 900 q 152 887 140 900 q 163 851 163 875 q 149 804 163 821 q 109 787 136 787 q 75 800 85 787 q 64 835 64 813 m 264 835 q 318 900 264 900 q 352 887 340 900 q 363 851 363 875 q 349 804 363 821 q 309 787 336 787 q 275 800 286 787 q 264 835 264 813 m 97 143 q 106 267 97 184 q 140 536 115 350 l 155 648 l 215 660 q 168 314 182 430 q 154 146 154 197 q 169 65 154 90 q 225 40 184 40 q 282 50 258 40 q 340 79 307 59 l 328 26 q 283 -1 313 12 q 224 -14 252 -14 q 127 20 157 -14 q 97 143 97 54 z "},"ϋ":{"ha":653,"x_min":61,"x_max":586,"o":"m 129 176 q 161 65 129 100 q 267 29 194 29 q 452 135 379 29 q 525 416 525 240 q 517 529 525 467 q 494 653 509 592 l 541 660 q 573 552 561 614 q 586 443 586 490 q 495 111 586 244 q 271 -22 404 -22 q 120 27 168 -22 q 72 182 72 77 q 90 327 72 226 q 107 471 107 429 q 61 632 107 573 l 121 659 q 155 585 144 620 q 165 492 165 550 q 147 326 165 415 q 129 176 129 237 m 156 835 q 210 900 156 900 q 254 851 254 900 q 200 787 254 787 q 156 835 156 787 m 389 835 q 444 900 389 900 q 488 851 488 900 q 433 787 488 787 q 389 835 389 787 z "},"ό":{"ha":730,"x_min":71,"x_max":660,"o":"m 71 282 q 166 556 71 439 q 410 673 262 673 q 590 592 521 673 q 660 382 660 510 q 563 93 660 212 q 319 -26 467 -26 q 140 60 210 -26 q 71 282 71 147 m 134 288 q 186 98 134 169 q 330 26 238 26 q 519 126 441 26 q 597 366 597 227 q 546 554 597 487 q 396 621 495 621 q 208 523 283 621 q 134 288 134 425 m 390 757 l 347 757 q 430 896 351 783 q 511 1023 509 1008 l 607 1023 q 498 892 603 1010 q 390 757 394 774 z "},"ύ":{"ha":653,"x_min":61,"x_max":586,"o":"m 129 176 q 161 65 129 100 q 267 29 194 29 q 452 135 379 29 q 525 416 525 240 q 517 529 525 467 q 494 653 509 592 l 541 660 q 573 552 561 614 q 586 443 586 490 q 495 111 586 244 q 271 -22 404 -22 q 120 27 168 -22 q 72 182 72 77 q 90 327 72 226 q 107 471 107 429 q 61 632 107 573 l 121 659 q 155 585 144 620 q 165 492 165 550 q 147 326 165 415 q 129 176 129 237 m 302 757 l 260 757 q 342 896 264 783 q 424 1023 421 1008 l 519 1023 q 411 892 515 1010 q 302 757 307 774 z "},"ώ":{"ha":996,"x_min":74,"x_max":920,"o":"m 273 28 q 381 66 334 28 q 458 175 428 105 l 460 184 q 459 225 460 211 l 458 268 q 470 435 458 354 q 501 554 482 515 l 536 567 q 543 431 543 511 q 534 298 543 373 q 511 174 525 223 l 510 163 q 569 62 532 96 q 660 28 606 28 q 803 112 748 28 q 859 342 859 197 q 834 496 859 432 q 762 616 810 561 l 783 657 q 888 514 857 595 q 920 330 920 433 q 847 83 920 191 q 669 -24 775 -24 q 552 11 603 -24 q 482 113 501 45 l 475 113 q 394 11 449 46 q 275 -24 339 -24 q 123 43 173 -24 q 74 244 74 109 q 134 478 74 368 q 296 665 194 589 l 314 628 q 184 453 233 551 q 135 252 135 355 q 167 80 135 132 q 273 28 199 28 m 515 757 l 472 757 q 555 896 476 783 q 636 1023 633 1008 l 732 1023 q 623 892 728 1010 q 515 757 519 774 z "},"ϰ":{"ha":710,"x_min":43,"x_max":656,"o":"m 653 646 l 628 578 q 528 279 550 371 q 505 126 505 188 q 522 62 505 85 q 572 40 538 40 q 650 54 610 40 l 656 1 q 559 -11 603 -11 q 469 28 493 -11 q 446 129 446 67 q 484 300 446 175 q 570 546 522 425 q 353 288 500 468 q 115 -11 206 109 l 46 -4 q 121 202 48 2 q 193 518 193 403 q 177 582 193 559 q 126 604 160 604 q 49 590 85 604 l 43 643 q 139 656 94 656 q 229 616 205 656 q 253 515 253 577 q 214 339 253 469 q 126 89 174 209 q 356 362 209 181 q 583 653 503 543 l 653 646 z "},"ϱ":{"ha":689,"x_min":24,"x_max":608,"o":"m 24 9 q 101 476 24 291 q 371 661 179 661 q 544 580 479 661 q 608 375 608 498 q 522 101 608 220 q 310 -18 436 -18 q 173 34 234 -18 q 92 176 113 86 l 85 176 q 81 99 82 146 q 81 0 81 52 q 115 -174 81 -120 q 224 -248 149 -228 q 482 -271 300 -269 l 472 -323 q 196 -297 290 -323 q 63 -203 102 -270 q 24 9 24 -136 m 546 358 q 495 541 546 473 q 361 610 444 610 q 190 521 254 610 q 118 272 126 433 q 190 91 140 149 q 319 33 241 33 q 479 134 412 33 q 546 358 546 234 z "},"Ѐ":{"ha":644,"x_min":64,"x_max":614,"o":"m 194 606 l 180 490 q 496 498 394 490 l 488 433 q 353 438 440 436 q 175 440 266 440 q 158 259 170 378 q 140 53 146 140 q 572 64 363 53 l 559 0 l 64 0 q 83 149 71 41 l 97 280 l 118 465 q 155 884 145 693 l 614 884 l 603 821 q 221 828 433 828 l 194 606 m 280 1146 l 374 1146 q 383 1127 374 1143 l 425 1054 l 441 1025 q 472 968 470 975 q 475 960 475 961 l 429 960 q 356 1053 429 970 q 280 1146 283 1135 z "},"Ё":{"ha":644,"x_min":64,"x_max":614,"o":"m 194 606 l 180 490 q 496 498 394 490 l 488 433 q 353 438 440 436 q 175 440 266 440 q 158 259 170 378 q 140 53 146 140 q 572 64 363 53 l 559 0 l 64 0 q 83 149 71 41 l 97 280 l 118 465 q 155 884 145 693 l 614 884 l 603 821 q 221 828 433 828 l 194 606 m 243 1039 q 297 1104 243 1104 q 342 1055 342 1104 q 328 1008 342 1025 q 288 991 315 991 q 254 1004 264 991 q 243 1039 243 1017 m 476 1039 q 530 1104 476 1104 q 575 1055 575 1104 q 562 1008 575 1025 q 521 991 548 991 q 487 1004 498 991 q 476 1039 476 1017 z "},"Ђ":{"ha":854,"x_min":74,"x_max":778,"o":"m 393 -11 l 393 43 q 634 103 551 43 q 717 279 717 163 q 642 404 717 361 q 416 446 568 446 q 354 444 378 446 l 347 361 q 318 0 327 157 l 244 0 q 285 343 244 -2 q 332 828 326 688 q 74 821 264 828 l 81 884 l 707 884 l 696 821 l 642 823 q 401 828 496 828 q 383 687 399 810 q 359 497 367 564 q 389 498 378 497 l 447 498 q 692 440 606 498 q 778 278 778 382 q 672 67 778 144 q 393 -11 566 -11 z "},"Ѓ":{"ha":665,"x_min":64,"x_max":623,"o":"m 221 828 q 213 746 220 800 l 204 676 q 165 351 178 479 q 141 48 152 223 l 138 0 l 64 0 q 83 149 71 41 l 97 280 l 118 465 q 155 884 145 693 l 623 884 l 611 821 q 221 828 458 828 m 399 960 l 352 960 q 424 1054 352 970 q 496 1146 496 1138 l 599 1146 q 577 1121 599 1142 q 496 1054 555 1101 q 399 960 399 970 z "},"Є":{"ha":713,"x_min":56,"x_max":708,"o":"m 135 496 q 412 494 239 496 l 529 493 l 521 437 q 126 443 339 443 q 123 370 123 422 q 198 113 123 189 q 432 37 273 37 q 532 46 488 37 q 648 77 576 55 l 635 9 q 525 -12 570 -5 q 419 -18 480 -18 q 56 350 56 -18 q 179 754 56 612 q 536 896 302 896 q 708 876 639 896 l 690 810 q 503 835 607 835 q 135 496 201 835 z "},"Ѕ":{"ha":657,"x_min":26,"x_max":574,"o":"m 163 673 q 193 575 163 614 q 341 485 224 535 q 509 376 458 434 q 559 232 559 317 q 228 -20 559 -20 q 123 -13 180 -20 q 26 7 66 -5 l 49 72 q 133 44 81 56 q 241 33 185 33 l 248 33 q 431 84 367 36 q 494 215 494 133 q 462 332 494 286 q 309 431 429 378 q 143 535 189 484 q 98 659 98 587 q 176 831 98 768 q 395 895 254 895 q 574 876 511 895 l 550 811 q 354 843 467 843 q 218 795 273 843 q 163 673 163 747 z "},"І":{"ha":292,"x_min":62,"x_max":228,"o":"m 136 0 l 62 0 q 111 412 73 79 q 154 884 149 745 l 228 884 q 177 471 203 708 q 136 0 150 234 z "},"Ї":{"ha":292,"x_min":41,"x_max":374,"o":"m 136 0 l 62 0 q 111 412 73 79 q 154 884 149 745 l 228 884 q 177 471 203 708 q 136 0 150 234 m 41 1039 q 96 1104 41 1104 q 140 1055 140 1104 q 127 1008 140 1025 q 86 991 113 991 q 52 1004 63 991 q 41 1039 41 1017 m 275 1039 q 329 1104 275 1104 q 374 1055 374 1104 q 360 1008 374 1025 q 319 991 347 991 q 286 1004 296 991 q 275 1039 275 1017 z "},"Ј":{"ha":517,"x_min":-26,"x_max":468,"o":"m 111 -18 q 33 -14 71 -18 q -26 -1 -5 -9 l -11 61 q 46 43 14 50 q 111 36 78 36 q 277 111 228 36 q 343 355 326 185 l 353 448 q 380 709 371 613 q 393 884 390 804 l 468 884 q 442 699 456 820 q 405 370 427 577 q 319 72 383 163 q 111 -18 255 -18 z "},"Љ":{"ha":1107,"x_min":4,"x_max":1063,"o":"m 673 -4 q 530 0 637 -4 q 577 390 564 246 q 604 641 591 534 q 625 831 617 748 l 479 831 q 361 519 449 722 q 176 156 274 316 q 4 -11 77 -3 l 8 74 q 227 372 84 90 q 436 884 370 655 l 696 884 q 673 697 690 836 q 648 498 655 558 q 725 500 675 500 q 981 441 899 500 q 1063 279 1063 383 q 959 68 1063 140 q 673 -4 854 -4 m 711 447 q 642 446 660 447 q 607 54 616 203 q 676 50 636 50 q 919 109 836 50 q 1002 273 1002 168 q 931 400 1002 353 q 711 447 861 447 z "},"Њ":{"ha":1069,"x_min":64,"x_max":1028,"o":"m 639 -4 q 496 0 603 -4 q 547 441 510 99 l 175 441 q 153 224 161 319 q 138 0 145 129 l 64 0 q 113 414 75 77 q 155 884 150 751 l 229 884 q 180 494 205 721 l 553 494 q 575 717 567 627 q 587 884 584 807 l 661 884 q 614 498 643 757 q 690 500 640 500 q 946 441 865 500 q 1028 279 1028 383 q 924 68 1028 140 q 639 -4 820 -4 m 676 447 q 607 446 627 447 q 572 54 584 236 q 642 50 603 50 q 884 109 801 50 q 966 273 966 168 q 896 400 966 353 q 676 447 826 447 z "},"Ћ":{"ha":904,"x_min":74,"x_max":782,"o":"m 760 0 l 686 0 q 706 161 694 62 q 718 307 718 259 q 678 412 718 378 q 546 446 638 446 q 354 440 432 446 l 349 380 q 318 0 326 140 l 244 0 q 287 353 248 18 q 332 828 326 688 q 74 821 264 828 l 81 884 l 707 884 l 696 821 l 642 823 q 401 828 496 828 q 378 635 393 755 q 359 490 363 516 q 547 497 447 497 q 728 454 675 497 q 782 311 782 412 q 773 194 782 279 q 760 0 765 109 z "},"Ќ":{"ha":758,"x_min":64,"x_max":697,"o":"m 125 528 q 145 738 138 654 q 155 884 153 821 l 229 884 q 179 475 219 814 q 188 473 181 475 q 249 472 195 472 q 349 485 302 472 q 431 523 396 498 q 498 589 466 547 q 554 682 531 631 q 594 795 577 732 q 628 884 612 858 l 697 884 q 682 845 694 873 l 667 810 q 597 643 630 703 q 524 539 564 584 q 411 454 485 494 l 411 447 q 576 260 527 401 q 646 0 626 118 l 574 0 l 559 68 q 503 286 536 226 q 421 385 469 347 q 258 424 372 424 q 190 422 205 424 q 174 421 175 421 q 153 219 161 310 q 138 0 145 127 l 64 0 q 114 422 91 214 l 125 528 m 416 960 l 370 960 q 442 1054 370 970 q 514 1146 514 1138 l 616 1146 q 594 1121 616 1142 q 514 1054 572 1101 q 416 960 416 970 z "},"Ѝ":{"ha":827,"x_min":68,"x_max":764,"o":"m 730 623 l 705 419 q 671 0 683 219 l 596 0 q 644 406 607 64 l 648 440 l 661 557 q 677 725 670 644 l 676 725 q 391 371 645 665 q 127 0 137 77 l 68 0 q 85 127 74 33 q 111 351 96 222 l 118 419 q 146 683 136 581 q 161 884 157 785 l 236 884 q 180 441 222 812 l 169 335 q 149 157 159 230 l 155 157 q 438 508 180 208 q 704 884 696 808 l 764 884 q 751 782 762 863 q 730 623 740 701 m 336 1146 l 429 1146 q 439 1127 429 1143 l 480 1054 l 497 1025 q 528 968 526 975 q 530 960 530 961 l 485 960 q 412 1053 485 970 q 336 1146 339 1135 z "},"Ў":{"ha":732,"x_min":45,"x_max":739,"o":"m 45 -12 l 50 46 q 177 69 137 52 q 257 135 216 87 q 345 262 298 182 q 201 613 316 364 q 86 882 86 863 l 86 884 l 161 884 q 187 806 161 873 q 271 604 212 739 l 279 586 q 362 389 342 441 q 383 317 383 336 l 390 317 l 440 409 q 565 640 473 471 q 669 884 656 808 l 739 884 q 624 635 731 841 q 450 317 516 429 q 324 125 385 205 q 207 16 264 44 q 45 -12 150 -12 m 220 1146 l 273 1154 q 323 1033 286 1067 q 418 999 360 999 q 524 1038 473 999 q 612 1160 574 1077 l 650 1139 q 543 995 601 1041 q 414 949 485 949 q 220 1146 240 949 z "},"Џ":{"ha":766,"x_min":64,"x_max":705,"o":"m 614 0 l 372 0 q 322 -282 354 -83 l 290 -282 q 300 0 293 -227 l 64 0 q 102 317 73 58 l 115 430 q 138 652 129 549 q 155 884 148 756 l 229 884 l 224 846 q 174 429 194 635 l 136 54 l 547 54 l 589 414 q 618 690 608 583 q 632 884 629 796 l 705 884 q 659 508 690 752 q 614 0 628 264 z "},"А":{"ha":844,"x_min":-18,"x_max":770,"o":"m 207 315 q 174 252 196 292 l 139 186 q 88 76 111 131 q 61 0 65 20 l -18 0 q 136 296 -12 16 q 350 721 283 576 q 421 884 418 865 l 509 884 q 639 435 509 846 q 770 0 770 25 l 694 0 q 610 315 694 16 l 207 315 m 460 825 q 405 706 458 817 q 235 368 352 595 l 599 368 q 465 825 465 797 l 460 825 z "},"Б":{"ha":688,"x_min":66,"x_max":656,"o":"m 224 828 q 211 718 218 777 l 200 631 q 184 504 189 545 q 296 507 224 507 q 548 451 460 507 q 635 294 635 394 q 527 74 635 152 q 245 -4 419 -4 q 66 0 204 -4 q 113 393 77 65 q 158 884 150 722 l 656 884 l 646 821 q 224 828 408 828 m 179 449 q 144 57 155 216 q 249 50 175 50 q 495 114 416 50 q 574 282 574 177 q 505 412 574 369 q 282 454 436 454 q 221 453 243 454 q 179 449 199 452 z "},"В":{"ha":730,"x_min":62,"x_max":654,"o":"m 406 888 q 577 839 515 888 q 639 700 639 790 q 594 561 639 618 q 472 485 550 505 l 472 481 q 604 412 553 465 q 654 288 654 359 q 549 76 654 156 q 254 -4 444 -4 q 62 0 223 -4 q 100 317 72 66 l 117 465 q 154 884 146 720 l 228 884 q 312 886 254 884 q 406 888 370 888 m 182 507 q 236 506 202 507 l 279 505 q 509 549 442 505 q 576 692 576 593 q 392 835 576 835 q 290 833 326 835 q 220 827 254 832 q 210 758 220 823 q 182 507 201 692 m 138 58 q 275 50 196 50 q 503 110 416 50 q 590 277 590 170 q 523 406 590 358 q 339 454 456 454 q 242 454 280 454 q 175 450 204 453 q 138 58 147 189 z "},"Г":{"ha":596,"x_min":64,"x_max":623,"o":"m 221 828 q 213 746 220 800 l 204 676 q 165 351 178 479 q 141 48 152 223 l 138 0 l 64 0 q 83 149 71 41 l 97 280 l 118 465 q 155 884 145 693 l 623 884 l 611 821 q 221 828 458 828 z "},"Д":{"ha":838,"x_min":-33,"x_max":794,"o":"m 758 -100 q 721 -282 727 -231 l 685 -282 l 713 0 q 605 6 670 5 q 383 7 539 7 q 64 0 168 7 q -1 -282 40 -85 l -33 -282 q -21 -162 -32 -265 q -5 30 -10 -59 l -3 45 q -3 54 -3 51 l 57 54 q 454 884 215 437 l 757 884 q 701 456 721 663 q 675 54 681 249 l 794 54 q 783 1 792 37 l 764 -79 l 758 -100 m 608 54 q 628 289 611 111 l 642 440 l 665 674 q 681 836 674 764 l 494 836 q 257 369 349 560 q 122 54 165 177 l 608 54 z "},"Е":{"ha":644,"x_min":64,"x_max":614,"o":"m 194 606 l 180 490 q 496 498 394 490 l 488 433 q 353 438 440 436 q 175 440 266 440 q 158 259 170 378 q 140 53 146 140 q 572 64 363 53 l 559 0 l 64 0 q 83 149 71 41 l 97 280 l 118 465 q 155 884 145 693 l 614 884 l 603 821 q 221 828 433 828 l 194 606 z "},"Ж":{"ha":1139,"x_min":37,"x_max":1092,"o":"m 806 447 q 959 282 916 404 q 1032 0 1003 160 l 960 0 l 946 68 q 889 286 923 224 q 807 385 856 347 q 644 424 758 424 q 625 423 634 424 l 608 421 q 588 219 596 310 q 572 0 580 127 l 498 0 q 522 190 507 57 q 549 422 538 323 q 529 424 541 424 q 304 371 382 424 q 142 68 227 317 q 132 40 138 54 l 115 0 l 37 0 q 109 164 50 26 q 209 356 168 302 q 358 452 250 410 l 361 458 q 247 559 286 492 q 190 733 209 627 q 161 884 172 840 l 231 884 q 255 745 239 865 q 315 569 271 625 q 412 492 359 512 q 538 472 465 472 q 554 473 549 472 l 559 525 q 579 734 572 654 q 590 884 587 813 l 664 884 q 614 475 654 814 q 643 472 634 472 q 742 485 696 472 q 822 521 788 497 q 889 586 856 545 q 945 677 922 627 q 987 793 969 728 q 1022 884 1006 857 l 1092 884 q 1075 841 1091 880 q 1034 738 1058 801 q 987 634 1010 675 q 934 558 964 594 q 879 501 904 522 q 806 454 854 480 l 806 447 z "},"З":{"ha":725,"x_min":53,"x_max":646,"o":"m 646 701 q 598 566 646 628 q 473 479 551 503 l 475 473 q 595 409 549 462 q 642 281 642 356 q 547 65 642 150 q 309 -20 452 -20 q 53 24 149 -20 l 72 90 q 194 50 132 62 q 313 37 255 37 q 504 101 428 37 q 581 262 581 164 q 514 397 581 351 q 315 444 448 444 q 222 441 245 444 l 241 504 q 336 500 280 500 q 513 558 442 500 q 585 694 585 616 q 537 801 585 765 q 387 838 489 838 q 163 796 278 838 l 186 865 q 290 885 232 876 q 419 895 347 895 q 585 847 525 895 q 646 701 646 800 z "},"И":{"ha":827,"x_min":68,"x_max":764,"o":"m 730 623 l 705 419 q 671 0 683 219 l 596 0 q 644 406 607 64 l 648 440 l 661 557 q 677 725 670 644 l 676 725 q 391 371 645 665 q 127 0 137 77 l 68 0 q 85 127 74 33 q 111 351 96 222 l 118 419 q 146 683 136 581 q 161 884 157 785 l 236 884 q 180 441 222 812 l 169 335 q 149 157 159 230 l 155 157 q 438 508 180 208 q 704 884 696 808 l 764 884 q 751 782 762 863 q 730 623 740 701 z "},"Й":{"ha":827,"x_min":68,"x_max":764,"o":"m 730 623 l 705 419 q 671 0 683 219 l 596 0 q 644 406 607 64 l 648 440 l 661 557 q 677 725 670 644 l 676 725 q 391 371 645 665 q 127 0 137 77 l 68 0 q 85 127 74 33 q 111 351 96 222 l 118 419 q 146 683 136 581 q 161 884 157 785 l 236 884 q 180 441 222 812 l 169 335 q 149 157 159 230 l 155 157 q 438 508 180 208 q 704 884 696 808 l 764 884 q 751 782 762 863 q 730 623 740 701 m 272 1146 l 325 1154 q 375 1033 338 1067 q 471 999 412 999 q 576 1038 525 999 q 664 1160 627 1077 l 703 1139 q 595 995 653 1041 q 467 949 537 949 q 272 1146 292 949 z "}}}
